0
SECTION
2
HEADER
9
$ACADVER
1
AC1009
9
$DWGCODEPAGE
3
ANSI_1252
9
$INSUNITS
70
6
9
$MEASUREMENT
70
1
9
$LTSCALE
40
1.000000
9
$CELTSCALE
40
1.000000
9
$PDMODE
70
1
9
$PDSIZE
40
0.000000
0
ENDSEC
0
SECTION
2
TABLES
0
TABLE
2
LTYPE
70
3
0
LTYPE
2
CONTINUOUS
70
0
3
Solid line
72
65
73
0
40
0.000000
0
LTYPE
2
PLANDASH
70
0
3
Plan boundary dash ____ ____ ____
72
65
73
2
40
5.588000
49
3.471333
49
-2.116667
0
LTYPE
2
PLANDOT
70
0
3
Leader dots . . . . . . . .
72
65
73
2
40
1.827389
49
0.931333
49
-0.896056
0
ENDTAB
0
TABLE
2
LAYER
70
15
0
LAYER
2
0
70
0
62
7
6
CONTINUOUS
0
LAYER
2
BOUNDARY-NEW
70
0
62
1
6
CONTINUOUS
0
LAYER
2
BOUNDARY-EXIST
70
0
62
3
6
PLANDASH
0
LAYER
2
ADJOINING
70
0
62
7
6
PLANDASH
0
LAYER
2
BEACONS
70
0
62
2
6
CONTINUOUS
0
LAYER
2
BEACON-TEXT
70
0
62
2
6
CONTINUOUS
0
LAYER
2
PARCEL-TEXT
70
0
62
5
6
CONTINUOUS
0
LAYER
2
GRID
70
0
62
8
6
CONTINUOUS
0
LAYER
2
GRID-TEXT
70
0
62
8
6
CONTINUOUS
0
LAYER
2
ROAD-TEXT
70
0
62
4
6
CONTINUOUS
0
LAYER
2
TITLE
70
0
62
7
6
CONTINUOUS
0
LAYER
2
APPROVAL
70
0
62
7
6
CONTINUOUS
0
LAYER
2
NORTH-ARROW
70
0
62
7
6
CONTINUOUS
0
LAYER
2
SHEET-BORDER
70
0
62
9
6
CONTINUOUS
0
LAYER
2
INSET
70
0
62
9
6
CONTINUOUS
0
ENDTAB
0
TABLE
2
STYLE
70
3
0
STYLE
2
ARIAL
70
0
40
0.000000
41
1.000000
50
0.000000
71
0
42
2.500000
3
arial.ttf
4

0
STYLE
2
ARIAL-BOLD
70
0
40
0.000000
41
1.000000
50
0.000000
71
0
42
2.500000
3
arialbd.ttf
4

0
STYLE
2
SERIF
70
0
40
0.000000
41
1.000000
50
0.000000
71
0
42
2.500000
3
times.ttf
4

0
ENDTAB
0
ENDSEC
0
SECTION
2
BLOCKS
0
BLOCK
8
0
2
BCN_PLACED
70
0
10
0.000000
20
0.000000
30
0.000000
3
BCN_PLACED
1

0
POINT
8
0
10
0.000000
20
0.000000
30
0.000000
0
POLYLINE
8
0
66
1
70
1
10
0.000000
20
0.000000
30
0.000000
0
VERTEX
8
0
10
2.498000
20
0.000000
30
0.000000
0
VERTEX
8
0
10
2.450002
20
0.487336
30
0.000000
0
VERTEX
8
0
10
2.307851
20
0.955943
30
0.000000
0
VERTEX
8
0
10
2.077011
20
1.387814
30
0.000000
0
VERTEX
8
0
10
1.766353
20
1.766353
30
0.000000
0
VERTEX
8
0
10
1.387814
20
2.077011
30
0.000000
0
VERTEX
8
0
10
0.955943
20
2.307851
30
0.000000
0
VERTEX
8
0
10
0.487336
20
2.450002
30
0.000000
0
VERTEX
8
0
10
0.000000
20
2.498000
30
0.000000
0
VERTEX
8
0
10
-0.487336
20
2.450002
30
0.000000
0
VERTEX
8
0
10
-0.955943
20
2.307851
30
0.000000
0
VERTEX
8
0
10
-1.387814
20
2.077011
30
0.000000
0
VERTEX
8
0
10
-1.766353
20
1.766353
30
0.000000
0
VERTEX
8
0
10
-2.077011
20
1.387814
30
0.000000
0
VERTEX
8
0
10
-2.307851
20
0.955943
30
0.000000
0
VERTEX
8
0
10
-2.450002
20
0.487336
30
0.000000
0
VERTEX
8
0
10
-2.498000
20
0.000000
30
0.000000
0
VERTEX
8
0
10
-2.450002
20
-0.487336
30
0.000000
0
VERTEX
8
0
10
-2.307851
20
-0.955943
30
0.000000
0
VERTEX
8
0
10
-2.077011
20
-1.387814
30
0.000000
0
VERTEX
8
0
10
-1.766353
20
-1.766353
30
0.000000
0
VERTEX
8
0
10
-1.387814
20
-2.077011
30
0.000000
0
VERTEX
8
0
10
-0.955943
20
-2.307851
30
0.000000
0
VERTEX
8
0
10
-0.487336
20
-2.450002
30
0.000000
0
VERTEX
8
0
10
0.000000
20
-2.498000
30
0.000000
0
VERTEX
8
0
10
0.487336
20
-2.450002
30
0.000000
0
VERTEX
8
0
10
0.955943
20
-2.307851
30
0.000000
0
VERTEX
8
0
10
1.387814
20
-2.077011
30
0.000000
0
VERTEX
8
0
10
1.766353
20
-1.766353
30
0.000000
0
VERTEX
8
0
10
2.077011
20
-1.387814
30
0.000000
0
VERTEX
8
0
10
2.307851
20
-0.955943
30
0.000000
0
VERTEX
8
0
10
2.450002
20
-0.487336
30
0.000000
0
SEQEND
8
0
0
ENDBLK
8
0
0
BLOCK
8
0
2
BCN_FOUND
70
0
10
0.000000
20
0.000000
30
0.000000
3
BCN_FOUND
1

0
POINT
8
0
10
0.000000
20
0.000000
30
0.000000
0
POLYLINE
8
0
66
1
70
1
10
0.000000
20
0.000000
30
0.000000
0
VERTEX
8
0
10
2.498000
20
0.000000
30
0.000000
0
VERTEX
8
0
10
2.450002
20
0.487336
30
0.000000
0
VERTEX
8
0
10
2.307851
20
0.955943
30
0.000000
0
VERTEX
8
0
10
2.077011
20
1.387814
30
0.000000
0
VERTEX
8
0
10
1.766353
20
1.766353
30
0.000000
0
VERTEX
8
0
10
1.387814
20
2.077011
30
0.000000
0
VERTEX
8
0
10
0.955943
20
2.307851
30
0.000000
0
VERTEX
8
0
10
0.487336
20
2.450002
30
0.000000
0
VERTEX
8
0
10
0.000000
20
2.498000
30
0.000000
0
VERTEX
8
0
10
-0.487336
20
2.450002
30
0.000000
0
VERTEX
8
0
10
-0.955943
20
2.307851
30
0.000000
0
VERTEX
8
0
10
-1.387814
20
2.077011
30
0.000000
0
VERTEX
8
0
10
-1.766353
20
1.766353
30
0.000000
0
VERTEX
8
0
10
-2.077011
20
1.387814
30
0.000000
0
VERTEX
8
0
10
-2.307851
20
0.955943
30
0.000000
0
VERTEX
8
0
10
-2.450002
20
0.487336
30
0.000000
0
VERTEX
8
0
10
-2.498000
20
0.000000
30
0.000000
0
VERTEX
8
0
10
-2.450002
20
-0.487336
30
0.000000
0
VERTEX
8
0
10
-2.307851
20
-0.955943
30
0.000000
0
VERTEX
8
0
10
-2.077011
20
-1.387814
30
0.000000
0
VERTEX
8
0
10
-1.766353
20
-1.766353
30
0.000000
0
VERTEX
8
0
10
-1.387814
20
-2.077011
30
0.000000
0
VERTEX
8
0
10
-0.955943
20
-2.307851
30
0.000000
0
VERTEX
8
0
10
-0.487336
20
-2.450002
30
0.000000
0
VERTEX
8
0
10
0.000000
20
-2.498000
30
0.000000
0
VERTEX
8
0
10
0.487336
20
-2.450002
30
0.000000
0
VERTEX
8
0
10
0.955943
20
-2.307851
30
0.000000
0
VERTEX
8
0
10
1.387814
20
-2.077011
30
0.000000
0
VERTEX
8
0
10
1.766353
20
-1.766353
30
0.000000
0
VERTEX
8
0
10
2.077011
20
-1.387814
30
0.000000
0
VERTEX
8
0
10
2.307851
20
-0.955943
30
0.000000
0
VERTEX
8
0
10
2.450002
20
-0.487336
30
0.000000
0
SEQEND
8
0
0
POLYLINE
8
0
66
1
70
1
10
0.000000
20
0.000000
30
0.000000
0
VERTEX
8
0
10
1.482000
20
0.000000
30
0.000000
0
VERTEX
8
0
10
1.453524
20
0.289124
30
0.000000
0
VERTEX
8
0
10
1.369189
20
0.567137
30
0.000000
0
VERTEX
8
0
10
1.232238
20
0.823355
30
0.000000
0
VERTEX
8
0
10
1.047932
20
1.047932
30
0.000000
0
VERTEX
8
0
10
0.823355
20
1.232238
30
0.000000
0
VERTEX
8
0
10
0.567137
20
1.369189
30
0.000000
0
VERTEX
8
0
10
0.289124
20
1.453524
30
0.000000
0
VERTEX
8
0
10
0.000000
20
1.482000
30
0.000000
0
VERTEX
8
0
10
-0.289124
20
1.453524
30
0.000000
0
VERTEX
8
0
10
-0.567137
20
1.369189
30
0.000000
0
VERTEX
8
0
10
-0.823355
20
1.232238
30
0.000000
0
VERTEX
8
0
10
-1.047932
20
1.047932
30
0.000000
0
VERTEX
8
0
10
-1.232238
20
0.823355
30
0.000000
0
VERTEX
8
0
10
-1.369189
20
0.567137
30
0.000000
0
VERTEX
8
0
10
-1.453524
20
0.289124
30
0.000000
0
VERTEX
8
0
10
-1.482000
20
0.000000
30
0.000000
0
VERTEX
8
0
10
-1.453524
20
-0.289124
30
0.000000
0
VERTEX
8
0
10
-1.369189
20
-0.567137
30
0.000000
0
VERTEX
8
0
10
-1.232238
20
-0.823355
30
0.000000
0
VERTEX
8
0
10
-1.047932
20
-1.047932
30
0.000000
0
VERTEX
8
0
10
-0.823355
20
-1.232238
30
0.000000
0
VERTEX
8
0
10
-0.567137
20
-1.369189
30
0.000000
0
VERTEX
8
0
10
-0.289124
20
-1.453524
30
0.000000
0
VERTEX
8
0
10
0.000000
20
-1.482000
30
0.000000
0
VERTEX
8
0
10
0.289124
20
-1.453524
30
0.000000
0
VERTEX
8
0
10
0.567137
20
-1.369189
30
0.000000
0
VERTEX
8
0
10
0.823355
20
-1.232238
30
0.000000
0
VERTEX
8
0
10
1.047932
20
-1.047932
30
0.000000
0
VERTEX
8
0
10
1.232238
20
-0.823355
30
0.000000
0
VERTEX
8
0
10
1.369189
20
-0.567137
30
0.000000
0
VERTEX
8
0
10
1.453524
20
-0.289124
30
0.000000
0
SEQEND
8
0
0
ENDBLK
8
0
0
BLOCK
8
0
2
BCN_FOUND_NA
70
0
10
0.000000
20
0.000000
30
0.000000
3
BCN_FOUND_NA
1

0
POINT
8
0
10
0.000000
20
0.000000
30
0.000000
0
POLYLINE
8
0
66
1
70
1
10
0.000000
20
0.000000
30
0.000000
0
VERTEX
8
0
10
2.498000
20
0.000000
30
0.000000
0
VERTEX
8
0
10
2.450002
20
0.487336
30
0.000000
0
VERTEX
8
0
10
2.307851
20
0.955943
30
0.000000
0
VERTEX
8
0
10
2.077011
20
1.387814
30
0.000000
0
VERTEX
8
0
10
1.766353
20
1.766353
30
0.000000
0
VERTEX
8
0
10
1.387814
20
2.077011
30
0.000000
0
VERTEX
8
0
10
0.955943
20
2.307851
30
0.000000
0
VERTEX
8
0
10
0.487336
20
2.450002
30
0.000000
0
VERTEX
8
0
10
0.000000
20
2.498000
30
0.000000
0
VERTEX
8
0
10
-0.487336
20
2.450002
30
0.000000
0
VERTEX
8
0
10
-0.955943
20
2.307851
30
0.000000
0
VERTEX
8
0
10
-1.387814
20
2.077011
30
0.000000
0
VERTEX
8
0
10
-1.766353
20
1.766353
30
0.000000
0
VERTEX
8
0
10
-2.077011
20
1.387814
30
0.000000
0
VERTEX
8
0
10
-2.307851
20
0.955943
30
0.000000
0
VERTEX
8
0
10
-2.450002
20
0.487336
30
0.000000
0
VERTEX
8
0
10
-2.498000
20
0.000000
30
0.000000
0
VERTEX
8
0
10
-2.450002
20
-0.487336
30
0.000000
0
VERTEX
8
0
10
-2.307851
20
-0.955943
30
0.000000
0
VERTEX
8
0
10
-2.077011
20
-1.387814
30
0.000000
0
VERTEX
8
0
10
-1.766353
20
-1.766353
30
0.000000
0
VERTEX
8
0
10
-1.387814
20
-2.077011
30
0.000000
0
VERTEX
8
0
10
-0.955943
20
-2.307851
30
0.000000
0
VERTEX
8
0
10
-0.487336
20
-2.450002
30
0.000000
0
VERTEX
8
0
10
0.000000
20
-2.498000
30
0.000000
0
VERTEX
8
0
10
0.487336
20
-2.450002
30
0.000000
0
VERTEX
8
0
10
0.955943
20
-2.307851
30
0.000000
0
VERTEX
8
0
10
1.387814
20
-2.077011
30
0.000000
0
VERTEX
8
0
10
1.766353
20
-1.766353
30
0.000000
0
VERTEX
8
0
10
2.077011
20
-1.387814
30
0.000000
0
VERTEX
8
0
10
2.307851
20
-0.955943
30
0.000000
0
VERTEX
8
0
10
2.450002
20
-0.487336
30
0.000000
0
SEQEND
8
0
0
POLYLINE
8
0
66
1
70
1
10
0.000000
20
0.000000
30
0.000000
0
VERTEX
8
0
10
1.482000
20
0.000000
30
0.000000
0
VERTEX
8
0
10
1.453524
20
0.289124
30
0.000000
0
VERTEX
8
0
10
1.369189
20
0.567137
30
0.000000
0
VERTEX
8
0
10
1.232238
20
0.823355
30
0.000000
0
VERTEX
8
0
10
1.047932
20
1.047932
30
0.000000
0
VERTEX
8
0
10
0.823355
20
1.232238
30
0.000000
0
VERTEX
8
0
10
0.567137
20
1.369189
30
0.000000
0
VERTEX
8
0
10
0.289124
20
1.453524
30
0.000000
0
VERTEX
8
0
10
0.000000
20
1.482000
30
0.000000
0
VERTEX
8
0
10
-0.289124
20
1.453524
30
0.000000
0
VERTEX
8
0
10
-0.567137
20
1.369189
30
0.000000
0
VERTEX
8
0
10
-0.823355
20
1.232238
30
0.000000
0
VERTEX
8
0
10
-1.047932
20
1.047932
30
0.000000
0
VERTEX
8
0
10
-1.232238
20
0.823355
30
0.000000
0
VERTEX
8
0
10
-1.369189
20
0.567137
30
0.000000
0
VERTEX
8
0
10
-1.453524
20
0.289124
30
0.000000
0
VERTEX
8
0
10
-1.482000
20
0.000000
30
0.000000
0
VERTEX
8
0
10
-1.453524
20
-0.289124
30
0.000000
0
VERTEX
8
0
10
-1.369189
20
-0.567137
30
0.000000
0
VERTEX
8
0
10
-1.232238
20
-0.823355
30
0.000000
0
VERTEX
8
0
10
-1.047932
20
-1.047932
30
0.000000
0
VERTEX
8
0
10
-0.823355
20
-1.232238
30
0.000000
0
VERTEX
8
0
10
-0.567137
20
-1.369189
30
0.000000
0
VERTEX
8
0
10
-0.289124
20
-1.453524
30
0.000000
0
VERTEX
8
0
10
0.000000
20
-1.482000
30
0.000000
0
VERTEX
8
0
10
0.289124
20
-1.453524
30
0.000000
0
VERTEX
8
0
10
0.567137
20
-1.369189
30
0.000000
0
VERTEX
8
0
10
0.823355
20
-1.232238
30
0.000000
0
VERTEX
8
0
10
1.047932
20
-1.047932
30
0.000000
0
VERTEX
8
0
10
1.232238
20
-0.823355
30
0.000000
0
VERTEX
8
0
10
1.369189
20
-0.567137
30
0.000000
0
VERTEX
8
0
10
1.453524
20
-0.289124
30
0.000000
0
SEQEND
8
0
0
LINE
8
0
10
-2.333452
20
-2.333452
30
0.000000
11
2.333452
21
2.333452
31
0.000000
0
ENDBLK
8
0
0
BLOCK
8
0
2
BCN_RM
70
0
10
0.000000
20
0.000000
30
0.000000
3
BCN_RM
1

0
POINT
8
0
10
0.000000
20
0.000000
30
0.000000
0
POLYLINE
8
0
66
1
70
1
10
0.000000
20
0.000000
30
0.000000
0
VERTEX
8
0
10
2.498000
20
0.000000
30
0.000000
0
VERTEX
8
0
10
2.450002
20
0.487336
30
0.000000
0
VERTEX
8
0
10
2.307851
20
0.955943
30
0.000000
0
VERTEX
8
0
10
2.077011
20
1.387814
30
0.000000
0
VERTEX
8
0
10
1.766353
20
1.766353
30
0.000000
0
VERTEX
8
0
10
1.387814
20
2.077011
30
0.000000
0
VERTEX
8
0
10
0.955943
20
2.307851
30
0.000000
0
VERTEX
8
0
10
0.487336
20
2.450002
30
0.000000
0
VERTEX
8
0
10
0.000000
20
2.498000
30
0.000000
0
VERTEX
8
0
10
-0.487336
20
2.450002
30
0.000000
0
VERTEX
8
0
10
-0.955943
20
2.307851
30
0.000000
0
VERTEX
8
0
10
-1.387814
20
2.077011
30
0.000000
0
VERTEX
8
0
10
-1.766353
20
1.766353
30
0.000000
0
VERTEX
8
0
10
-2.077011
20
1.387814
30
0.000000
0
VERTEX
8
0
10
-2.307851
20
0.955943
30
0.000000
0
VERTEX
8
0
10
-2.450002
20
0.487336
30
0.000000
0
VERTEX
8
0
10
-2.498000
20
0.000000
30
0.000000
0
VERTEX
8
0
10
-2.450002
20
-0.487336
30
0.000000
0
VERTEX
8
0
10
-2.307851
20
-0.955943
30
0.000000
0
VERTEX
8
0
10
-2.077011
20
-1.387814
30
0.000000
0
VERTEX
8
0
10
-1.766353
20
-1.766353
30
0.000000
0
VERTEX
8
0
10
-1.387814
20
-2.077011
30
0.000000
0
VERTEX
8
0
10
-0.955943
20
-2.307851
30
0.000000
0
VERTEX
8
0
10
-0.487336
20
-2.450002
30
0.000000
0
VERTEX
8
0
10
0.000000
20
-2.498000
30
0.000000
0
VERTEX
8
0
10
0.487336
20
-2.450002
30
0.000000
0
VERTEX
8
0
10
0.955943
20
-2.307851
30
0.000000
0
VERTEX
8
0
10
1.387814
20
-2.077011
30
0.000000
0
VERTEX
8
0
10
1.766353
20
-1.766353
30
0.000000
0
VERTEX
8
0
10
2.077011
20
-1.387814
30
0.000000
0
VERTEX
8
0
10
2.307851
20
-0.955943
30
0.000000
0
VERTEX
8
0
10
2.450002
20
-0.487336
30
0.000000
0
SEQEND
8
0
0
LINE
8
0
10
-3.600000
20
0.000000
30
0.000000
11
3.600000
21
0.000000
31
0.000000
0
LINE
8
0
10
0.000000
20
-3.600000
30
0.000000
11
0.000000
21
3.600000
31
0.000000
0
ENDBLK
8
0
0
BLOCK
8
0
2
BCN_WS
70
0
10
0.000000
20
0.000000
30
0.000000
3
BCN_WS
1

0
POINT
8
0
10
0.000000
20
0.000000
30
0.000000
0
POLYLINE
8
0
66
1
70
1
10
0.000000
20
0.000000
30
0.000000
0
VERTEX
8
0
10
2.498000
20
0.000000
30
0.000000
0
VERTEX
8
0
10
2.450002
20
0.487336
30
0.000000
0
VERTEX
8
0
10
2.307851
20
0.955943
30
0.000000
0
VERTEX
8
0
10
2.077011
20
1.387814
30
0.000000
0
VERTEX
8
0
10
1.766353
20
1.766353
30
0.000000
0
VERTEX
8
0
10
1.387814
20
2.077011
30
0.000000
0
VERTEX
8
0
10
0.955943
20
2.307851
30
0.000000
0
VERTEX
8
0
10
0.487336
20
2.450002
30
0.000000
0
VERTEX
8
0
10
0.000000
20
2.498000
30
0.000000
0
VERTEX
8
0
10
-0.487336
20
2.450002
30
0.000000
0
VERTEX
8
0
10
-0.955943
20
2.307851
30
0.000000
0
VERTEX
8
0
10
-1.387814
20
2.077011
30
0.000000
0
VERTEX
8
0
10
-1.766353
20
1.766353
30
0.000000
0
VERTEX
8
0
10
-2.077011
20
1.387814
30
0.000000
0
VERTEX
8
0
10
-2.307851
20
0.955943
30
0.000000
0
VERTEX
8
0
10
-2.450002
20
0.487336
30
0.000000
0
VERTEX
8
0
10
-2.498000
20
0.000000
30
0.000000
0
VERTEX
8
0
10
-2.450002
20
-0.487336
30
0.000000
0
VERTEX
8
0
10
-2.307851
20
-0.955943
30
0.000000
0
VERTEX
8
0
10
-2.077011
20
-1.387814
30
0.000000
0
VERTEX
8
0
10
-1.766353
20
-1.766353
30
0.000000
0
VERTEX
8
0
10
-1.387814
20
-2.077011
30
0.000000
0
VERTEX
8
0
10
-0.955943
20
-2.307851
30
0.000000
0
VERTEX
8
0
10
-0.487336
20
-2.450002
30
0.000000
0
VERTEX
8
0
10
0.000000
20
-2.498000
30
0.000000
0
VERTEX
8
0
10
0.487336
20
-2.450002
30
0.000000
0
VERTEX
8
0
10
0.955943
20
-2.307851
30
0.000000
0
VERTEX
8
0
10
1.387814
20
-2.077011
30
0.000000
0
VERTEX
8
0
10
1.766353
20
-1.766353
30
0.000000
0
VERTEX
8
0
10
2.077011
20
-1.387814
30
0.000000
0
VERTEX
8
0
10
2.307851
20
-0.955943
30
0.000000
0
VERTEX
8
0
10
2.450002
20
-0.487336
30
0.000000
0
SEQEND
8
0
0
SOLID
8
0
10
0.000000
20
0.000000
30
0.000000
11
0.950000
21
0.000000
31
0.000000
12
0.822724
22
0.475000
32
0.000000
13
0.822724
23
0.475000
33
0.000000
0
SOLID
8
0
10
0.000000
20
0.000000
30
0.000000
11
0.822724
21
0.475000
31
0.000000
12
0.475000
22
0.822724
32
0.000000
13
0.475000
23
0.822724
33
0.000000
0
SOLID
8
0
10
0.000000
20
0.000000
30
0.000000
11
0.475000
21
0.822724
31
0.000000
12
0.000000
22
0.950000
32
0.000000
13
0.000000
23
0.950000
33
0.000000
0
SOLID
8
0
10
0.000000
20
0.000000
30
0.000000
11
0.000000
21
0.950000
31
0.000000
12
-0.475000
22
0.822724
32
0.000000
13
-0.475000
23
0.822724
33
0.000000
0
SOLID
8
0
10
0.000000
20
0.000000
30
0.000000
11
-0.475000
21
0.822724
31
0.000000
12
-0.822724
22
0.475000
32
0.000000
13
-0.822724
23
0.475000
33
0.000000
0
SOLID
8
0
10
0.000000
20
0.000000
30
0.000000
11
-0.822724
21
0.475000
31
0.000000
12
-0.950000
22
0.000000
32
0.000000
13
-0.950000
23
0.000000
33
0.000000
0
SOLID
8
0
10
0.000000
20
0.000000
30
0.000000
11
-0.950000
21
0.000000
31
0.000000
12
-0.822724
22
-0.475000
32
0.000000
13
-0.822724
23
-0.475000
33
0.000000
0
SOLID
8
0
10
0.000000
20
0.000000
30
0.000000
11
-0.822724
21
-0.475000
31
0.000000
12
-0.475000
22
-0.822724
32
0.000000
13
-0.475000
23
-0.822724
33
0.000000
0
SOLID
8
0
10
0.000000
20
0.000000
30
0.000000
11
-0.475000
21
-0.822724
31
0.000000
12
0.000000
22
-0.950000
32
0.000000
13
0.000000
23
-0.950000
33
0.000000
0
SOLID
8
0
10
0.000000
20
0.000000
30
0.000000
11
0.000000
21
-0.950000
31
0.000000
12
0.475000
22
-0.822724
32
0.000000
13
0.475000
23
-0.822724
33
0.000000
0
SOLID
8
0
10
0.000000
20
0.000000
30
0.000000
11
0.475000
21
-0.822724
31
0.000000
12
0.822724
22
-0.475000
32
0.000000
13
0.822724
23
-0.475000
33
0.000000
0
SOLID
8
0
10
0.000000
20
0.000000
30
0.000000
11
0.822724
21
-0.475000
31
0.000000
12
0.950000
22
0.000000
32
0.000000
13
0.950000
23
0.000000
33
0.000000
0
ENDBLK
8
0
0
BLOCK
8
0
2
BCN_WSU
70
0
10
0.000000
20
0.000000
30
0.000000
3
BCN_WSU
1

0
POINT
8
0
10
0.000000
20
0.000000
30
0.000000
0
SOLID
8
0
10
0.000000
20
0.000000
30
0.000000
11
1.050000
21
0.000000
31
0.000000
12
0.909327
22
0.525000
32
0.000000
13
0.909327
23
0.525000
33
0.000000
0
SOLID
8
0
10
0.000000
20
0.000000
30
0.000000
11
0.909327
21
0.525000
31
0.000000
12
0.525000
22
0.909327
32
0.000000
13
0.525000
23
0.909327
33
0.000000
0
SOLID
8
0
10
0.000000
20
0.000000
30
0.000000
11
0.525000
21
0.909327
31
0.000000
12
0.000000
22
1.050000
32
0.000000
13
0.000000
23
1.050000
33
0.000000
0
SOLID
8
0
10
0.000000
20
0.000000
30
0.000000
11
0.000000
21
1.050000
31
0.000000
12
-0.525000
22
0.909327
32
0.000000
13
-0.525000
23
0.909327
33
0.000000
0
SOLID
8
0
10
0.000000
20
0.000000
30
0.000000
11
-0.525000
21
0.909327
31
0.000000
12
-0.909327
22
0.525000
32
0.000000
13
-0.909327
23
0.525000
33
0.000000
0
SOLID
8
0
10
0.000000
20
0.000000
30
0.000000
11
-0.909327
21
0.525000
31
0.000000
12
-1.050000
22
0.000000
32
0.000000
13
-1.050000
23
0.000000
33
0.000000
0
SOLID
8
0
10
0.000000
20
0.000000
30
0.000000
11
-1.050000
21
0.000000
31
0.000000
12
-0.909327
22
-0.525000
32
0.000000
13
-0.909327
23
-0.525000
33
0.000000
0
SOLID
8
0
10
0.000000
20
0.000000
30
0.000000
11
-0.909327
21
-0.525000
31
0.000000
12
-0.525000
22
-0.909327
32
0.000000
13
-0.525000
23
-0.909327
33
0.000000
0
SOLID
8
0
10
0.000000
20
0.000000
30
0.000000
11
-0.525000
21
-0.909327
31
0.000000
12
0.000000
22
-1.050000
32
0.000000
13
0.000000
23
-1.050000
33
0.000000
0
SOLID
8
0
10
0.000000
20
0.000000
30
0.000000
11
0.000000
21
-1.050000
31
0.000000
12
0.525000
22
-0.909327
32
0.000000
13
0.525000
23
-0.909327
33
0.000000
0
SOLID
8
0
10
0.000000
20
0.000000
30
0.000000
11
0.525000
21
-0.909327
31
0.000000
12
0.909327
22
-0.525000
32
0.000000
13
0.909327
23
-0.525000
33
0.000000
0
SOLID
8
0
10
0.000000
20
0.000000
30
0.000000
11
0.909327
21
-0.525000
31
0.000000
12
1.050000
22
0.000000
32
0.000000
13
1.050000
23
0.000000
33
0.000000
0
ENDBLK
8
0
0
BLOCK
8
0
2
BCN_TRIG
70
0
10
0.000000
20
0.000000
30
0.000000
3
BCN_TRIG
1

0
POINT
8
0
10
0.000000
20
0.000000
30
0.000000
0
SOLID
8
0
10
2.498097
20
-0.349623
30
0.000000
11
2.460146
21
0.084167
31
0.000000
12
2.884610
22
-0.349623
32
0.000000
13
2.618064
23
0.112013
33
0.000000
0
SOLID
8
0
10
2.460146
20
0.084167
30
0.000000
11
2.347444
21
0.504777
31
0.000000
12
2.618064
22
0.112013
32
0.000000
13
2.383671
23
0.517963
33
0.000000
0
SOLID
8
0
10
2.347444
20
0.504777
30
0.000000
11
2.163416
21
0.899426
31
0.000000
12
2.383671
22
0.517963
32
0.000000
13
2.163416
23
0.899426
33
0.000000
0
SOLID
8
0
10
2.163416
20
0.899426
30
0.000000
11
1.913654
21
1.256123
31
0.000000
12
2.163416
22
0.899426
32
0.000000
13
1.943163
23
1.280885
33
0.000000
0
SOLID
8
0
10
1.913654
20
1.256123
30
0.000000
11
1.605746
21
1.564031
31
0.000000
12
1.943163
22
1.280885
32
0.000000
13
1.708778
23
1.686820
33
0.000000
0
SOLID
8
0
10
1.605746
20
1.564031
30
0.000000
11
1.249049
21
1.813793
31
0.000000
12
1.708778
22
1.686820
32
0.000000
13
1.442249
23
2.148426
33
0.000000
0
SOLID
8
0
10
1.249049
20
1.813793
30
0.000000
11
0.854400
21
1.997821
31
0.000000
12
1.442249
22
2.148426
32
0.000000
13
1.115308
23
2.714661
33
0.000000
0
SOLID
8
0
10
0.854400
20
1.997821
30
0.000000
11
0.433790
21
2.110523
31
0.000000
12
1.115308
22
2.714661
32
0.000000
13
0.674830
23
3.477531
33
0.000000
0
SOLID
8
0
10
0.433790
20
2.110523
30
0.000000
11
0.000000
21
2.148475
31
0.000000
12
0.674830
22
3.477531
32
0.000000
13
0.000000
23
4.646280
33
0.000000
0
SOLID
8
0
10
0.000000
20
2.148475
30
0.000000
11
-0.433790
21
2.110523
31
0.000000
12
0.000000
22
4.646280
32
0.000000
13
-0.674830
23
3.477531
33
0.000000
0
SOLID
8
0
10
-0.433790
20
2.110523
30
0.000000
11
-0.854400
21
1.997821
31
0.000000
12
-0.674830
22
3.477531
32
0.000000
13
-1.115308
23
2.714661
33
0.000000
0
SOLID
8
0
10
-0.854400
20
1.997821
30
0.000000
11
-1.249049
21
1.813793
31
0.000000
12
-1.115308
22
2.714661
32
0.000000
13
-1.442249
23
2.148426
33
0.000000
0
SOLID
8
0
10
-1.249049
20
1.813793
30
0.000000
11
-1.605746
21
1.564031
31
0.000000
12
-1.442249
22
2.148426
32
0.000000
13
-1.708778
23
1.686820
33
0.000000
0
SOLID
8
0
10
-1.605746
20
1.564031
30
0.000000
11
-1.913654
21
1.256123
31
0.000000
12
-1.708778
22
1.686820
32
0.000000
13
-1.943163
23
1.280885
33
0.000000
0
SOLID
8
0
10
-1.913654
20
1.256123
30
0.000000
11
-2.163416
21
0.899426
31
0.000000
12
-1.943163
22
1.280885
32
0.000000
13
-2.163416
23
0.899426
33
0.000000
0
SOLID
8
0
10
-2.163416
20
0.899426
30
0.000000
11
-2.347444
21
0.504777
31
0.000000
12
-2.163416
22
0.899426
32
0.000000
13
-2.383671
23
0.517963
33
0.000000
0
SOLID
8
0
10
-2.347444
20
0.504777
30
0.000000
11
-2.460146
21
0.084167
31
0.000000
12
-2.383671
22
0.517963
32
0.000000
13
-2.618064
23
0.112013
33
0.000000
0
SOLID
8
0
10
-2.460146
20
0.084167
30
0.000000
11
-2.498097
21
-0.349623
31
0.000000
12
-2.618064
22
0.112013
32
0.000000
13
-2.884610
23
-0.349623
33
0.000000
0
SOLID
8
0
10
-2.498097
20
-0.349623
30
0.000000
11
-2.460146
21
-0.783413
31
0.000000
12
-2.884610
22
-0.349623
32
0.000000
13
-3.211583
23
-0.915911
33
0.000000
0
SOLID
8
0
10
-2.460146
20
-0.783413
30
0.000000
11
-2.347444
21
-1.204022
31
0.000000
12
-3.211583
22
-0.915911
32
0.000000
13
-3.652121
23
-1.678886
33
0.000000
0
SOLID
8
0
10
-2.347444
20
-1.204022
30
0.000000
11
-2.163416
21
-1.598671
31
0.000000
12
-3.652121
22
-1.678886
32
0.000000
13
-4.326831
23
-2.847720
33
0.000000
0
SOLID
8
0
10
-2.163416
20
-1.598671
30
0.000000
11
-1.913654
21
-1.955369
31
0.000000
12
-4.326831
22
-2.847720
32
0.000000
13
-2.977116
23
-2.847720
33
0.000000
0
SOLID
8
0
10
-1.913654
20
-1.955369
30
0.000000
11
-1.605746
21
-2.263276
31
0.000000
12
-2.977116
22
-2.847720
32
0.000000
13
-2.096153
23
-2.847720
33
0.000000
0
SOLID
8
0
10
-1.605746
20
-2.263276
30
0.000000
11
-1.249049
21
-2.513038
31
0.000000
12
-2.096153
22
-2.847720
32
0.000000
13
-1.442277
23
-2.847720
33
0.000000
0
SOLID
8
0
10
-1.249049
20
-2.513038
30
0.000000
11
-0.854400
21
-2.697066
31
0.000000
12
-1.442277
22
-2.847720
32
0.000000
13
-0.909233
23
-2.847720
33
0.000000
0
SOLID
8
0
10
-0.854400
20
-2.697066
30
0.000000
11
-0.433790
21
-2.809768
31
0.000000
12
-0.909233
22
-2.847720
32
0.000000
13
-0.440482
23
-2.847720
33
0.000000
0
SOLID
8
0
10
-0.433790
20
-2.809768
30
0.000000
11
0.000000
21
-2.847720
31
0.000000
12
-0.440482
22
-2.847720
32
0.000000
13
0.000000
23
-2.847720
33
0.000000
0
SOLID
8
0
10
0.000000
20
-2.847720
30
0.000000
11
0.433790
21
-2.809768
31
0.000000
12
0.000000
22
-2.847720
32
0.000000
13
0.440482
23
-2.847720
33
0.000000
0
SOLID
8
0
10
0.433790
20
-2.809768
30
0.000000
11
0.854400
21
-2.697066
31
0.000000
12
0.440482
22
-2.847720
32
0.000000
13
0.909233
23
-2.847720
33
0.000000
0
SOLID
8
0
10
0.854400
20
-2.697066
30
0.000000
11
1.249049
21
-2.513038
31
0.000000
12
0.909233
22
-2.847720
32
0.000000
13
1.442277
23
-2.847720
33
0.000000
0
SOLID
8
0
10
1.249049
20
-2.513038
30
0.000000
11
1.605746
21
-2.263276
31
0.000000
12
1.442277
22
-2.847720
32
0.000000
13
2.096153
23
-2.847720
33
0.000000
0
SOLID
8
0
10
1.605746
20
-2.263276
30
0.000000
11
1.913654
21
-1.955369
31
0.000000
12
2.096153
22
-2.847720
32
0.000000
13
2.977116
23
-2.847720
33
0.000000
0
SOLID
8
0
10
1.913654
20
-1.955369
30
0.000000
11
2.163416
21
-1.598671
31
0.000000
12
2.977116
22
-2.847720
32
0.000000
13
4.326831
23
-2.847720
33
0.000000
0
SOLID
8
0
10
2.163416
20
-1.598671
30
0.000000
11
2.347444
21
-1.204022
31
0.000000
12
4.326831
22
-2.847720
32
0.000000
13
3.652121
23
-1.678886
33
0.000000
0
SOLID
8
0
10
2.347444
20
-1.204022
30
0.000000
11
2.460146
21
-0.783413
31
0.000000
12
3.652121
22
-1.678886
32
0.000000
13
3.211583
23
-0.915911
33
0.000000
0
SOLID
8
0
10
2.460146
20
-0.783413
30
0.000000
11
2.498097
21
-0.349623
31
0.000000
12
3.211583
22
-0.915911
32
0.000000
13
2.884610
23
-0.349623
33
0.000000
0
ENDBLK
8
0
0
BLOCK
8
0
2
BCN_OCP
70
0
10
0.000000
20
0.000000
30
0.000000
3
BCN_OCP
1

0
POINT
8
0
10
0.000000
20
0.000000
30
0.000000
0
SOLID
8
0
10
2.498097
20
0.349623
30
0.000000
11
2.460146
21
0.783413
31
0.000000
12
2.884610
22
0.349623
32
0.000000
13
3.211583
23
0.915911
33
0.000000
0
SOLID
8
0
10
2.460146
20
0.783413
30
0.000000
11
2.347444
21
1.204022
31
0.000000
12
3.211583
22
0.915911
32
0.000000
13
3.652121
23
1.678886
33
0.000000
0
SOLID
8
0
10
2.347444
20
1.204022
30
0.000000
11
2.163416
21
1.598671
31
0.000000
12
3.652121
22
1.678886
32
0.000000
13
4.326831
23
2.847720
33
0.000000
0
SOLID
8
0
10
2.163416
20
1.598671
30
0.000000
11
1.913654
21
1.955369
31
0.000000
12
4.326831
22
2.847720
32
0.000000
13
2.977116
23
2.847720
33
0.000000
0
SOLID
8
0
10
1.913654
20
1.955369
30
0.000000
11
1.605746
21
2.263276
31
0.000000
12
2.977116
22
2.847720
32
0.000000
13
2.096153
23
2.847720
33
0.000000
0
SOLID
8
0
10
1.605746
20
2.263276
30
0.000000
11
1.249049
21
2.513038
31
0.000000
12
2.096153
22
2.847720
32
0.000000
13
1.442277
23
2.847720
33
0.000000
0
SOLID
8
0
10
1.249049
20
2.513038
30
0.000000
11
0.854400
21
2.697066
31
0.000000
12
1.442277
22
2.847720
32
0.000000
13
0.909233
23
2.847720
33
0.000000
0
SOLID
8
0
10
0.854400
20
2.697066
30
0.000000
11
0.433790
21
2.809768
31
0.000000
12
0.909233
22
2.847720
32
0.000000
13
0.440482
23
2.847720
33
0.000000
0
SOLID
8
0
10
0.433790
20
2.809768
30
0.000000
11
0.000000
21
2.847720
31
0.000000
12
0.440482
22
2.847720
32
0.000000
13
0.000000
23
2.847720
33
0.000000
0
SOLID
8
0
10
0.000000
20
2.847720
30
0.000000
11
-0.433790
21
2.809768
31
0.000000
12
0.000000
22
2.847720
32
0.000000
13
-0.440482
23
2.847720
33
0.000000
0
SOLID
8
0
10
-0.433790
20
2.809768
30
0.000000
11
-0.854400
21
2.697066
31
0.000000
12
-0.440482
22
2.847720
32
0.000000
13
-0.909233
23
2.847720
33
0.000000
0
SOLID
8
0
10
-0.854400
20
2.697066
30
0.000000
11
-1.249049
21
2.513038
31
0.000000
12
-0.909233
22
2.847720
32
0.000000
13
-1.442277
23
2.847720
33
0.000000
0
SOLID
8
0
10
-1.249049
20
2.513038
30
0.000000
11
-1.605746
21
2.263276
31
0.000000
12
-1.442277
22
2.847720
32
0.000000
13
-2.096153
23
2.847720
33
0.000000
0
SOLID
8
0
10
-1.605746
20
2.263276
30
0.000000
11
-1.913654
21
1.955369
31
0.000000
12
-2.096153
22
2.847720
32
0.000000
13
-2.977116
23
2.847720
33
0.000000
0
SOLID
8
0
10
-1.913654
20
1.955369
30
0.000000
11
-2.163416
21
1.598671
31
0.000000
12
-2.977116
22
2.847720
32
0.000000
13
-4.326831
23
2.847720
33
0.000000
0
SOLID
8
0
10
-2.163416
20
1.598671
30
0.000000
11
-2.347444
21
1.204022
31
0.000000
12
-4.326831
22
2.847720
32
0.000000
13
-3.652121
23
1.678886
33
0.000000
0
SOLID
8
0
10
-2.347444
20
1.204022
30
0.000000
11
-2.460146
21
0.783413
31
0.000000
12
-3.652121
22
1.678886
32
0.000000
13
-3.211583
23
0.915911
33
0.000000
0
SOLID
8
0
10
-2.460146
20
0.783413
30
0.000000
11
-2.498097
21
0.349623
31
0.000000
12
-3.211583
22
0.915911
32
0.000000
13
-2.884610
23
0.349623
33
0.000000
0
SOLID
8
0
10
-2.498097
20
0.349623
30
0.000000
11
-2.460146
21
-0.084167
31
0.000000
12
-2.884610
22
0.349623
32
0.000000
13
-2.618064
23
-0.112013
33
0.000000
0
SOLID
8
0
10
-2.460146
20
-0.084167
30
0.000000
11
-2.347444
21
-0.504777
31
0.000000
12
-2.618064
22
-0.112013
32
0.000000
13
-2.383671
23
-0.517963
33
0.000000
0
SOLID
8
0
10
-2.347444
20
-0.504777
30
0.000000
11
-2.163416
21
-0.899426
31
0.000000
12
-2.383671
22
-0.517963
32
0.000000
13
-2.163416
23
-0.899426
33
0.000000
0
SOLID
8
0
10
-2.163416
20
-0.899426
30
0.000000
11
-1.913654
21
-1.256123
31
0.000000
12
-2.163416
22
-0.899426
32
0.000000
13
-1.943163
23
-1.280885
33
0.000000
0
SOLID
8
0
10
-1.913654
20
-1.256123
30
0.000000
11
-1.605746
21
-1.564031
31
0.000000
12
-1.943163
22
-1.280885
32
0.000000
13
-1.708778
23
-1.686820
33
0.000000
0
SOLID
8
0
10
-1.605746
20
-1.564031
30
0.000000
11
-1.249049
21
-1.813793
31
0.000000
12
-1.708778
22
-1.686820
32
0.000000
13
-1.442249
23
-2.148426
33
0.000000
0
SOLID
8
0
10
-1.249049
20
-1.813793
30
0.000000
11
-0.854400
21
-1.997821
31
0.000000
12
-1.442249
22
-2.148426
32
0.000000
13
-1.115308
23
-2.714661
33
0.000000
0
SOLID
8
0
10
-0.854400
20
-1.997821
30
0.000000
11
-0.433790
21
-2.110523
31
0.000000
12
-1.115308
22
-2.714661
32
0.000000
13
-0.674830
23
-3.477531
33
0.000000
0
SOLID
8
0
10
-0.433790
20
-2.110523
30
0.000000
11
0.000000
21
-2.148475
31
0.000000
12
-0.674830
22
-3.477531
32
0.000000
13
0.000000
23
-4.646280
33
0.000000
0
SOLID
8
0
10
0.000000
20
-2.148475
30
0.000000
11
0.433790
21
-2.110523
31
0.000000
12
0.000000
22
-4.646280
32
0.000000
13
0.674830
23
-3.477531
33
0.000000
0
SOLID
8
0
10
0.433790
20
-2.110523
30
0.000000
11
0.854400
21
-1.997821
31
0.000000
12
0.674830
22
-3.477531
32
0.000000
13
1.115308
23
-2.714661
33
0.000000
0
SOLID
8
0
10
0.854400
20
-1.997821
30
0.000000
11
1.249049
21
-1.813793
31
0.000000
12
1.115308
22
-2.714661
32
0.000000
13
1.442249
23
-2.148426
33
0.000000
0
SOLID
8
0
10
1.249049
20
-1.813793
30
0.000000
11
1.605746
21
-1.564031
31
0.000000
12
1.442249
22
-2.148426
32
0.000000
13
1.708778
23
-1.686820
33
0.000000
0
SOLID
8
0
10
1.605746
20
-1.564031
30
0.000000
11
1.913654
21
-1.256123
31
0.000000
12
1.708778
22
-1.686820
32
0.000000
13
1.943163
23
-1.280885
33
0.000000
0
SOLID
8
0
10
1.913654
20
-1.256123
30
0.000000
11
2.163416
21
-0.899426
31
0.000000
12
1.943163
22
-1.280885
32
0.000000
13
2.163416
23
-0.899426
33
0.000000
0
SOLID
8
0
10
2.163416
20
-0.899426
30
0.000000
11
2.347444
21
-0.504777
31
0.000000
12
2.163416
22
-0.899426
32
0.000000
13
2.383671
23
-0.517963
33
0.000000
0
SOLID
8
0
10
2.347444
20
-0.504777
30
0.000000
11
2.460146
21
-0.084167
31
0.000000
12
2.383671
22
-0.517963
32
0.000000
13
2.618064
23
-0.112013
33
0.000000
0
SOLID
8
0
10
2.460146
20
-0.084167
30
0.000000
11
2.498097
21
0.349623
31
0.000000
12
2.618064
22
-0.112013
32
0.000000
13
2.884610
23
0.349623
33
0.000000
0
ENDBLK
8
0
0
ENDSEC
0
SECTION
2
ENTITIES
0
POLYLINE
8
SHEET-BORDER
66
1
70
1
10
0.000000
20
0.000000
30
0.000000
0
VERTEX
8
SHEET-BORDER
10
85567.715000
20
-2143891.485000
30
0.000000
0
VERTEX
8
SHEET-BORDER
10
86159.715000
20
-2143891.485000
30
0.000000
0
VERTEX
8
SHEET-BORDER
10
86159.715000
20
-2144309.485000
30
0.000000
0
VERTEX
8
SHEET-BORDER
10
85567.715000
20
-2144309.485000
30
0.000000
0
SEQEND
8
SHEET-BORDER
0
LINE
8
BOUNDARY-NEW
10
85675.676675
20
-2144025.313969
30
0.000000
11
85726.243952
21
-2143974.765120
31
0.000000
0
LINE
8
BOUNDARY-NEW
10
85730.989388
20
-2143975.070034
30
0.000000
11
85739.300612
21
-2143985.839966
31
0.000000
0
LINE
8
BOUNDARY-NEW
10
85743.798726
20
-2143991.460534
30
0.000000
11
85763.534940
21
-2144015.247557
31
0.000000
0
LINE
8
BOUNDARY-NEW
10
85763.214213
20
-2144018.773048
30
0.000000
11
85712.035787
21
-2144061.596952
31
0.000000
0
LINE
8
BOUNDARY-NEW
10
85708.351451
20
-2144061.435846
30
0.000000
11
85675.678549
21
-2144028.844154
31
0.000000
0
TEXT
8
PARCEL-TEXT
7
ARIAL
10
85719.722453
20
-2144022.303667
30
0.000000
40
6.140000
1
405
50
0.000000
41
1.000000
72
1
11
85719.722453
21
-2144022.303667
31
0.000000
0
LINE
8
BOUNDARY-NEW
10
85635.679348
20
-2144065.498195
30
0.000000
11
85672.147974
21
-2144028.850669
31
0.000000
0
LINE
8
BOUNDARY-NEW
10
85675.678549
20
-2144028.844154
30
0.000000
11
85708.351451
21
-2144061.435846
31
0.000000
0
LINE
8
BOUNDARY-NEW
10
85711.889013
20
-2144064.963689
30
0.000000
11
85721.640987
21
-2144074.686311
31
0.000000
0
LINE
8
BOUNDARY-NEW
10
85721.645592
20
-2144078.218295
30
0.000000
11
85684.314408
21
-2144115.631705
31
0.000000
0
LINE
8
BOUNDARY-NEW
10
85680.782574
20
-2144115.634721
30
0.000000
11
85635.687130
21
-2144070.594037
31
0.000000
0
TEXT
8
PARCEL-TEXT
7
ARIAL
10
85678.258973
20
-2144075.313123
30
0.000000
40
6.140000
1
404
50
0.000000
41
1.000000
72
1
11
85678.258973
21
-2144075.313123
31
0.000000
0
LINE
8
BOUNDARY-NEW
10
85684.314408
20
-2144115.631705
30
0.000000
11
85721.645592
21
-2144078.218295
31
0.000000
0
LINE
8
BOUNDARY-NEW
10
85725.305074
20
-2144078.077482
30
0.000000
11
85772.504926
21
-2144118.612518
31
0.000000
0
LINE
8
BOUNDARY-NEW
10
85772.634640
20
-2144122.007345
30
0.000000
11
85731.705360
21
-2144162.982655
31
0.000000
0
LINE
8
BOUNDARY-NEW
10
85728.172902
20
-2144162.984393
30
0.000000
11
85684.317098
21
-2144119.165607
31
0.000000
0
TEXT
8
PARCEL-TEXT
7
ARIAL
10
85727.920411
20
-2144123.098043
30
0.000000
40
6.140000
1
403
50
0.000000
41
1.000000
72
1
11
85727.920411
21
-2144123.098043
31
0.000000
0
LINE
8
BOUNDARY-NEW
10
85712.035787
20
-2144061.596952
30
0.000000
11
85763.214213
21
-2144018.773048
31
0.000000
0
LINE
8
BOUNDARY-NEW
10
85766.725375
20
-2144019.092182
30
0.000000
11
85807.400821
21
-2144068.099842
31
0.000000
0
LINE
8
BOUNDARY-NEW
10
85812.101420
20
-2144073.552011
30
0.000000
11
85814.623681
21
-2144076.368983
31
0.000000
0
LINE
8
BOUNDARY-NEW
10
85814.526175
20
-2144079.998877
30
0.000000
11
85776.163825
21
-2144118.471123
31
0.000000
0
LINE
8
BOUNDARY-NEW
10
85772.504926
20
-2144118.612518
30
0.000000
11
85725.305074
21
-2144078.077482
31
0.000000
0
LINE
8
BOUNDARY-NEW
10
85721.640987
20
-2144074.686311
30
0.000000
11
85711.889013
21
-2144064.963689
31
0.000000
0
TEXT
8
PARCEL-TEXT
7
ARIAL
10
85764.974358
20
-2144072.306751
30
0.000000
40
6.140000
1
Rem./
50
0.000000
41
1.000000
72
1
11
85764.974358
21
-2144072.306751
31
0.000000
0
LINE
8
BOUNDARY-EXIST
10
85766.734295
20
-2144019.084743
30
0.000000
11
85814.685705
21
-2144076.315257
31
0.000000
0
LINE
8
BOUNDARY-EXIST
10
85817.894295
20
-2144080.144743
30
0.000000
11
85836.841418
21
-2144102.758335
31
0.000000
0
LINE
8
BOUNDARY-EXIST
10
85814.526175
20
-2144079.998877
30
0.000000
11
85776.163825
21
-2144118.471123
31
0.000000
0
LINE
8
BOUNDARY-EXIST
10
85739.300612
20
-2143985.839966
30
0.000000
11
85730.989388
21
-2143975.070034
31
0.000000
0
LINE
8
BOUNDARY-EXIST
10
85726.590612
20
-2143969.369966
30
0.000000
11
85714.127411
21
-2143953.219777
31
0.000000
0
LINE
8
BOUNDARY-EXIST
10
85728.172735
20
-2144162.984560
30
0.000000
11
85635.686900
21
-2144070.594269
31
0.000000
0
LINE
8
BOUNDARY-EXIST
10
85630.593100
20
-2144065.505731
30
0.000000
11
85610.500892
21
-2144045.434280
31
0.000000
0
LINE
8
BOUNDARY-EXIST
10
85635.686900
20
-2144070.594269
30
0.000000
11
85728.172735
21
-2144162.984560
31
0.000000
0
LINE
8
BOUNDARY-EXIST
10
85731.707265
20
-2144166.515440
30
0.000000
11
85752.579108
21
-2144187.365720
31
0.000000
0
TEXT
8
ROAD-TEXT
7
ARIAL
10
85775.840308
20
-2144000.368533
30
0.000000
40
4.100000
1
Main Road
50
-50.041557
41
1.200000
72
0
0
TEXT
8
ROAD-TEXT
7
ARIAL
10
85632.608227
20
-2144133.669793
30
0.000000
40
4.100000
1
Klein Road 25.19 m
50
-44.970390
41
1.200000
72
0
0
TEXT
8
PARCEL-TEXT
7
ARIAL
10
85662.000000
20
-2144004.200000
30
0.000000
40
4.100000
1
86
50
0.000000
41
1.000000
72
1
11
85662.000000
21
-2144004.200000
31
0.000000
0
TEXT
8
PARCEL-TEXT
7
ARIAL
10
85796.200000
20
-2144138.100000
30
0.000000
40
4.100000
1
88
50
0.000000
41
1.000000
72
1
11
85796.200000
21
-2144138.100000
31
0.000000
0
INSERT
8
BEACONS
2
BCN_RM
10
85728.790000
20
-2143972.220000
30
0.000000
41
1.000000
42
1.000000
43
1.000000
50
0.000000
0
TEXT
8
BEACON-TEXT
7
ARIAL
10
85733.390000
20
-2143974.270000
30
0.000000
40
4.100000
1
86B
50
0.000000
41
1.000000
72
0
0
INSERT
8
BEACONS
2
BCN_RM
10
85741.500000
20
-2143988.690000
30
0.000000
41
1.000000
42
1.000000
43
1.000000
50
0.000000
0
TEXT
8
BEACON-TEXT
7
ARIAL
10
85746.100000
20
-2143990.740000
30
0.000000
40
4.100000
1
87B
50
0.000000
41
1.000000
72
0
0
INSERT
8
BEACONS
2
BCN_RM
10
85764.700000
20
-2144004.380000
30
0.000000
41
1.000000
42
1.000000
43
1.000000
50
0.000000
0
TEXT
8
BEACON-TEXT
7
ARIAL
10
85764.700000
20
-2143998.980000
30
0.000000
40
4.100000
1
CHK
50
0.000000
41
1.000000
72
1
11
85764.700000
21
-2143998.980000
31
0.000000
0
INSERT
8
BEACONS
2
BCN_PLACED
10
85765.130000
20
-2144017.170000
30
0.000000
41
1.000000
42
1.000000
43
1.000000
50
0.000000
0
TEXT
8
BEACON-TEXT
7
ARIAL
10
85761.632000
20
-2144019.220000
30
0.000000
40
4.100000
1
SD1
50
0.000000
41
1.000000
72
2
11
85761.632000
21
-2144019.220000
31
0.000000
0
INSERT
8
BEACONS
2
BCN_PLACED
10
85673.910000
20
-2144027.080000
30
0.000000
41
1.000000
42
1.000000
43
1.000000
50
0.000000
0
TEXT
8
BEACON-TEXT
7
ARIAL
10
85672.161000
20
-2144023.931800
30
0.000000
40
4.100000
1
SD4
50
0.000000
41
1.000000
72
2
11
85672.161000
21
-2144023.931800
31
0.000000
0
INSERT
8
BEACONS
2
BCN_RM
10
85778.600000
20
-2144038.340000
30
0.000000
41
1.000000
42
1.000000
43
1.000000
50
0.000000
0
TEXT
8
BEACON-TEXT
7
ARIAL
10
85774.000000
20
-2144040.390000
30
0.000000
40
4.100000
1
BASE
50
0.000000
41
1.000000
72
2
11
85774.000000
21
-2144040.390000
31
0.000000
0
INSERT
8
BEACONS
2
BCN_PLACED
10
85710.120000
20
-2144063.200000
30
0.000000
41
1.000000
42
1.000000
43
1.000000
50
0.000000
0
TEXT
8
BEACON-TEXT
7
ARIAL
10
85706.622000
20
-2144065.250000
30
0.000000
40
4.100000
1
SD5
50
0.000000
41
1.000000
72
2
11
85706.622000
21
-2144065.250000
31
0.000000
0
INSERT
8
BEACONS
2
BCN_RM
10
85633.140000
20
-2144068.050000
30
0.000000
41
1.000000
42
1.000000
43
1.000000
50
0.000000
0
TEXT
8
BEACON-TEXT
7
ARIAL
10
85628.540000
20
-2144070.100000
30
0.000000
40
4.100000
1
86C
50
0.000000
41
1.000000
72
2
11
85628.540000
21
-2144070.100000
31
0.000000
0
INSERT
8
BEACONS
2
BCN_RM
10
85809.700000
20
-2144070.870000
30
0.000000
41
1.000000
42
1.000000
43
1.000000
50
0.000000
0
TEXT
8
BEACON-TEXT
7
ARIAL
10
85814.300000
20
-2144072.920000
30
0.000000
40
4.100000
1
87A
50
0.000000
41
1.000000
72
0
0
INSERT
8
BEACONS
2
BCN_PLACED
10
85723.410000
20
-2144076.450000
30
0.000000
41
1.000000
42
1.000000
43
1.000000
50
0.000000
0
TEXT
8
BEACON-TEXT
7
ARIAL
10
85726.908000
20
-2144078.500000
30
0.000000
40
4.100000
1
SD6
50
0.000000
41
1.000000
72
0
0
INSERT
8
BEACONS
2
BCN_PLACED
10
85816.290000
20
-2144078.230000
30
0.000000
41
1.000000
42
1.000000
43
1.000000
50
0.000000
0
TEXT
8
BEACON-TEXT
7
ARIAL
10
85819.788000
20
-2144080.280000
30
0.000000
40
4.100000
1
87CR
50
0.000000
41
1.000000
72
0
0
INSERT
8
BEACONS
2
BCN_RM
10
85623.810000
20
-2144100.660000
30
0.000000
41
1.000000
42
1.000000
43
1.000000
50
0.000000
0
TEXT
8
BEACON-TEXT
7
ARIAL
10
85619.210000
20
-2144102.710000
30
0.000000
40
4.100000
1
RM16
50
0.000000
41
1.000000
72
2
11
85619.210000
21
-2144102.710000
31
0.000000
0
INSERT
8
BEACONS
2
BCN_PLACED
10
85682.550000
20
-2144117.400000
30
0.000000
41
1.000000
42
1.000000
43
1.000000
50
0.000000
0
TEXT
8
BEACON-TEXT
7
ARIAL
10
85686.048000
20
-2144119.450000
30
0.000000
40
4.100000
1
SD3
50
0.000000
41
1.000000
72
0
0
INSERT
8
BEACONS
2
BCN_PLACED
10
85774.400000
20
-2144120.240000
30
0.000000
41
1.000000
42
1.000000
43
1.000000
50
0.000000
0
TEXT
8
BEACON-TEXT
7
ARIAL
10
85776.149000
20
-2144127.488200
30
0.000000
40
4.100000
1
SD2
50
0.000000
41
1.000000
72
0
0
INSERT
8
BEACONS
2
BCN_RM
10
85643.500000
20
-2144120.410000
30
0.000000
41
1.000000
42
1.000000
43
1.000000
50
0.000000
0
TEXT
8
BEACON-TEXT
7
ARIAL
10
85643.500000
20
-2144129.510000
30
0.000000
40
4.100000
1
RM15
50
0.000000
41
1.000000
72
1
11
85643.500000
21
-2144129.510000
31
0.000000
0
INSERT
8
BEACONS
2
BCN_PLACED
10
85729.940000
20
-2144164.750000
30
0.000000
41
1.000000
42
1.000000
43
1.000000
50
0.000000
0
TEXT
8
BEACON-TEXT
7
ARIAL
10
85728.191000
20
-2144171.998200
30
0.000000
40
4.100000
1
87DR
50
0.000000
41
1.000000
72
2
11
85728.191000
21
-2144171.998200
31
0.000000
0
INSERT
8
BEACONS
2
BCN_RM
10
85828.080000
20
-2144262.680000
30
0.000000
41
1.000000
42
1.000000
43
1.000000
50
0.000000
0
TEXT
8
BEACON-TEXT
7
ARIAL
10
85828.080000
20
-2144257.280000
30
0.000000
40
4.100000
1
88X2
50
0.000000
41
1.000000
72
1
11
85828.080000
21
-2144257.280000
31
0.000000
0
LINE
8
GRID
10
85591.992000
20
-2144200.000000
30
0.000000
11
85608.008000
21
-2144200.000000
31
0.000000
0
LINE
8
GRID
10
85600.000000
20
-2144208.008000
30
0.000000
11
85600.000000
21
-2144191.992000
31
0.000000
0
TEXT
8
GRID-TEXT
7
ARIAL
10
85608.900000
20
-2144202.120000
30
0.000000
40
4.100000
1
X = +2144200
50
0.000000
41
1.000000
72
0
0
TEXT
8
GRID-TEXT
7
ARIAL
10
85597.960000
20
-2144210.760000
30
0.000000
40
4.100000
1
Y = -85600
50
-90.000000
41
1.000000
72
0
0
LINE
8
GRID
10
85591.992000
20
-2144000.000000
30
0.000000
11
85608.008000
21
-2144000.000000
31
0.000000
0
LINE
8
GRID
10
85600.000000
20
-2144008.008000
30
0.000000
11
85600.000000
21
-2143991.992000
31
0.000000
0
TEXT
8
GRID-TEXT
7
ARIAL
10
85608.900000
20
-2144002.120000
30
0.000000
40
4.100000
1
X = +2144000
50
0.000000
41
1.000000
72
0
0
TEXT
8
GRID-TEXT
7
ARIAL
10
85597.960000
20
-2144010.760000
30
0.000000
40
4.100000
1
Y = -85600
50
-90.000000
41
1.000000
72
0
0
LINE
8
GRID
10
85691.992000
20
-2144200.000000
30
0.000000
11
85708.008000
21
-2144200.000000
31
0.000000
0
LINE
8
GRID
10
85700.000000
20
-2144208.008000
30
0.000000
11
85700.000000
21
-2144191.992000
31
0.000000
0
TEXT
8
GRID-TEXT
7
ARIAL
10
85708.900000
20
-2144202.120000
30
0.000000
40
4.100000
1
X = +2144200
50
0.000000
41
1.000000
72
0
0
TEXT
8
GRID-TEXT
7
ARIAL
10
85697.960000
20
-2144210.760000
30
0.000000
40
4.100000
1
Y = -85700
50
-90.000000
41
1.000000
72
0
0
LINE
8
GRID
10
85791.992000
20
-2144200.000000
30
0.000000
11
85808.008000
21
-2144200.000000
31
0.000000
0
LINE
8
GRID
10
85800.000000
20
-2144208.008000
30
0.000000
11
85800.000000
21
-2144191.992000
31
0.000000
0
TEXT
8
GRID-TEXT
7
ARIAL
10
85808.900000
20
-2144202.120000
30
0.000000
40
4.100000
1
X = +2144200
50
0.000000
41
1.000000
72
0
0
TEXT
8
GRID-TEXT
7
ARIAL
10
85797.960000
20
-2144210.760000
30
0.000000
40
4.100000
1
Y = -85800
50
-90.000000
41
1.000000
72
0
0
TEXT
8
TITLE
7
ARIAL-BOLD
10
85918.575000
20
-2143918.885000
30
0.000000
40
9.875000
1
Survey of
50
0.000000
41
1.000000
72
1
11
85918.575000
21
-2143918.885000
31
0.000000
0
TEXT
8
TITLE
7
ARIAL-BOLD
10
85918.575000
20
-2143943.085000
30
0.000000
40
7.900000
1
Stands 403-405 Brackenhurst Township
50
0.000000
41
1.000000
72
1
11
85918.575000
21
-2143943.085000
31
0.000000
0
TEXT
8
TITLE
7
ARIAL-BOLD
10
85918.575000
20
-2143966.885000
30
0.000000
40
7.900000
1
of Stand 87 Brackenhurst Township
50
0.000000
41
1.000000
72
1
11
85918.575000
21
-2143966.885000
31
0.000000
0
TEXT
8
TITLE
7
ARIAL-BOLD
10
85918.575000
20
-2143990.885000
30
0.000000
40
7.900000
1
Gwelo District
50
0.000000
41
1.000000
72
1
11
85918.575000
21
-2143990.885000
31
0.000000
0
TEXT
8
TITLE
7
ARIAL
10
85918.575000
20
-2144010.685000
30
0.000000
40
6.060000
1
Scale 1:2000
50
0.000000
41
1.000000
72
1
11
85918.575000
21
-2144010.685000
31
0.000000
0
POLYLINE
8
NORTH-ARROW
66
1
70
0
10
0.000000
20
0.000000
30
0.000000
0
VERTEX
8
NORTH-ARROW
10
86115.875000
20
-2143941.805000
30
0.000000
0
VERTEX
8
NORTH-ARROW
10
86118.495000
20
-2143904.605000
30
0.000000
0
VERTEX
8
NORTH-ARROW
10
86121.115000
20
-2143941.805000
30
0.000000
0
SEQEND
8
NORTH-ARROW
0
POLYLINE
8
NORTH-ARROW
66
1
70
0
10
0.000000
20
0.000000
30
0.000000
0
VERTEX
8
NORTH-ARROW
10
86121.115000
20
-2143941.805000
30
0.000000
0
VERTEX
8
NORTH-ARROW
10
86118.495000
20
-2144021.205000
30
0.000000
0
VERTEX
8
NORTH-ARROW
10
86115.875000
20
-2143941.805000
30
0.000000
0
SEQEND
8
NORTH-ARROW
0
POLYLINE
8
NORTH-ARROW
66
1
70
0
10
0.000000
20
0.000000
30
0.000000
0
VERTEX
8
NORTH-ARROW
10
86118.495000
20
-2143939.185000
30
0.000000
0
VERTEX
8
NORTH-ARROW
10
86134.495000
20
-2143941.805000
30
0.000000
0
VERTEX
8
NORTH-ARROW
10
86118.495000
20
-2143944.425000
30
0.000000
0
SEQEND
8
NORTH-ARROW
0
POLYLINE
8
NORTH-ARROW
66
1
70
0
10
0.000000
20
0.000000
30
0.000000
0
VERTEX
8
NORTH-ARROW
10
86118.495000
20
-2143944.425000
30
0.000000
0
VERTEX
8
NORTH-ARROW
10
86102.495000
20
-2143941.805000
30
0.000000
0
VERTEX
8
NORTH-ARROW
10
86118.495000
20
-2143939.185000
30
0.000000
0
SEQEND
8
NORTH-ARROW
0
POLYLINE
8
NORTH-ARROW
66
1
70
0
10
0.000000
20
0.000000
30
0.000000
0
VERTEX
8
NORTH-ARROW
10
86116.642380
20
-2143939.952380
30
0.000000
0
VERTEX
8
NORTH-ARROW
10
86125.566068
20
-2143934.733932
30
0.000000
0
VERTEX
8
NORTH-ARROW
10
86120.347620
20
-2143943.657620
30
0.000000
0
SEQEND
8
NORTH-ARROW
0
POLYLINE
8
NORTH-ARROW
66
1
70
0
10
0.000000
20
0.000000
30
0.000000
0
VERTEX
8
NORTH-ARROW
10
86116.642380
20
-2143943.657620
30
0.000000
0
VERTEX
8
NORTH-ARROW
10
86111.423932
20
-2143934.733932
30
0.000000
0
VERTEX
8
NORTH-ARROW
10
86120.347620
20
-2143939.952380
30
0.000000
0
SEQEND
8
NORTH-ARROW
0
POLYLINE
8
NORTH-ARROW
66
1
70
0
10
0.000000
20
0.000000
30
0.000000
0
VERTEX
8
NORTH-ARROW
10
86120.347620
20
-2143943.657620
30
0.000000
0
VERTEX
8
NORTH-ARROW
10
86111.423932
20
-2143948.876068
30
0.000000
0
VERTEX
8
NORTH-ARROW
10
86116.642380
20
-2143939.952380
30
0.000000
0
SEQEND
8
NORTH-ARROW
0
POLYLINE
8
NORTH-ARROW
66
1
70
0
10
0.000000
20
0.000000
30
0.000000
0
VERTEX
8
NORTH-ARROW
10
86120.347620
20
-2143939.952380
30
0.000000
0
VERTEX
8
NORTH-ARROW
10
86125.566068
20
-2143948.876068
30
0.000000
0
VERTEX
8
NORTH-ARROW
10
86116.642380
20
-2143943.657620
30
0.000000
0
SEQEND
8
NORTH-ARROW
0
TEXT
8
NORTH-ARROW
7
ARIAL
10
86110.495000
20
-2143907.585000
30
0.000000
40
4.240000
1
T
50
0.000000
41
1.000000
72
0
0
TEXT
8
NORTH-ARROW
7
ARIAL
10
86120.895000
20
-2143907.585000
30
0.000000
40
4.240000
1
N
50
0.000000
41
1.000000
72
0
0
POLYLINE
8
APPROVAL
66
1
70
1
10
0.000000
20
0.000000
30
0.000000
0
VERTEX
8
APPROVAL
10
86022.975000
20
-2144038.145000
30
0.000000
0
VERTEX
8
APPROVAL
10
86150.495000
20
-2144038.145000
30
0.000000
0
VERTEX
8
APPROVAL
10
86150.495000
20
-2144105.205000
30
0.000000
0
VERTEX
8
APPROVAL
10
86022.975000
20
-2144105.205000
30
0.000000
0
SEQEND
8
APPROVAL
0
TEXT
8
APPROVAL
7
SERIF
10
86086.735000
20
-2144048.005000
30
0.000000
40
6.120000
1
Approved
50
0.000000
41
1.000000
72
1
11
86086.735000
21
-2144048.005000
31
0.000000
0
LINE
8
APPROVAL
6
PLANDOT
10
86042.915000
20
-2144072.045000
30
0.000000
11
86129.515000
21
-2144072.045000
31
0.000000
0
TEXT
8
APPROVAL
7
SERIF
10
86086.735000
20
-2144081.685000
30
0.000000
40
6.120000
1
for Surveyor General
50
0.000000
41
1.000000
72
1
11
86086.735000
21
-2144081.685000
31
0.000000
0
TEXT
8
APPROVAL
7
SERIF
10
86044.315000
20
-2144099.185000
30
0.000000
40
6.120000
1
Date:
50
0.000000
41
1.000000
72
0
0
LINE
8
APPROVAL
6
PLANDOT
10
86066.115000
20
-2144098.705000
30
0.000000
11
86121.715000
21
-2144098.705000
31
0.000000
0
TEXT
8
TITLE
7
ARIAL-BOLD
10
85577.715000
20
-2144252.645000
30
0.000000
40
5.980000
1
Surveyed in July 2026 by me,
50
0.000000
41
1.000000
72
0
0
TEXT
8
TITLE
7
ARIAL-BOLD
10
85606.595000
20
-2144288.645000
30
0.000000
40
5.980000
1
Land Surveyor
50
0.000000
41
1.000000
72
0
0
POLYLINE
8
INSET
66
1
70
1
10
0.000000
20
0.000000
30
0.000000
0
VERTEX
8
INSET
10
85892.515000
20
-2144109.865000
30
0.000000
0
VERTEX
8
INSET
10
86150.655000
20
-2144109.865000
30
0.000000
0
VERTEX
8
INSET
10
86150.655000
20
-2144282.745000
30
0.000000
0
VERTEX
8
INSET
10
85892.515000
20
-2144282.745000
30
0.000000
0
SEQEND
8
INSET
0
TEXT
8
INSET
7
ARIAL-BOLD
10
85902.515000
20
-2144121.865000
30
0.000000
40
6.000000
1
Inset (not to scale)
50
0.000000
41
1.000000
72
0
0
SOLID
8
NORTH-ARROW
10
86128.655000
20
-2144124.265000
30
0.000000
11
86125.955000
21
-2144141.465000
31
0.000000
12
86131.355000
22
-2144141.465000
32
0.000000
13
86131.355000
23
-2144141.465000
33
0.000000
0
TEXT
8
NORTH-ARROW
7
ARIAL-BOLD
10
86128.655000
20
-2144120.665000
30
0.000000
40
4.100000
1
N
50
0.000000
41
1.000000
72
1
11
86128.655000
21
-2144120.665000
31
0.000000
0
SOLID
8
INSET
10
86050.940066
20
-2144124.192934
30
0.000000
11
86050.882138
21
-2144123.752924
31
0.000000
12
86051.203106
22
-2144124.192934
32
0.000000
13
86050.940082
23
-2144123.737398
33
0.000000
0
SOLID
8
INSET
10
86050.882138
20
-2144123.752924
30
0.000000
11
86050.712301
21
-2144123.342901
31
0.000000
12
86050.940082
22
-2144123.737398
32
0.000000
13
86050.712301
23
-2144123.342901
33
0.000000
0
SOLID
8
INSET
10
86050.712301
20
-2144123.342901
30
0.000000
11
86050.442128
21
-2144122.990805
31
0.000000
12
86050.712301
22
-2144123.342901
32
0.000000
13
86050.484524
23
-2144122.948410
33
0.000000
0
SOLID
8
INSET
10
86050.442128
20
-2144122.990805
30
0.000000
11
86050.090033
21
-2144122.720633
31
0.000000
12
86050.484524
22
-2144122.948410
32
0.000000
13
86050.221515
23
-2144122.492901
33
0.000000
0
SOLID
8
INSET
10
86050.090033
20
-2144122.720633
30
0.000000
11
86049.680010
21
-2144122.550796
31
0.000000
12
86050.221515
22
-2144122.492901
32
0.000000
13
86049.862246
23
-2144121.870678
33
0.000000
0
SOLID
8
INSET
10
86049.680010
20
-2144122.550796
30
0.000000
11
86049.240000
21
-2144122.492868
31
0.000000
12
86049.862246
22
-2144121.870678
32
0.000000
13
86049.240000
23
-2144120.793000
33
0.000000
0
SOLID
8
INSET
10
86049.240000
20
-2144122.492868
30
0.000000
11
86048.799990
21
-2144122.550796
31
0.000000
12
86049.240000
22
-2144120.793000
32
0.000000
13
86048.617754
23
-2144121.870678
33
0.000000
0
SOLID
8
INSET
10
86048.799990
20
-2144122.550796
30
0.000000
11
86048.389967
21
-2144122.720633
31
0.000000
12
86048.617754
22
-2144121.870678
32
0.000000
13
86048.258485
23
-2144122.492901
33
0.000000
0
SOLID
8
INSET
10
86048.389967
20
-2144122.720633
30
0.000000
11
86048.037872
21
-2144122.990805
31
0.000000
12
86048.258485
22
-2144122.492901
32
0.000000
13
86047.995476
23
-2144122.948410
33
0.000000
0
SOLID
8
INSET
10
86048.037872
20
-2144122.990805
30
0.000000
11
86047.767699
21
-2144123.342901
31
0.000000
12
86047.995476
22
-2144122.948410
32
0.000000
13
86047.767699
23
-2144123.342901
33
0.000000
0
SOLID
8
INSET
10
86047.767699
20
-2144123.342901
30
0.000000
11
86047.597862
21
-2144123.752924
31
0.000000
12
86047.767699
22
-2144123.342901
32
0.000000
13
86047.539918
23
-2144123.737398
33
0.000000
0
SOLID
8
INSET
10
86047.597862
20
-2144123.752924
30
0.000000
11
86047.539934
21
-2144124.192934
31
0.000000
12
86047.539918
22
-2144123.737398
32
0.000000
13
86047.276894
23
-2144124.192934
33
0.000000
0
SOLID
8
INSET
10
86047.539934
20
-2144124.192934
30
0.000000
11
86047.597862
21
-2144124.632943
31
0.000000
12
86047.276894
22
-2144124.192934
32
0.000000
13
86046.917588
23
-2144124.815222
33
0.000000
0
SOLID
8
INSET
10
86047.597862
20
-2144124.632943
30
0.000000
11
86047.767699
21
-2144125.042967
31
0.000000
12
86046.917588
22
-2144124.815222
32
0.000000
13
86046.295399
23
-2144125.893000
33
0.000000
0
SOLID
8
INSET
10
86047.767699
20
-2144125.042967
30
0.000000
11
86048.037872
21
-2144125.395062
31
0.000000
12
86046.295399
22
-2144125.893000
32
0.000000
13
86047.539934
23
-2144125.893000
33
0.000000
0
SOLID
8
INSET
10
86048.037872
20
-2144125.395062
30
0.000000
11
86048.389967
21
-2144125.665234
31
0.000000
12
86047.539934
22
-2144125.893000
32
0.000000
13
86048.258466
23
-2144125.893000
33
0.000000
0
SOLID
8
INSET
10
86048.389967
20
-2144125.665234
30
0.000000
11
86048.799990
21
-2144125.835072
31
0.000000
12
86048.258466
22
-2144125.893000
32
0.000000
13
86048.784469
23
-2144125.893000
33
0.000000
0
SOLID
8
INSET
10
86048.799990
20
-2144125.835072
30
0.000000
11
86049.240000
21
-2144125.893000
31
0.000000
12
86048.784469
22
-2144125.893000
32
0.000000
13
86049.240000
23
-2144125.893000
33
0.000000
0
SOLID
8
INSET
10
86049.240000
20
-2144125.893000
30
0.000000
11
86049.680010
21
-2144125.835072
31
0.000000
12
86049.240000
22
-2144125.893000
32
0.000000
13
86049.695531
23
-2144125.893000
33
0.000000
0
SOLID
8
INSET
10
86049.680010
20
-2144125.835072
30
0.000000
11
86050.090033
21
-2144125.665234
31
0.000000
12
86049.695531
22
-2144125.893000
32
0.000000
13
86050.221534
23
-2144125.893000
33
0.000000
0
SOLID
8
INSET
10
86050.090033
20
-2144125.665234
30
0.000000
11
86050.442128
21
-2144125.395062
31
0.000000
12
86050.221534
22
-2144125.893000
32
0.000000
13
86050.940066
23
-2144125.893000
33
0.000000
0
SOLID
8
INSET
10
86050.442128
20
-2144125.395062
30
0.000000
11
86050.712301
21
-2144125.042967
31
0.000000
12
86050.940066
22
-2144125.893000
32
0.000000
13
86052.184601
23
-2144125.893000
33
0.000000
0
SOLID
8
INSET
10
86050.712301
20
-2144125.042967
30
0.000000
11
86050.882138
21
-2144124.632943
31
0.000000
12
86052.184601
22
-2144125.893000
32
0.000000
13
86051.562412
23
-2144124.815222
33
0.000000
0
SOLID
8
INSET
10
86050.882138
20
-2144124.632943
30
0.000000
11
86050.940066
21
-2144124.192934
31
0.000000
12
86051.562412
22
-2144124.815222
32
0.000000
13
86051.203106
23
-2144124.192934
33
0.000000
0
TEXT
8
INSET
7
ARIAL
10
86049.240000
20
-2144120.355000
30
0.000000
40
4.100000
1
170/T
50
0.000000
41
1.000000
72
1
11
86049.240000
21
-2144120.355000
31
0.000000
0
SOLID
8
INSET
10
85946.070066
20
-2144247.542934
30
0.000000
11
85946.012138
21
-2144247.102924
31
0.000000
12
85946.333106
22
-2144247.542934
32
0.000000
13
85946.070082
23
-2144247.087398
33
0.000000
0
SOLID
8
INSET
10
85946.012138
20
-2144247.102924
30
0.000000
11
85945.842301
21
-2144246.692901
31
0.000000
12
85946.070082
22
-2144247.087398
32
0.000000
13
85945.842301
23
-2144246.692901
33
0.000000
0
SOLID
8
INSET
10
85945.842301
20
-2144246.692901
30
0.000000
11
85945.572128
21
-2144246.340805
31
0.000000
12
85945.842301
22
-2144246.692901
32
0.000000
13
85945.614524
23
-2144246.298410
33
0.000000
0
SOLID
8
INSET
10
85945.572128
20
-2144246.340805
30
0.000000
11
85945.220033
21
-2144246.070633
31
0.000000
12
85945.614524
22
-2144246.298410
32
0.000000
13
85945.351515
23
-2144245.842901
33
0.000000
0
SOLID
8
INSET
10
85945.220033
20
-2144246.070633
30
0.000000
11
85944.810010
21
-2144245.900796
31
0.000000
12
85945.351515
22
-2144245.842901
32
0.000000
13
85944.992246
23
-2144245.220678
33
0.000000
0
SOLID
8
INSET
10
85944.810010
20
-2144245.900796
30
0.000000
11
85944.370000
21
-2144245.842868
31
0.000000
12
85944.992246
22
-2144245.220678
32
0.000000
13
85944.370000
23
-2144244.143000
33
0.000000
0
SOLID
8
INSET
10
85944.370000
20
-2144245.842868
30
0.000000
11
85943.929990
21
-2144245.900796
31
0.000000
12
85944.370000
22
-2144244.143000
32
0.000000
13
85943.747754
23
-2144245.220678
33
0.000000
0
SOLID
8
INSET
10
85943.929990
20
-2144245.900796
30
0.000000
11
85943.519967
21
-2144246.070633
31
0.000000
12
85943.747754
22
-2144245.220678
32
0.000000
13
85943.388485
23
-2144245.842901
33
0.000000
0
SOLID
8
INSET
10
85943.519967
20
-2144246.070633
30
0.000000
11
85943.167872
21
-2144246.340805
31
0.000000
12
85943.388485
22
-2144245.842901
32
0.000000
13
85943.125476
23
-2144246.298410
33
0.000000
0
SOLID
8
INSET
10
85943.167872
20
-2144246.340805
30
0.000000
11
85942.897699
21
-2144246.692901
31
0.000000
12
85943.125476
22
-2144246.298410
32
0.000000
13
85942.897699
23
-2144246.692901
33
0.000000
0
SOLID
8
INSET
10
85942.897699
20
-2144246.692901
30
0.000000
11
85942.727862
21
-2144247.102924
31
0.000000
12
85942.897699
22
-2144246.692901
32
0.000000
13
85942.669918
23
-2144247.087398
33
0.000000
0
SOLID
8
INSET
10
85942.727862
20
-2144247.102924
30
0.000000
11
85942.669934
21
-2144247.542934
31
0.000000
12
85942.669918
22
-2144247.087398
32
0.000000
13
85942.406894
23
-2144247.542934
33
0.000000
0
SOLID
8
INSET
10
85942.669934
20
-2144247.542934
30
0.000000
11
85942.727862
21
-2144247.982943
31
0.000000
12
85942.406894
22
-2144247.542934
32
0.000000
13
85942.047588
23
-2144248.165222
33
0.000000
0
SOLID
8
INSET
10
85942.727862
20
-2144247.982943
30
0.000000
11
85942.897699
21
-2144248.392967
31
0.000000
12
85942.047588
22
-2144248.165222
32
0.000000
13
85941.425399
23
-2144249.243000
33
0.000000
0
SOLID
8
INSET
10
85942.897699
20
-2144248.392967
30
0.000000
11
85943.167872
21
-2144248.745062
31
0.000000
12
85941.425399
22
-2144249.243000
32
0.000000
13
85942.669934
23
-2144249.243000
33
0.000000
0
SOLID
8
INSET
10
85943.167872
20
-2144248.745062
30
0.000000
11
85943.519967
21
-2144249.015234
31
0.000000
12
85942.669934
22
-2144249.243000
32
0.000000
13
85943.388466
23
-2144249.243000
33
0.000000
0
SOLID
8
INSET
10
85943.519967
20
-2144249.015234
30
0.000000
11
85943.929990
21
-2144249.185072
31
0.000000
12
85943.388466
22
-2144249.243000
32
0.000000
13
85943.914469
23
-2144249.243000
33
0.000000
0
SOLID
8
INSET
10
85943.929990
20
-2144249.185072
30
0.000000
11
85944.370000
21
-2144249.243000
31
0.000000
12
85943.914469
22
-2144249.243000
32
0.000000
13
85944.370000
23
-2144249.243000
33
0.000000
0
SOLID
8
INSET
10
85944.370000
20
-2144249.243000
30
0.000000
11
85944.810010
21
-2144249.185072
31
0.000000
12
85944.370000
22
-2144249.243000
32
0.000000
13
85944.825531
23
-2144249.243000
33
0.000000
0
SOLID
8
INSET
10
85944.810010
20
-2144249.185072
30
0.000000
11
85945.220033
21
-2144249.015234
31
0.000000
12
85944.825531
22
-2144249.243000
32
0.000000
13
85945.351534
23
-2144249.243000
33
0.000000
0
SOLID
8
INSET
10
85945.220033
20
-2144249.015234
30
0.000000
11
85945.572128
21
-2144248.745062
31
0.000000
12
85945.351534
22
-2144249.243000
32
0.000000
13
85946.070066
23
-2144249.243000
33
0.000000
0
SOLID
8
INSET
10
85945.572128
20
-2144248.745062
30
0.000000
11
85945.842301
21
-2144248.392967
31
0.000000
12
85946.070066
22
-2144249.243000
32
0.000000
13
85947.314601
23
-2144249.243000
33
0.000000
0
SOLID
8
INSET
10
85945.842301
20
-2144248.392967
30
0.000000
11
85946.012138
21
-2144247.982943
31
0.000000
12
85947.314601
22
-2144249.243000
32
0.000000
13
85946.692412
23
-2144248.165222
33
0.000000
0
SOLID
8
INSET
10
85946.012138
20
-2144247.982943
30
0.000000
11
85946.070066
21
-2144247.542934
31
0.000000
12
85946.692412
22
-2144248.165222
32
0.000000
13
85946.333106
23
-2144247.542934
33
0.000000
0
TEXT
8
INSET
7
ARIAL
10
85944.370000
20
-2144243.705000
30
0.000000
40
4.100000
1
176/T
50
0.000000
41
1.000000
72
1
11
85944.370000
21
-2144243.705000
31
0.000000
0
SOLID
8
INSET
10
86119.770066
20
-2144225.082934
30
0.000000
11
86119.712138
21
-2144224.642924
31
0.000000
12
86120.033106
22
-2144225.082934
32
0.000000
13
86119.770082
23
-2144224.627398
33
0.000000
0
SOLID
8
INSET
10
86119.712138
20
-2144224.642924
30
0.000000
11
86119.542301
21
-2144224.232901
31
0.000000
12
86119.770082
22
-2144224.627398
32
0.000000
13
86119.542301
23
-2144224.232901
33
0.000000
0
SOLID
8
INSET
10
86119.542301
20
-2144224.232901
30
0.000000
11
86119.272128
21
-2144223.880805
31
0.000000
12
86119.542301
22
-2144224.232901
32
0.000000
13
86119.314524
23
-2144223.838410
33
0.000000
0
SOLID
8
INSET
10
86119.272128
20
-2144223.880805
30
0.000000
11
86118.920033
21
-2144223.610633
31
0.000000
12
86119.314524
22
-2144223.838410
32
0.000000
13
86119.051515
23
-2144223.382901
33
0.000000
0
SOLID
8
INSET
10
86118.920033
20
-2144223.610633
30
0.000000
11
86118.510010
21
-2144223.440796
31
0.000000
12
86119.051515
22
-2144223.382901
32
0.000000
13
86118.692246
23
-2144222.760678
33
0.000000
0
SOLID
8
INSET
10
86118.510010
20
-2144223.440796
30
0.000000
11
86118.070000
21
-2144223.382868
31
0.000000
12
86118.692246
22
-2144222.760678
32
0.000000
13
86118.070000
23
-2144221.683000
33
0.000000
0
SOLID
8
INSET
10
86118.070000
20
-2144223.382868
30
0.000000
11
86117.629990
21
-2144223.440796
31
0.000000
12
86118.070000
22
-2144221.683000
32
0.000000
13
86117.447754
23
-2144222.760678
33
0.000000
0
SOLID
8
INSET
10
86117.629990
20
-2144223.440796
30
0.000000
11
86117.219967
21
-2144223.610633
31
0.000000
12
86117.447754
22
-2144222.760678
32
0.000000
13
86117.088485
23
-2144223.382901
33
0.000000
0
SOLID
8
INSET
10
86117.219967
20
-2144223.610633
30
0.000000
11
86116.867872
21
-2144223.880805
31
0.000000
12
86117.088485
22
-2144223.382901
32
0.000000
13
86116.825476
23
-2144223.838410
33
0.000000
0
SOLID
8
INSET
10
86116.867872
20
-2144223.880805
30
0.000000
11
86116.597699
21
-2144224.232901
31
0.000000
12
86116.825476
22
-2144223.838410
32
0.000000
13
86116.597699
23
-2144224.232901
33
0.000000
0
SOLID
8
INSET
10
86116.597699
20
-2144224.232901
30
0.000000
11
86116.427862
21
-2144224.642924
31
0.000000
12
86116.597699
22
-2144224.232901
32
0.000000
13
86116.369918
23
-2144224.627398
33
0.000000
0
SOLID
8
INSET
10
86116.427862
20
-2144224.642924
30
0.000000
11
86116.369934
21
-2144225.082934
31
0.000000
12
86116.369918
22
-2144224.627398
32
0.000000
13
86116.106894
23
-2144225.082934
33
0.000000
0
SOLID
8
INSET
10
86116.369934
20
-2144225.082934
30
0.000000
11
86116.427862
21
-2144225.522943
31
0.000000
12
86116.106894
22
-2144225.082934
32
0.000000
13
86115.747588
23
-2144225.705222
33
0.000000
0
SOLID
8
INSET
10
86116.427862
20
-2144225.522943
30
0.000000
11
86116.597699
21
-2144225.932967
31
0.000000
12
86115.747588
22
-2144225.705222
32
0.000000
13
86115.125399
23
-2144226.783000
33
0.000000
0
SOLID
8
INSET
10
86116.597699
20
-2144225.932967
30
0.000000
11
86116.867872
21
-2144226.285062
31
0.000000
12
86115.125399
22
-2144226.783000
32
0.000000
13
86116.369934
23
-2144226.783000
33
0.000000
0
SOLID
8
INSET
10
86116.867872
20
-2144226.285062
30
0.000000
11
86117.219967
21
-2144226.555234
31
0.000000
12
86116.369934
22
-2144226.783000
32
0.000000
13
86117.088466
23
-2144226.783000
33
0.000000
0
SOLID
8
INSET
10
86117.219967
20
-2144226.555234
30
0.000000
11
86117.629990
21
-2144226.725072
31
0.000000
12
86117.088466
22
-2144226.783000
32
0.000000
13
86117.614469
23
-2144226.783000
33
0.000000
0
SOLID
8
INSET
10
86117.629990
20
-2144226.725072
30
0.000000
11
86118.070000
21
-2144226.783000
31
0.000000
12
86117.614469
22
-2144226.783000
32
0.000000
13
86118.070000
23
-2144226.783000
33
0.000000
0
SOLID
8
INSET
10
86118.070000
20
-2144226.783000
30
0.000000
11
86118.510010
21
-2144226.725072
31
0.000000
12
86118.070000
22
-2144226.783000
32
0.000000
13
86118.525531
23
-2144226.783000
33
0.000000
0
SOLID
8
INSET
10
86118.510010
20
-2144226.725072
30
0.000000
11
86118.920033
21
-2144226.555234
31
0.000000
12
86118.525531
22
-2144226.783000
32
0.000000
13
86119.051534
23
-2144226.783000
33
0.000000
0
SOLID
8
INSET
10
86118.920033
20
-2144226.555234
30
0.000000
11
86119.272128
21
-2144226.285062
31
0.000000
12
86119.051534
22
-2144226.783000
32
0.000000
13
86119.770066
23
-2144226.783000
33
0.000000
0
SOLID
8
INSET
10
86119.272128
20
-2144226.285062
30
0.000000
11
86119.542301
21
-2144225.932967
31
0.000000
12
86119.770066
22
-2144226.783000
32
0.000000
13
86121.014601
23
-2144226.783000
33
0.000000
0
SOLID
8
INSET
10
86119.542301
20
-2144225.932967
30
0.000000
11
86119.712138
21
-2144225.522943
31
0.000000
12
86121.014601
22
-2144226.783000
32
0.000000
13
86120.392412
23
-2144225.705222
33
0.000000
0
SOLID
8
INSET
10
86119.712138
20
-2144225.522943
30
0.000000
11
86119.770066
21
-2144225.082934
31
0.000000
12
86120.392412
22
-2144225.705222
32
0.000000
13
86120.033106
23
-2144225.082934
33
0.000000
0
TEXT
8
INSET
7
ARIAL
10
86118.070000
20
-2144221.245000
30
0.000000
40
4.100000
1
49/T
50
0.000000
41
1.000000
72
1
11
86118.070000
21
-2144221.245000
31
0.000000
0
SOLID
8
INSET
10
86124.850066
20
-2144268.892934
30
0.000000
11
86124.792138
21
-2144268.452924
31
0.000000
12
86125.113106
22
-2144268.892934
32
0.000000
13
86124.850082
23
-2144268.437398
33
0.000000
0
SOLID
8
INSET
10
86124.792138
20
-2144268.452924
30
0.000000
11
86124.622301
21
-2144268.042901
31
0.000000
12
86124.850082
22
-2144268.437398
32
0.000000
13
86124.622301
23
-2144268.042901
33
0.000000
0
SOLID
8
INSET
10
86124.622301
20
-2144268.042901
30
0.000000
11
86124.352128
21
-2144267.690805
31
0.000000
12
86124.622301
22
-2144268.042901
32
0.000000
13
86124.394524
23
-2144267.648410
33
0.000000
0
SOLID
8
INSET
10
86124.352128
20
-2144267.690805
30
0.000000
11
86124.000033
21
-2144267.420633
31
0.000000
12
86124.394524
22
-2144267.648410
32
0.000000
13
86124.131515
23
-2144267.192901
33
0.000000
0
SOLID
8
INSET
10
86124.000033
20
-2144267.420633
30
0.000000
11
86123.590010
21
-2144267.250796
31
0.000000
12
86124.131515
22
-2144267.192901
32
0.000000
13
86123.772246
23
-2144266.570678
33
0.000000
0
SOLID
8
INSET
10
86123.590010
20
-2144267.250796
30
0.000000
11
86123.150000
21
-2144267.192868
31
0.000000
12
86123.772246
22
-2144266.570678
32
0.000000
13
86123.150000
23
-2144265.493000
33
0.000000
0
SOLID
8
INSET
10
86123.150000
20
-2144267.192868
30
0.000000
11
86122.709990
21
-2144267.250796
31
0.000000
12
86123.150000
22
-2144265.493000
32
0.000000
13
86122.527754
23
-2144266.570678
33
0.000000
0
SOLID
8
INSET
10
86122.709990
20
-2144267.250796
30
0.000000
11
86122.299967
21
-2144267.420633
31
0.000000
12
86122.527754
22
-2144266.570678
32
0.000000
13
86122.168485
23
-2144267.192901
33
0.000000
0
SOLID
8
INSET
10
86122.299967
20
-2144267.420633
30
0.000000
11
86121.947872
21
-2144267.690805
31
0.000000
12
86122.168485
22
-2144267.192901
32
0.000000
13
86121.905476
23
-2144267.648410
33
0.000000
0
SOLID
8
INSET
10
86121.947872
20
-2144267.690805
30
0.000000
11
86121.677699
21
-2144268.042901
31
0.000000
12
86121.905476
22
-2144267.648410
32
0.000000
13
86121.677699
23
-2144268.042901
33
0.000000
0
SOLID
8
INSET
10
86121.677699
20
-2144268.042901
30
0.000000
11
86121.507862
21
-2144268.452924
31
0.000000
12
86121.677699
22
-2144268.042901
32
0.000000
13
86121.449918
23
-2144268.437398
33
0.000000
0
SOLID
8
INSET
10
86121.507862
20
-2144268.452924
30
0.000000
11
86121.449934
21
-2144268.892934
31
0.000000
12
86121.449918
22
-2144268.437398
32
0.000000
13
86121.186894
23
-2144268.892934
33
0.000000
0
SOLID
8
INSET
10
86121.449934
20
-2144268.892934
30
0.000000
11
86121.507862
21
-2144269.332943
31
0.000000
12
86121.186894
22
-2144268.892934
32
0.000000
13
86120.827588
23
-2144269.515222
33
0.000000
0
SOLID
8
INSET
10
86121.507862
20
-2144269.332943
30
0.000000
11
86121.677699
21
-2144269.742967
31
0.000000
12
86120.827588
22
-2144269.515222
32
0.000000
13
86120.205399
23
-2144270.593000
33
0.000000
0
SOLID
8
INSET
10
86121.677699
20
-2144269.742967
30
0.000000
11
86121.947872
21
-2144270.095062
31
0.000000
12
86120.205399
22
-2144270.593000
32
0.000000
13
86121.449934
23
-2144270.593000
33
0.000000
0
SOLID
8
INSET
10
86121.947872
20
-2144270.095062
30
0.000000
11
86122.299967
21
-2144270.365234
31
0.000000
12
86121.449934
22
-2144270.593000
32
0.000000
13
86122.168466
23
-2144270.593000
33
0.000000
0
SOLID
8
INSET
10
86122.299967
20
-2144270.365234
30
0.000000
11
86122.709990
21
-2144270.535072
31
0.000000
12
86122.168466
22
-2144270.593000
32
0.000000
13
86122.694469
23
-2144270.593000
33
0.000000
0
SOLID
8
INSET
10
86122.709990
20
-2144270.535072
30
0.000000
11
86123.150000
21
-2144270.593000
31
0.000000
12
86122.694469
22
-2144270.593000
32
0.000000
13
86123.150000
23
-2144270.593000
33
0.000000
0
SOLID
8
INSET
10
86123.150000
20
-2144270.593000
30
0.000000
11
86123.590010
21
-2144270.535072
31
0.000000
12
86123.150000
22
-2144270.593000
32
0.000000
13
86123.605531
23
-2144270.593000
33
0.000000
0
SOLID
8
INSET
10
86123.590010
20
-2144270.535072
30
0.000000
11
86124.000033
21
-2144270.365234
31
0.000000
12
86123.605531
22
-2144270.593000
32
0.000000
13
86124.131534
23
-2144270.593000
33
0.000000
0
SOLID
8
INSET
10
86124.000033
20
-2144270.365234
30
0.000000
11
86124.352128
21
-2144270.095062
31
0.000000
12
86124.131534
22
-2144270.593000
32
0.000000
13
86124.850066
23
-2144270.593000
33
0.000000
0
SOLID
8
INSET
10
86124.352128
20
-2144270.095062
30
0.000000
11
86124.622301
21
-2144269.742967
31
0.000000
12
86124.850066
22
-2144270.593000
32
0.000000
13
86126.094601
23
-2144270.593000
33
0.000000
0
SOLID
8
INSET
10
86124.622301
20
-2144269.742967
30
0.000000
11
86124.792138
21
-2144269.332943
31
0.000000
12
86126.094601
22
-2144270.593000
32
0.000000
13
86125.472412
23
-2144269.515222
33
0.000000
0
SOLID
8
INSET
10
86124.792138
20
-2144269.332943
30
0.000000
11
86124.850066
21
-2144268.892934
31
0.000000
12
86125.472412
22
-2144269.515222
32
0.000000
13
86125.113106
23
-2144268.892934
33
0.000000
0
TEXT
8
INSET
7
ARIAL
10
86123.150000
20
-2144265.055000
30
0.000000
40
4.100000
1
50/T
50
0.000000
41
1.000000
72
1
11
86123.150000
21
-2144265.055000
31
0.000000
0
POLYLINE
8
INSET
66
1
70
1
10
0.000000
20
0.000000
30
0.000000
0
VERTEX
8
INSET
10
85921.720000
20
-2144171.645000
30
0.000000
0
VERTEX
8
INSET
10
85921.662074
20
-2144171.205008
30
0.000000
0
VERTEX
8
INSET
10
85921.492243
20
-2144170.795000
30
0.000000
0
VERTEX
8
INSET
10
85921.222082
20
-2144170.442918
30
0.000000
0
VERTEX
8
INSET
10
85920.870000
20
-2144170.172757
30
0.000000
0
VERTEX
8
INSET
10
85920.459992
20
-2144170.002926
30
0.000000
0
VERTEX
8
INSET
10
85920.020000
20
-2144169.945000
30
0.000000
0
VERTEX
8
INSET
10
85919.580008
20
-2144170.002926
30
0.000000
0
VERTEX
8
INSET
10
85919.170000
20
-2144170.172757
30
0.000000
0
VERTEX
8
INSET
10
85918.817918
20
-2144170.442918
30
0.000000
0
VERTEX
8
INSET
10
85918.547757
20
-2144170.795000
30
0.000000
0
VERTEX
8
INSET
10
85918.377926
20
-2144171.205008
30
0.000000
0
VERTEX
8
INSET
10
85918.320000
20
-2144171.645000
30
0.000000
0
VERTEX
8
INSET
10
85918.377926
20
-2144172.084992
30
0.000000
0
VERTEX
8
INSET
10
85918.547757
20
-2144172.495000
30
0.000000
0
VERTEX
8
INSET
10
85918.817918
20
-2144172.847082
30
0.000000
0
VERTEX
8
INSET
10
85919.170000
20
-2144173.117243
30
0.000000
0
VERTEX
8
INSET
10
85919.580008
20
-2144173.287074
30
0.000000
0
VERTEX
8
INSET
10
85920.020000
20
-2144173.345000
30
0.000000
0
VERTEX
8
INSET
10
85920.459992
20
-2144173.287074
30
0.000000
0
VERTEX
8
INSET
10
85920.870000
20
-2144173.117243
30
0.000000
0
VERTEX
8
INSET
10
85921.222082
20
-2144172.847082
30
0.000000
0
VERTEX
8
INSET
10
85921.492243
20
-2144172.495000
30
0.000000
0
VERTEX
8
INSET
10
85921.662074
20
-2144172.084992
30
0.000000
0
SEQEND
8
INSET
0
LINE
8
INSET
10
85917.620000
20
-2144171.645000
30
0.000000
11
85922.420000
21
-2144171.645000
31
0.000000
0
LINE
8
INSET
10
85920.020000
20
-2144174.045000
30
0.000000
11
85920.020000
21
-2144169.245000
31
0.000000
0
TEXT
8
INSET
7
ARIAL
10
85920.020000
20
-2144168.045000
30
0.000000
40
4.100000
1
RM7
50
0.000000
41
1.000000
72
1
11
85920.020000
21
-2144168.045000
31
0.000000
0
POLYLINE
8
INSET
66
1
70
1
10
0.000000
20
0.000000
30
0.000000
0
VERTEX
8
INSET
10
86093.000000
20
-2144196.625000
30
0.000000
0
VERTEX
8
INSET
10
86092.942074
20
-2144196.185008
30
0.000000
0
VERTEX
8
INSET
10
86092.772243
20
-2144195.775000
30
0.000000
0
VERTEX
8
INSET
10
86092.502082
20
-2144195.422918
30
0.000000
0
VERTEX
8
INSET
10
86092.150000
20
-2144195.152757
30
0.000000
0
VERTEX
8
INSET
10
86091.739992
20
-2144194.982926
30
0.000000
0
VERTEX
8
INSET
10
86091.300000
20
-2144194.925000
30
0.000000
0
VERTEX
8
INSET
10
86090.860008
20
-2144194.982926
30
0.000000
0
VERTEX
8
INSET
10
86090.450000
20
-2144195.152757
30
0.000000
0
VERTEX
8
INSET
10
86090.097918
20
-2144195.422918
30
0.000000
0
VERTEX
8
INSET
10
86089.827757
20
-2144195.775000
30
0.000000
0
VERTEX
8
INSET
10
86089.657926
20
-2144196.185008
30
0.000000
0
VERTEX
8
INSET
10
86089.600000
20
-2144196.625000
30
0.000000
0
VERTEX
8
INSET
10
86089.657926
20
-2144197.064992
30
0.000000
0
VERTEX
8
INSET
10
86089.827757
20
-2144197.475000
30
0.000000
0
VERTEX
8
INSET
10
86090.097918
20
-2144197.827082
30
0.000000
0
VERTEX
8
INSET
10
86090.450000
20
-2144198.097243
30
0.000000
0
VERTEX
8
INSET
10
86090.860008
20
-2144198.267074
30
0.000000
0
VERTEX
8
INSET
10
86091.300000
20
-2144198.325000
30
0.000000
0
VERTEX
8
INSET
10
86091.739992
20
-2144198.267074
30
0.000000
0
VERTEX
8
INSET
10
86092.150000
20
-2144198.097243
30
0.000000
0
VERTEX
8
INSET
10
86092.502082
20
-2144197.827082
30
0.000000
0
VERTEX
8
INSET
10
86092.772243
20
-2144197.475000
30
0.000000
0
VERTEX
8
INSET
10
86092.942074
20
-2144197.064992
30
0.000000
0
SEQEND
8
INSET
0
LINE
8
INSET
10
86088.900000
20
-2144196.625000
30
0.000000
11
86093.700000
21
-2144196.625000
31
0.000000
0
LINE
8
INSET
10
86091.300000
20
-2144199.025000
30
0.000000
11
86091.300000
21
-2144194.225000
31
0.000000
0
TEXT
8
INSET
7
ARIAL
10
86091.300000
20
-2144193.025000
30
0.000000
40
4.100000
1
BASE
50
0.000000
41
1.000000
72
1
11
86091.300000
21
-2144193.025000
31
0.000000
0
ENDSEC
0
EOF
