0
SECTION
2
HEADER
9
$ACADVER
1
AC1009
9
$DWGCODEPAGE
3
ANSI_1252
9
$INSUNITS
70
6
9
$MEASUREMENT
70
1
9
$LTSCALE
40
1.000000
9
$CELTSCALE
40
1.000000
9
$PDMODE
70
1
9
$PDSIZE
40
0.000000
0
ENDSEC
0
SECTION
2
TABLES
0
TABLE
2
LTYPE
70
3
0
LTYPE
2
CONTINUOUS
70
0
3
Solid line
72
65
73
0
40
0.000000
0
LTYPE
2
PLANDASH
70
0
3
Plan boundary dash ____ ____ ____
72
65
73
2
40
5.588000
49
3.471333
49
-2.116667
0
LTYPE
2
PLANDOT
70
0
3
Leader dots . . . . . . . .
72
65
73
2
40
1.827389
49
0.931333
49
-0.896056
0
ENDTAB
0
TABLE
2
LAYER
70
15
0
LAYER
2
0
70
0
62
7
6
CONTINUOUS
0
LAYER
2
BOUNDARY-NEW
70
0
62
1
6
CONTINUOUS
0
LAYER
2
BOUNDARY-EXIST
70
0
62
3
6
PLANDASH
0
LAYER
2
ADJOINING
70
0
62
7
6
PLANDASH
0
LAYER
2
BEACONS
70
0
62
2
6
CONTINUOUS
0
LAYER
2
BEACON-TEXT
70
0
62
2
6
CONTINUOUS
0
LAYER
2
PARCEL-TEXT
70
0
62
5
6
CONTINUOUS
0
LAYER
2
GRID
70
0
62
8
6
CONTINUOUS
0
LAYER
2
GRID-TEXT
70
0
62
8
6
CONTINUOUS
0
LAYER
2
ROAD-TEXT
70
0
62
4
6
CONTINUOUS
0
LAYER
2
TITLE
70
0
62
7
6
CONTINUOUS
0
LAYER
2
APPROVAL
70
0
62
7
6
CONTINUOUS
0
LAYER
2
NORTH-ARROW
70
0
62
7
6
CONTINUOUS
0
LAYER
2
SHEET-BORDER
70
0
62
9
6
CONTINUOUS
0
LAYER
2
INSET
70
0
62
9
6
CONTINUOUS
0
ENDTAB
0
TABLE
2
STYLE
70
3
0
STYLE
2
ARIAL
70
0
40
0.000000
41
1.000000
50
0.000000
71
0
42
2.500000
3
arial.ttf
4

0
STYLE
2
ARIAL-BOLD
70
0
40
0.000000
41
1.000000
50
0.000000
71
0
42
2.500000
3
arialbd.ttf
4

0
STYLE
2
SERIF
70
0
40
0.000000
41
1.000000
50
0.000000
71
0
42
2.500000
3
times.ttf
4

0
ENDTAB
0
ENDSEC
0
SECTION
2
BLOCKS
0
BLOCK
8
0
2
BCN_PLACED
70
0
10
0.000000
20
0.000000
30
0.000000
3
BCN_PLACED
1

0
POINT
8
0
10
0.000000
20
0.000000
30
0.000000
0
POLYLINE
8
0
66
1
70
1
10
0.000000
20
0.000000
30
0.000000
0
VERTEX
8
0
10
2.498000
20
0.000000
30
0.000000
0
VERTEX
8
0
10
2.450002
20
0.487336
30
0.000000
0
VERTEX
8
0
10
2.307851
20
0.955943
30
0.000000
0
VERTEX
8
0
10
2.077011
20
1.387814
30
0.000000
0
VERTEX
8
0
10
1.766353
20
1.766353
30
0.000000
0
VERTEX
8
0
10
1.387814
20
2.077011
30
0.000000
0
VERTEX
8
0
10
0.955943
20
2.307851
30
0.000000
0
VERTEX
8
0
10
0.487336
20
2.450002
30
0.000000
0
VERTEX
8
0
10
0.000000
20
2.498000
30
0.000000
0
VERTEX
8
0
10
-0.487336
20
2.450002
30
0.000000
0
VERTEX
8
0
10
-0.955943
20
2.307851
30
0.000000
0
VERTEX
8
0
10
-1.387814
20
2.077011
30
0.000000
0
VERTEX
8
0
10
-1.766353
20
1.766353
30
0.000000
0
VERTEX
8
0
10
-2.077011
20
1.387814
30
0.000000
0
VERTEX
8
0
10
-2.307851
20
0.955943
30
0.000000
0
VERTEX
8
0
10
-2.450002
20
0.487336
30
0.000000
0
VERTEX
8
0
10
-2.498000
20
0.000000
30
0.000000
0
VERTEX
8
0
10
-2.450002
20
-0.487336
30
0.000000
0
VERTEX
8
0
10
-2.307851
20
-0.955943
30
0.000000
0
VERTEX
8
0
10
-2.077011
20
-1.387814
30
0.000000
0
VERTEX
8
0
10
-1.766353
20
-1.766353
30
0.000000
0
VERTEX
8
0
10
-1.387814
20
-2.077011
30
0.000000
0
VERTEX
8
0
10
-0.955943
20
-2.307851
30
0.000000
0
VERTEX
8
0
10
-0.487336
20
-2.450002
30
0.000000
0
VERTEX
8
0
10
0.000000
20
-2.498000
30
0.000000
0
VERTEX
8
0
10
0.487336
20
-2.450002
30
0.000000
0
VERTEX
8
0
10
0.955943
20
-2.307851
30
0.000000
0
VERTEX
8
0
10
1.387814
20
-2.077011
30
0.000000
0
VERTEX
8
0
10
1.766353
20
-1.766353
30
0.000000
0
VERTEX
8
0
10
2.077011
20
-1.387814
30
0.000000
0
VERTEX
8
0
10
2.307851
20
-0.955943
30
0.000000
0
VERTEX
8
0
10
2.450002
20
-0.487336
30
0.000000
0
SEQEND
8
0
0
ENDBLK
8
0
0
BLOCK
8
0
2
BCN_FOUND
70
0
10
0.000000
20
0.000000
30
0.000000
3
BCN_FOUND
1

0
POINT
8
0
10
0.000000
20
0.000000
30
0.000000
0
POLYLINE
8
0
66
1
70
1
10
0.000000
20
0.000000
30
0.000000
0
VERTEX
8
0
10
2.498000
20
0.000000
30
0.000000
0
VERTEX
8
0
10
2.450002
20
0.487336
30
0.000000
0
VERTEX
8
0
10
2.307851
20
0.955943
30
0.000000
0
VERTEX
8
0
10
2.077011
20
1.387814
30
0.000000
0
VERTEX
8
0
10
1.766353
20
1.766353
30
0.000000
0
VERTEX
8
0
10
1.387814
20
2.077011
30
0.000000
0
VERTEX
8
0
10
0.955943
20
2.307851
30
0.000000
0
VERTEX
8
0
10
0.487336
20
2.450002
30
0.000000
0
VERTEX
8
0
10
0.000000
20
2.498000
30
0.000000
0
VERTEX
8
0
10
-0.487336
20
2.450002
30
0.000000
0
VERTEX
8
0
10
-0.955943
20
2.307851
30
0.000000
0
VERTEX
8
0
10
-1.387814
20
2.077011
30
0.000000
0
VERTEX
8
0
10
-1.766353
20
1.766353
30
0.000000
0
VERTEX
8
0
10
-2.077011
20
1.387814
30
0.000000
0
VERTEX
8
0
10
-2.307851
20
0.955943
30
0.000000
0
VERTEX
8
0
10
-2.450002
20
0.487336
30
0.000000
0
VERTEX
8
0
10
-2.498000
20
0.000000
30
0.000000
0
VERTEX
8
0
10
-2.450002
20
-0.487336
30
0.000000
0
VERTEX
8
0
10
-2.307851
20
-0.955943
30
0.000000
0
VERTEX
8
0
10
-2.077011
20
-1.387814
30
0.000000
0
VERTEX
8
0
10
-1.766353
20
-1.766353
30
0.000000
0
VERTEX
8
0
10
-1.387814
20
-2.077011
30
0.000000
0
VERTEX
8
0
10
-0.955943
20
-2.307851
30
0.000000
0
VERTEX
8
0
10
-0.487336
20
-2.450002
30
0.000000
0
VERTEX
8
0
10
0.000000
20
-2.498000
30
0.000000
0
VERTEX
8
0
10
0.487336
20
-2.450002
30
0.000000
0
VERTEX
8
0
10
0.955943
20
-2.307851
30
0.000000
0
VERTEX
8
0
10
1.387814
20
-2.077011
30
0.000000
0
VERTEX
8
0
10
1.766353
20
-1.766353
30
0.000000
0
VERTEX
8
0
10
2.077011
20
-1.387814
30
0.000000
0
VERTEX
8
0
10
2.307851
20
-0.955943
30
0.000000
0
VERTEX
8
0
10
2.450002
20
-0.487336
30
0.000000
0
SEQEND
8
0
0
POLYLINE
8
0
66
1
70
1
10
0.000000
20
0.000000
30
0.000000
0
VERTEX
8
0
10
1.482000
20
0.000000
30
0.000000
0
VERTEX
8
0
10
1.453524
20
0.289124
30
0.000000
0
VERTEX
8
0
10
1.369189
20
0.567137
30
0.000000
0
VERTEX
8
0
10
1.232238
20
0.823355
30
0.000000
0
VERTEX
8
0
10
1.047932
20
1.047932
30
0.000000
0
VERTEX
8
0
10
0.823355
20
1.232238
30
0.000000
0
VERTEX
8
0
10
0.567137
20
1.369189
30
0.000000
0
VERTEX
8
0
10
0.289124
20
1.453524
30
0.000000
0
VERTEX
8
0
10
0.000000
20
1.482000
30
0.000000
0
VERTEX
8
0
10
-0.289124
20
1.453524
30
0.000000
0
VERTEX
8
0
10
-0.567137
20
1.369189
30
0.000000
0
VERTEX
8
0
10
-0.823355
20
1.232238
30
0.000000
0
VERTEX
8
0
10
-1.047932
20
1.047932
30
0.000000
0
VERTEX
8
0
10
-1.232238
20
0.823355
30
0.000000
0
VERTEX
8
0
10
-1.369189
20
0.567137
30
0.000000
0
VERTEX
8
0
10
-1.453524
20
0.289124
30
0.000000
0
VERTEX
8
0
10
-1.482000
20
0.000000
30
0.000000
0
VERTEX
8
0
10
-1.453524
20
-0.289124
30
0.000000
0
VERTEX
8
0
10
-1.369189
20
-0.567137
30
0.000000
0
VERTEX
8
0
10
-1.232238
20
-0.823355
30
0.000000
0
VERTEX
8
0
10
-1.047932
20
-1.047932
30
0.000000
0
VERTEX
8
0
10
-0.823355
20
-1.232238
30
0.000000
0
VERTEX
8
0
10
-0.567137
20
-1.369189
30
0.000000
0
VERTEX
8
0
10
-0.289124
20
-1.453524
30
0.000000
0
VERTEX
8
0
10
0.000000
20
-1.482000
30
0.000000
0
VERTEX
8
0
10
0.289124
20
-1.453524
30
0.000000
0
VERTEX
8
0
10
0.567137
20
-1.369189
30
0.000000
0
VERTEX
8
0
10
0.823355
20
-1.232238
30
0.000000
0
VERTEX
8
0
10
1.047932
20
-1.047932
30
0.000000
0
VERTEX
8
0
10
1.232238
20
-0.823355
30
0.000000
0
VERTEX
8
0
10
1.369189
20
-0.567137
30
0.000000
0
VERTEX
8
0
10
1.453524
20
-0.289124
30
0.000000
0
SEQEND
8
0
0
ENDBLK
8
0
0
BLOCK
8
0
2
BCN_FOUND_NA
70
0
10
0.000000
20
0.000000
30
0.000000
3
BCN_FOUND_NA
1

0
POINT
8
0
10
0.000000
20
0.000000
30
0.000000
0
POLYLINE
8
0
66
1
70
1
10
0.000000
20
0.000000
30
0.000000
0
VERTEX
8
0
10
2.498000
20
0.000000
30
0.000000
0
VERTEX
8
0
10
2.450002
20
0.487336
30
0.000000
0
VERTEX
8
0
10
2.307851
20
0.955943
30
0.000000
0
VERTEX
8
0
10
2.077011
20
1.387814
30
0.000000
0
VERTEX
8
0
10
1.766353
20
1.766353
30
0.000000
0
VERTEX
8
0
10
1.387814
20
2.077011
30
0.000000
0
VERTEX
8
0
10
0.955943
20
2.307851
30
0.000000
0
VERTEX
8
0
10
0.487336
20
2.450002
30
0.000000
0
VERTEX
8
0
10
0.000000
20
2.498000
30
0.000000
0
VERTEX
8
0
10
-0.487336
20
2.450002
30
0.000000
0
VERTEX
8
0
10
-0.955943
20
2.307851
30
0.000000
0
VERTEX
8
0
10
-1.387814
20
2.077011
30
0.000000
0
VERTEX
8
0
10
-1.766353
20
1.766353
30
0.000000
0
VERTEX
8
0
10
-2.077011
20
1.387814
30
0.000000
0
VERTEX
8
0
10
-2.307851
20
0.955943
30
0.000000
0
VERTEX
8
0
10
-2.450002
20
0.487336
30
0.000000
0
VERTEX
8
0
10
-2.498000
20
0.000000
30
0.000000
0
VERTEX
8
0
10
-2.450002
20
-0.487336
30
0.000000
0
VERTEX
8
0
10
-2.307851
20
-0.955943
30
0.000000
0
VERTEX
8
0
10
-2.077011
20
-1.387814
30
0.000000
0
VERTEX
8
0
10
-1.766353
20
-1.766353
30
0.000000
0
VERTEX
8
0
10
-1.387814
20
-2.077011
30
0.000000
0
VERTEX
8
0
10
-0.955943
20
-2.307851
30
0.000000
0
VERTEX
8
0
10
-0.487336
20
-2.450002
30
0.000000
0
VERTEX
8
0
10
0.000000
20
-2.498000
30
0.000000
0
VERTEX
8
0
10
0.487336
20
-2.450002
30
0.000000
0
VERTEX
8
0
10
0.955943
20
-2.307851
30
0.000000
0
VERTEX
8
0
10
1.387814
20
-2.077011
30
0.000000
0
VERTEX
8
0
10
1.766353
20
-1.766353
30
0.000000
0
VERTEX
8
0
10
2.077011
20
-1.387814
30
0.000000
0
VERTEX
8
0
10
2.307851
20
-0.955943
30
0.000000
0
VERTEX
8
0
10
2.450002
20
-0.487336
30
0.000000
0
SEQEND
8
0
0
POLYLINE
8
0
66
1
70
1
10
0.000000
20
0.000000
30
0.000000
0
VERTEX
8
0
10
1.482000
20
0.000000
30
0.000000
0
VERTEX
8
0
10
1.453524
20
0.289124
30
0.000000
0
VERTEX
8
0
10
1.369189
20
0.567137
30
0.000000
0
VERTEX
8
0
10
1.232238
20
0.823355
30
0.000000
0
VERTEX
8
0
10
1.047932
20
1.047932
30
0.000000
0
VERTEX
8
0
10
0.823355
20
1.232238
30
0.000000
0
VERTEX
8
0
10
0.567137
20
1.369189
30
0.000000
0
VERTEX
8
0
10
0.289124
20
1.453524
30
0.000000
0
VERTEX
8
0
10
0.000000
20
1.482000
30
0.000000
0
VERTEX
8
0
10
-0.289124
20
1.453524
30
0.000000
0
VERTEX
8
0
10
-0.567137
20
1.369189
30
0.000000
0
VERTEX
8
0
10
-0.823355
20
1.232238
30
0.000000
0
VERTEX
8
0
10
-1.047932
20
1.047932
30
0.000000
0
VERTEX
8
0
10
-1.232238
20
0.823355
30
0.000000
0
VERTEX
8
0
10
-1.369189
20
0.567137
30
0.000000
0
VERTEX
8
0
10
-1.453524
20
0.289124
30
0.000000
0
VERTEX
8
0
10
-1.482000
20
0.000000
30
0.000000
0
VERTEX
8
0
10
-1.453524
20
-0.289124
30
0.000000
0
VERTEX
8
0
10
-1.369189
20
-0.567137
30
0.000000
0
VERTEX
8
0
10
-1.232238
20
-0.823355
30
0.000000
0
VERTEX
8
0
10
-1.047932
20
-1.047932
30
0.000000
0
VERTEX
8
0
10
-0.823355
20
-1.232238
30
0.000000
0
VERTEX
8
0
10
-0.567137
20
-1.369189
30
0.000000
0
VERTEX
8
0
10
-0.289124
20
-1.453524
30
0.000000
0
VERTEX
8
0
10
0.000000
20
-1.482000
30
0.000000
0
VERTEX
8
0
10
0.289124
20
-1.453524
30
0.000000
0
VERTEX
8
0
10
0.567137
20
-1.369189
30
0.000000
0
VERTEX
8
0
10
0.823355
20
-1.232238
30
0.000000
0
VERTEX
8
0
10
1.047932
20
-1.047932
30
0.000000
0
VERTEX
8
0
10
1.232238
20
-0.823355
30
0.000000
0
VERTEX
8
0
10
1.369189
20
-0.567137
30
0.000000
0
VERTEX
8
0
10
1.453524
20
-0.289124
30
0.000000
0
SEQEND
8
0
0
LINE
8
0
10
-2.333452
20
-2.333452
30
0.000000
11
2.333452
21
2.333452
31
0.000000
0
ENDBLK
8
0
0
BLOCK
8
0
2
BCN_RM
70
0
10
0.000000
20
0.000000
30
0.000000
3
BCN_RM
1

0
POINT
8
0
10
0.000000
20
0.000000
30
0.000000
0
POLYLINE
8
0
66
1
70
1
10
0.000000
20
0.000000
30
0.000000
0
VERTEX
8
0
10
2.498000
20
0.000000
30
0.000000
0
VERTEX
8
0
10
2.450002
20
0.487336
30
0.000000
0
VERTEX
8
0
10
2.307851
20
0.955943
30
0.000000
0
VERTEX
8
0
10
2.077011
20
1.387814
30
0.000000
0
VERTEX
8
0
10
1.766353
20
1.766353
30
0.000000
0
VERTEX
8
0
10
1.387814
20
2.077011
30
0.000000
0
VERTEX
8
0
10
0.955943
20
2.307851
30
0.000000
0
VERTEX
8
0
10
0.487336
20
2.450002
30
0.000000
0
VERTEX
8
0
10
0.000000
20
2.498000
30
0.000000
0
VERTEX
8
0
10
-0.487336
20
2.450002
30
0.000000
0
VERTEX
8
0
10
-0.955943
20
2.307851
30
0.000000
0
VERTEX
8
0
10
-1.387814
20
2.077011
30
0.000000
0
VERTEX
8
0
10
-1.766353
20
1.766353
30
0.000000
0
VERTEX
8
0
10
-2.077011
20
1.387814
30
0.000000
0
VERTEX
8
0
10
-2.307851
20
0.955943
30
0.000000
0
VERTEX
8
0
10
-2.450002
20
0.487336
30
0.000000
0
VERTEX
8
0
10
-2.498000
20
0.000000
30
0.000000
0
VERTEX
8
0
10
-2.450002
20
-0.487336
30
0.000000
0
VERTEX
8
0
10
-2.307851
20
-0.955943
30
0.000000
0
VERTEX
8
0
10
-2.077011
20
-1.387814
30
0.000000
0
VERTEX
8
0
10
-1.766353
20
-1.766353
30
0.000000
0
VERTEX
8
0
10
-1.387814
20
-2.077011
30
0.000000
0
VERTEX
8
0
10
-0.955943
20
-2.307851
30
0.000000
0
VERTEX
8
0
10
-0.487336
20
-2.450002
30
0.000000
0
VERTEX
8
0
10
0.000000
20
-2.498000
30
0.000000
0
VERTEX
8
0
10
0.487336
20
-2.450002
30
0.000000
0
VERTEX
8
0
10
0.955943
20
-2.307851
30
0.000000
0
VERTEX
8
0
10
1.387814
20
-2.077011
30
0.000000
0
VERTEX
8
0
10
1.766353
20
-1.766353
30
0.000000
0
VERTEX
8
0
10
2.077011
20
-1.387814
30
0.000000
0
VERTEX
8
0
10
2.307851
20
-0.955943
30
0.000000
0
VERTEX
8
0
10
2.450002
20
-0.487336
30
0.000000
0
SEQEND
8
0
0
LINE
8
0
10
-3.600000
20
0.000000
30
0.000000
11
3.600000
21
0.000000
31
0.000000
0
LINE
8
0
10
0.000000
20
-3.600000
30
0.000000
11
0.000000
21
3.600000
31
0.000000
0
ENDBLK
8
0
0
BLOCK
8
0
2
BCN_WS
70
0
10
0.000000
20
0.000000
30
0.000000
3
BCN_WS
1

0
POINT
8
0
10
0.000000
20
0.000000
30
0.000000
0
POLYLINE
8
0
66
1
70
1
10
0.000000
20
0.000000
30
0.000000
0
VERTEX
8
0
10
2.498000
20
0.000000
30
0.000000
0
VERTEX
8
0
10
2.450002
20
0.487336
30
0.000000
0
VERTEX
8
0
10
2.307851
20
0.955943
30
0.000000
0
VERTEX
8
0
10
2.077011
20
1.387814
30
0.000000
0
VERTEX
8
0
10
1.766353
20
1.766353
30
0.000000
0
VERTEX
8
0
10
1.387814
20
2.077011
30
0.000000
0
VERTEX
8
0
10
0.955943
20
2.307851
30
0.000000
0
VERTEX
8
0
10
0.487336
20
2.450002
30
0.000000
0
VERTEX
8
0
10
0.000000
20
2.498000
30
0.000000
0
VERTEX
8
0
10
-0.487336
20
2.450002
30
0.000000
0
VERTEX
8
0
10
-0.955943
20
2.307851
30
0.000000
0
VERTEX
8
0
10
-1.387814
20
2.077011
30
0.000000
0
VERTEX
8
0
10
-1.766353
20
1.766353
30
0.000000
0
VERTEX
8
0
10
-2.077011
20
1.387814
30
0.000000
0
VERTEX
8
0
10
-2.307851
20
0.955943
30
0.000000
0
VERTEX
8
0
10
-2.450002
20
0.487336
30
0.000000
0
VERTEX
8
0
10
-2.498000
20
0.000000
30
0.000000
0
VERTEX
8
0
10
-2.450002
20
-0.487336
30
0.000000
0
VERTEX
8
0
10
-2.307851
20
-0.955943
30
0.000000
0
VERTEX
8
0
10
-2.077011
20
-1.387814
30
0.000000
0
VERTEX
8
0
10
-1.766353
20
-1.766353
30
0.000000
0
VERTEX
8
0
10
-1.387814
20
-2.077011
30
0.000000
0
VERTEX
8
0
10
-0.955943
20
-2.307851
30
0.000000
0
VERTEX
8
0
10
-0.487336
20
-2.450002
30
0.000000
0
VERTEX
8
0
10
0.000000
20
-2.498000
30
0.000000
0
VERTEX
8
0
10
0.487336
20
-2.450002
30
0.000000
0
VERTEX
8
0
10
0.955943
20
-2.307851
30
0.000000
0
VERTEX
8
0
10
1.387814
20
-2.077011
30
0.000000
0
VERTEX
8
0
10
1.766353
20
-1.766353
30
0.000000
0
VERTEX
8
0
10
2.077011
20
-1.387814
30
0.000000
0
VERTEX
8
0
10
2.307851
20
-0.955943
30
0.000000
0
VERTEX
8
0
10
2.450002
20
-0.487336
30
0.000000
0
SEQEND
8
0
0
SOLID
8
0
10
0.000000
20
0.000000
30
0.000000
11
0.950000
21
0.000000
31
0.000000
12
0.822724
22
0.475000
32
0.000000
13
0.822724
23
0.475000
33
0.000000
0
SOLID
8
0
10
0.000000
20
0.000000
30
0.000000
11
0.822724
21
0.475000
31
0.000000
12
0.475000
22
0.822724
32
0.000000
13
0.475000
23
0.822724
33
0.000000
0
SOLID
8
0
10
0.000000
20
0.000000
30
0.000000
11
0.475000
21
0.822724
31
0.000000
12
0.000000
22
0.950000
32
0.000000
13
0.000000
23
0.950000
33
0.000000
0
SOLID
8
0
10
0.000000
20
0.000000
30
0.000000
11
0.000000
21
0.950000
31
0.000000
12
-0.475000
22
0.822724
32
0.000000
13
-0.475000
23
0.822724
33
0.000000
0
SOLID
8
0
10
0.000000
20
0.000000
30
0.000000
11
-0.475000
21
0.822724
31
0.000000
12
-0.822724
22
0.475000
32
0.000000
13
-0.822724
23
0.475000
33
0.000000
0
SOLID
8
0
10
0.000000
20
0.000000
30
0.000000
11
-0.822724
21
0.475000
31
0.000000
12
-0.950000
22
0.000000
32
0.000000
13
-0.950000
23
0.000000
33
0.000000
0
SOLID
8
0
10
0.000000
20
0.000000
30
0.000000
11
-0.950000
21
0.000000
31
0.000000
12
-0.822724
22
-0.475000
32
0.000000
13
-0.822724
23
-0.475000
33
0.000000
0
SOLID
8
0
10
0.000000
20
0.000000
30
0.000000
11
-0.822724
21
-0.475000
31
0.000000
12
-0.475000
22
-0.822724
32
0.000000
13
-0.475000
23
-0.822724
33
0.000000
0
SOLID
8
0
10
0.000000
20
0.000000
30
0.000000
11
-0.475000
21
-0.822724
31
0.000000
12
0.000000
22
-0.950000
32
0.000000
13
0.000000
23
-0.950000
33
0.000000
0
SOLID
8
0
10
0.000000
20
0.000000
30
0.000000
11
0.000000
21
-0.950000
31
0.000000
12
0.475000
22
-0.822724
32
0.000000
13
0.475000
23
-0.822724
33
0.000000
0
SOLID
8
0
10
0.000000
20
0.000000
30
0.000000
11
0.475000
21
-0.822724
31
0.000000
12
0.822724
22
-0.475000
32
0.000000
13
0.822724
23
-0.475000
33
0.000000
0
SOLID
8
0
10
0.000000
20
0.000000
30
0.000000
11
0.822724
21
-0.475000
31
0.000000
12
0.950000
22
0.000000
32
0.000000
13
0.950000
23
0.000000
33
0.000000
0
ENDBLK
8
0
0
BLOCK
8
0
2
BCN_WSU
70
0
10
0.000000
20
0.000000
30
0.000000
3
BCN_WSU
1

0
POINT
8
0
10
0.000000
20
0.000000
30
0.000000
0
SOLID
8
0
10
0.000000
20
0.000000
30
0.000000
11
1.050000
21
0.000000
31
0.000000
12
0.909327
22
0.525000
32
0.000000
13
0.909327
23
0.525000
33
0.000000
0
SOLID
8
0
10
0.000000
20
0.000000
30
0.000000
11
0.909327
21
0.525000
31
0.000000
12
0.525000
22
0.909327
32
0.000000
13
0.525000
23
0.909327
33
0.000000
0
SOLID
8
0
10
0.000000
20
0.000000
30
0.000000
11
0.525000
21
0.909327
31
0.000000
12
0.000000
22
1.050000
32
0.000000
13
0.000000
23
1.050000
33
0.000000
0
SOLID
8
0
10
0.000000
20
0.000000
30
0.000000
11
0.000000
21
1.050000
31
0.000000
12
-0.525000
22
0.909327
32
0.000000
13
-0.525000
23
0.909327
33
0.000000
0
SOLID
8
0
10
0.000000
20
0.000000
30
0.000000
11
-0.525000
21
0.909327
31
0.000000
12
-0.909327
22
0.525000
32
0.000000
13
-0.909327
23
0.525000
33
0.000000
0
SOLID
8
0
10
0.000000
20
0.000000
30
0.000000
11
-0.909327
21
0.525000
31
0.000000
12
-1.050000
22
0.000000
32
0.000000
13
-1.050000
23
0.000000
33
0.000000
0
SOLID
8
0
10
0.000000
20
0.000000
30
0.000000
11
-1.050000
21
0.000000
31
0.000000
12
-0.909327
22
-0.525000
32
0.000000
13
-0.909327
23
-0.525000
33
0.000000
0
SOLID
8
0
10
0.000000
20
0.000000
30
0.000000
11
-0.909327
21
-0.525000
31
0.000000
12
-0.525000
22
-0.909327
32
0.000000
13
-0.525000
23
-0.909327
33
0.000000
0
SOLID
8
0
10
0.000000
20
0.000000
30
0.000000
11
-0.525000
21
-0.909327
31
0.000000
12
0.000000
22
-1.050000
32
0.000000
13
0.000000
23
-1.050000
33
0.000000
0
SOLID
8
0
10
0.000000
20
0.000000
30
0.000000
11
0.000000
21
-1.050000
31
0.000000
12
0.525000
22
-0.909327
32
0.000000
13
0.525000
23
-0.909327
33
0.000000
0
SOLID
8
0
10
0.000000
20
0.000000
30
0.000000
11
0.525000
21
-0.909327
31
0.000000
12
0.909327
22
-0.525000
32
0.000000
13
0.909327
23
-0.525000
33
0.000000
0
SOLID
8
0
10
0.000000
20
0.000000
30
0.000000
11
0.909327
21
-0.525000
31
0.000000
12
1.050000
22
0.000000
32
0.000000
13
1.050000
23
0.000000
33
0.000000
0
ENDBLK
8
0
0
BLOCK
8
0
2
BCN_TRIG
70
0
10
0.000000
20
0.000000
30
0.000000
3
BCN_TRIG
1

0
POINT
8
0
10
0.000000
20
0.000000
30
0.000000
0
SOLID
8
0
10
2.498011
20
-0.196949
30
0.000000
11
2.460061
21
0.236827
31
0.000000
12
2.976506
22
-0.196949
32
0.000000
13
2.671322
23
0.274078
33
0.000000
0
SOLID
8
0
10
2.460061
20
0.236827
30
0.000000
11
2.347363
21
0.657422
31
0.000000
12
2.671322
22
0.274078
32
0.000000
13
2.408525
23
0.679683
33
0.000000
0
SOLID
8
0
10
2.347363
20
0.657422
30
0.000000
11
2.163341
21
1.052057
31
0.000000
12
2.408525
22
0.679683
32
0.000000
13
2.166192
23
1.053703
33
0.000000
0
SOLID
8
0
10
2.163341
20
1.052057
30
0.000000
11
1.913588
21
1.408742
31
0.000000
12
2.166192
22
1.053703
32
0.000000
13
1.928209
23
1.421011
33
0.000000
0
SOLID
8
0
10
1.913588
20
1.408742
30
0.000000
11
1.605691
21
1.716639
31
0.000000
12
1.928209
22
1.421011
32
0.000000
13
1.679599
23
1.804719
33
0.000000
0
SOLID
8
0
10
1.605691
20
1.716639
30
0.000000
11
1.249006
21
1.966393
31
0.000000
12
1.679599
22
1.804719
32
0.000000
13
1.402544
23
2.232330
33
0.000000
0
SOLID
8
0
10
1.249006
20
1.966393
30
0.000000
11
0.854370
21
2.150414
31
0.000000
12
1.402544
22
2.232330
32
0.000000
13
1.070637
23
2.744601
33
0.000000
0
SOLID
8
0
10
0.854370
20
2.150414
30
0.000000
11
0.433775
21
2.263112
31
0.000000
12
1.070637
22
2.744601
32
0.000000
13
0.636754
23
3.414263
33
0.000000
0
SOLID
8
0
10
0.433775
20
2.263112
30
0.000000
11
0.000000
21
2.301063
31
0.000000
12
0.636754
22
3.414263
32
0.000000
13
0.000000
23
4.397040
33
0.000000
0
SOLID
8
0
10
0.000000
20
2.301063
30
0.000000
11
-0.433775
21
2.263112
31
0.000000
12
0.000000
22
4.397040
32
0.000000
13
-0.636754
23
3.414263
33
0.000000
0
SOLID
8
0
10
-0.433775
20
2.263112
30
0.000000
11
-0.854370
21
2.150414
31
0.000000
12
-0.636754
22
3.414263
32
0.000000
13
-1.070637
23
2.744601
33
0.000000
0
SOLID
8
0
10
-0.854370
20
2.150414
30
0.000000
11
-1.249006
21
1.966393
31
0.000000
12
-1.070637
22
2.744601
32
0.000000
13
-1.402544
23
2.232330
33
0.000000
0
SOLID
8
0
10
-1.249006
20
1.966393
30
0.000000
11
-1.605691
21
1.716639
31
0.000000
12
-1.402544
22
2.232330
32
0.000000
13
-1.679599
23
1.804719
33
0.000000
0
SOLID
8
0
10
-1.605691
20
1.716639
30
0.000000
11
-1.913588
21
1.408742
31
0.000000
12
-1.679599
22
1.804719
32
0.000000
13
-1.928209
23
1.421011
33
0.000000
0
SOLID
8
0
10
-1.913588
20
1.408742
30
0.000000
11
-2.163341
21
1.052057
31
0.000000
12
-1.928209
22
1.421011
32
0.000000
13
-2.166192
23
1.053703
33
0.000000
0
SOLID
8
0
10
-2.163341
20
1.052057
30
0.000000
11
-2.347363
21
0.657422
31
0.000000
12
-2.166192
22
1.053703
32
0.000000
13
-2.408525
23
0.679683
33
0.000000
0
SOLID
8
0
10
-2.347363
20
0.657422
30
0.000000
11
-2.460061
21
0.236827
31
0.000000
12
-2.408525
22
0.679683
32
0.000000
13
-2.671322
23
0.274078
33
0.000000
0
SOLID
8
0
10
-2.460061
20
0.236827
30
0.000000
11
-2.498011
21
-0.196949
31
0.000000
12
-2.671322
22
0.274078
32
0.000000
13
-2.976506
23
-0.196949
33
0.000000
0
SOLID
8
0
10
-2.498011
20
-0.196949
30
0.000000
11
-2.460061
21
-0.630724
31
0.000000
12
-2.976506
22
-0.196949
32
0.000000
13
-3.360415
23
-0.789480
33
0.000000
0
SOLID
8
0
10
-2.460061
20
-0.630724
30
0.000000
11
-2.347363
21
-1.051319
31
0.000000
12
-3.360415
22
-0.789480
32
0.000000
13
-3.895038
23
-1.614626
33
0.000000
0
SOLID
8
0
10
-2.347363
20
-1.051319
30
0.000000
11
-2.163341
21
-1.445954
31
0.000000
12
-3.895038
22
-1.614626
32
0.000000
13
-4.326683
23
-2.694960
33
0.000000
0
SOLID
8
0
10
-2.163341
20
-1.445954
30
0.000000
11
-1.913588
21
-1.802639
31
0.000000
12
-4.326683
22
-2.694960
32
0.000000
13
-2.977014
23
-2.694960
33
0.000000
0
SOLID
8
0
10
-1.913588
20
-1.802639
30
0.000000
11
-1.605691
21
-2.110536
31
0.000000
12
-2.977014
22
-2.694960
32
0.000000
13
-2.096080
23
-2.694960
33
0.000000
0
SOLID
8
0
10
-1.605691
20
-2.110536
30
0.000000
11
-1.249006
21
-2.360290
31
0.000000
12
-2.096080
22
-2.694960
32
0.000000
13
-1.442228
23
-2.694960
33
0.000000
0
SOLID
8
0
10
-1.249006
20
-2.360290
30
0.000000
11
-0.854370
21
-2.544311
31
0.000000
12
-1.442228
22
-2.694960
32
0.000000
13
-0.909202
23
-2.694960
33
0.000000
0
SOLID
8
0
10
-0.854370
20
-2.544311
30
0.000000
11
-0.433775
21
-2.657010
31
0.000000
12
-0.909202
22
-2.694960
32
0.000000
13
-0.440467
23
-2.694960
33
0.000000
0
SOLID
8
0
10
-0.433775
20
-2.657010
30
0.000000
11
0.000000
21
-2.694960
31
0.000000
12
-0.440467
22
-2.694960
32
0.000000
13
0.000000
23
-2.694960
33
0.000000
0
SOLID
8
0
10
0.000000
20
-2.694960
30
0.000000
11
0.433775
21
-2.657010
31
0.000000
12
0.000000
22
-2.694960
32
0.000000
13
0.440467
23
-2.694960
33
0.000000
0
SOLID
8
0
10
0.433775
20
-2.657010
30
0.000000
11
0.854370
21
-2.544311
31
0.000000
12
0.440467
22
-2.694960
32
0.000000
13
0.909202
23
-2.694960
33
0.000000
0
SOLID
8
0
10
0.854370
20
-2.544311
30
0.000000
11
1.249006
21
-2.360290
31
0.000000
12
0.909202
22
-2.694960
32
0.000000
13
1.442228
23
-2.694960
33
0.000000
0
SOLID
8
0
10
1.249006
20
-2.360290
30
0.000000
11
1.605691
21
-2.110536
31
0.000000
12
1.442228
22
-2.694960
32
0.000000
13
2.096080
23
-2.694960
33
0.000000
0
SOLID
8
0
10
1.605691
20
-2.110536
30
0.000000
11
1.913588
21
-1.802639
31
0.000000
12
2.096080
22
-2.694960
32
0.000000
13
2.977014
23
-2.694960
33
0.000000
0
SOLID
8
0
10
1.913588
20
-1.802639
30
0.000000
11
2.163341
21
-1.445954
31
0.000000
12
2.977014
22
-2.694960
32
0.000000
13
4.326683
23
-2.694960
33
0.000000
0
SOLID
8
0
10
2.163341
20
-1.445954
30
0.000000
11
2.347363
21
-1.051319
31
0.000000
12
4.326683
22
-2.694960
32
0.000000
13
3.895038
23
-1.614626
33
0.000000
0
SOLID
8
0
10
2.347363
20
-1.051319
30
0.000000
11
2.460061
21
-0.630724
31
0.000000
12
3.895038
22
-1.614626
32
0.000000
13
3.360415
23
-0.789480
33
0.000000
0
SOLID
8
0
10
2.460061
20
-0.630724
30
0.000000
11
2.498011
21
-0.196949
31
0.000000
12
3.360415
22
-0.789480
32
0.000000
13
2.976506
23
-0.196949
33
0.000000
0
ENDBLK
8
0
0
BLOCK
8
0
2
BCN_OCP
70
0
10
0.000000
20
0.000000
30
0.000000
3
BCN_OCP
1

0
POINT
8
0
10
0.000000
20
0.000000
30
0.000000
0
SOLID
8
0
10
2.498011
20
0.196949
30
0.000000
11
2.460061
21
0.630724
31
0.000000
12
2.976506
22
0.196949
32
0.000000
13
3.360415
23
0.789480
33
0.000000
0
SOLID
8
0
10
2.460061
20
0.630724
30
0.000000
11
2.347363
21
1.051319
31
0.000000
12
3.360415
22
0.789480
32
0.000000
13
3.895038
23
1.614626
33
0.000000
0
SOLID
8
0
10
2.347363
20
1.051319
30
0.000000
11
2.163341
21
1.445954
31
0.000000
12
3.895038
22
1.614626
32
0.000000
13
4.326683
23
2.694960
33
0.000000
0
SOLID
8
0
10
2.163341
20
1.445954
30
0.000000
11
1.913588
21
1.802639
31
0.000000
12
4.326683
22
2.694960
32
0.000000
13
2.977014
23
2.694960
33
0.000000
0
SOLID
8
0
10
1.913588
20
1.802639
30
0.000000
11
1.605691
21
2.110536
31
0.000000
12
2.977014
22
2.694960
32
0.000000
13
2.096080
23
2.694960
33
0.000000
0
SOLID
8
0
10
1.605691
20
2.110536
30
0.000000
11
1.249006
21
2.360290
31
0.000000
12
2.096080
22
2.694960
32
0.000000
13
1.442228
23
2.694960
33
0.000000
0
SOLID
8
0
10
1.249006
20
2.360290
30
0.000000
11
0.854370
21
2.544311
31
0.000000
12
1.442228
22
2.694960
32
0.000000
13
0.909202
23
2.694960
33
0.000000
0
SOLID
8
0
10
0.854370
20
2.544311
30
0.000000
11
0.433775
21
2.657010
31
0.000000
12
0.909202
22
2.694960
32
0.000000
13
0.440467
23
2.694960
33
0.000000
0
SOLID
8
0
10
0.433775
20
2.657010
30
0.000000
11
0.000000
21
2.694960
31
0.000000
12
0.440467
22
2.694960
32
0.000000
13
0.000000
23
2.694960
33
0.000000
0
SOLID
8
0
10
0.000000
20
2.694960
30
0.000000
11
-0.433775
21
2.657010
31
0.000000
12
0.000000
22
2.694960
32
0.000000
13
-0.440467
23
2.694960
33
0.000000
0
SOLID
8
0
10
-0.433775
20
2.657010
30
0.000000
11
-0.854370
21
2.544311
31
0.000000
12
-0.440467
22
2.694960
32
0.000000
13
-0.909202
23
2.694960
33
0.000000
0
SOLID
8
0
10
-0.854370
20
2.544311
30
0.000000
11
-1.249006
21
2.360290
31
0.000000
12
-0.909202
22
2.694960
32
0.000000
13
-1.442228
23
2.694960
33
0.000000
0
SOLID
8
0
10
-1.249006
20
2.360290
30
0.000000
11
-1.605691
21
2.110536
31
0.000000
12
-1.442228
22
2.694960
32
0.000000
13
-2.096080
23
2.694960
33
0.000000
0
SOLID
8
0
10
-1.605691
20
2.110536
30
0.000000
11
-1.913588
21
1.802639
31
0.000000
12
-2.096080
22
2.694960
32
0.000000
13
-2.977014
23
2.694960
33
0.000000
0
SOLID
8
0
10
-1.913588
20
1.802639
30
0.000000
11
-2.163341
21
1.445954
31
0.000000
12
-2.977014
22
2.694960
32
0.000000
13
-4.326683
23
2.694960
33
0.000000
0
SOLID
8
0
10
-2.163341
20
1.445954
30
0.000000
11
-2.347363
21
1.051319
31
0.000000
12
-4.326683
22
2.694960
32
0.000000
13
-3.895038
23
1.614626
33
0.000000
0
SOLID
8
0
10
-2.347363
20
1.051319
30
0.000000
11
-2.460061
21
0.630724
31
0.000000
12
-3.895038
22
1.614626
32
0.000000
13
-3.360415
23
0.789480
33
0.000000
0
SOLID
8
0
10
-2.460061
20
0.630724
30
0.000000
11
-2.498011
21
0.196949
31
0.000000
12
-3.360415
22
0.789480
32
0.000000
13
-2.976506
23
0.196949
33
0.000000
0
SOLID
8
0
10
-2.498011
20
0.196949
30
0.000000
11
-2.460061
21
-0.236827
31
0.000000
12
-2.976506
22
0.196949
32
0.000000
13
-2.671322
23
-0.274078
33
0.000000
0
SOLID
8
0
10
-2.460061
20
-0.236827
30
0.000000
11
-2.347363
21
-0.657422
31
0.000000
12
-2.671322
22
-0.274078
32
0.000000
13
-2.408525
23
-0.679683
33
0.000000
0
SOLID
8
0
10
-2.347363
20
-0.657422
30
0.000000
11
-2.163341
21
-1.052057
31
0.000000
12
-2.408525
22
-0.679683
32
0.000000
13
-2.166192
23
-1.053703
33
0.000000
0
SOLID
8
0
10
-2.163341
20
-1.052057
30
0.000000
11
-1.913588
21
-1.408742
31
0.000000
12
-2.166192
22
-1.053703
32
0.000000
13
-1.928209
23
-1.421011
33
0.000000
0
SOLID
8
0
10
-1.913588
20
-1.408742
30
0.000000
11
-1.605691
21
-1.716639
31
0.000000
12
-1.928209
22
-1.421011
32
0.000000
13
-1.679599
23
-1.804719
33
0.000000
0
SOLID
8
0
10
-1.605691
20
-1.716639
30
0.000000
11
-1.249006
21
-1.966393
31
0.000000
12
-1.679599
22
-1.804719
32
0.000000
13
-1.402544
23
-2.232330
33
0.000000
0
SOLID
8
0
10
-1.249006
20
-1.966393
30
0.000000
11
-0.854370
21
-2.150414
31
0.000000
12
-1.402544
22
-2.232330
32
0.000000
13
-1.070637
23
-2.744601
33
0.000000
0
SOLID
8
0
10
-0.854370
20
-2.150414
30
0.000000
11
-0.433775
21
-2.263112
31
0.000000
12
-1.070637
22
-2.744601
32
0.000000
13
-0.636754
23
-3.414263
33
0.000000
0
SOLID
8
0
10
-0.433775
20
-2.263112
30
0.000000
11
0.000000
21
-2.301063
31
0.000000
12
-0.636754
22
-3.414263
32
0.000000
13
0.000000
23
-4.397040
33
0.000000
0
SOLID
8
0
10
0.000000
20
-2.301063
30
0.000000
11
0.433775
21
-2.263112
31
0.000000
12
0.000000
22
-4.397040
32
0.000000
13
0.636754
23
-3.414263
33
0.000000
0
SOLID
8
0
10
0.433775
20
-2.263112
30
0.000000
11
0.854370
21
-2.150414
31
0.000000
12
0.636754
22
-3.414263
32
0.000000
13
1.070637
23
-2.744601
33
0.000000
0
SOLID
8
0
10
0.854370
20
-2.150414
30
0.000000
11
1.249006
21
-1.966393
31
0.000000
12
1.070637
22
-2.744601
32
0.000000
13
1.402544
23
-2.232330
33
0.000000
0
SOLID
8
0
10
1.249006
20
-1.966393
30
0.000000
11
1.605691
21
-1.716639
31
0.000000
12
1.402544
22
-2.232330
32
0.000000
13
1.679599
23
-1.804719
33
0.000000
0
SOLID
8
0
10
1.605691
20
-1.716639
30
0.000000
11
1.913588
21
-1.408742
31
0.000000
12
1.679599
22
-1.804719
32
0.000000
13
1.928209
23
-1.421011
33
0.000000
0
SOLID
8
0
10
1.913588
20
-1.408742
30
0.000000
11
2.163341
21
-1.052057
31
0.000000
12
1.928209
22
-1.421011
32
0.000000
13
2.166192
23
-1.053703
33
0.000000
0
SOLID
8
0
10
2.163341
20
-1.052057
30
0.000000
11
2.347363
21
-0.657422
31
0.000000
12
2.166192
22
-1.053703
32
0.000000
13
2.408525
23
-0.679683
33
0.000000
0
SOLID
8
0
10
2.347363
20
-0.657422
30
0.000000
11
2.460061
21
-0.236827
31
0.000000
12
2.408525
22
-0.679683
32
0.000000
13
2.671322
23
-0.274078
33
0.000000
0
SOLID
8
0
10
2.460061
20
-0.236827
30
0.000000
11
2.498011
21
0.196949
31
0.000000
12
2.671322
22
-0.274078
32
0.000000
13
2.976506
23
0.196949
33
0.000000
0
ENDBLK
8
0
0
ENDSEC
0
SECTION
2
ENTITIES
0
POLYLINE
8
SHEET-BORDER
66
1
70
1
10
0.000000
20
0.000000
30
0.000000
0
VERTEX
8
SHEET-BORDER
10
85567.715000
20
-2143891.485000
30
0.000000
0
VERTEX
8
SHEET-BORDER
10
86159.715000
20
-2143891.485000
30
0.000000
0
VERTEX
8
SHEET-BORDER
10
86159.715000
20
-2144309.485000
30
0.000000
0
VERTEX
8
SHEET-BORDER
10
85567.715000
20
-2144309.485000
30
0.000000
0
SEQEND
8
SHEET-BORDER
0
LINE
8
BOUNDARY-NEW
10
85675.676675
20
-2144025.313969
30
0.000000
11
85726.243952
21
-2143974.765120
31
0.000000
0
LINE
8
BOUNDARY-NEW
10
85730.989388
20
-2143975.070034
30
0.000000
11
85739.300612
21
-2143985.839966
31
0.000000
0
LINE
8
BOUNDARY-NEW
10
85743.798726
20
-2143991.460534
30
0.000000
11
85763.534940
21
-2144015.247557
31
0.000000
0
LINE
8
BOUNDARY-NEW
10
85763.214213
20
-2144018.773048
30
0.000000
11
85712.035787
21
-2144061.596952
31
0.000000
0
LINE
8
BOUNDARY-NEW
10
85708.351451
20
-2144061.435846
30
0.000000
11
85675.678549
21
-2144028.844154
31
0.000000
0
TEXT
8
PARCEL-TEXT
7
ARIAL
10
85719.722453
20
-2144022.303667
30
0.000000
40
6.140000
1
405
50
0.000000
41
1.000000
72
1
11
85719.722453
21
-2144022.303667
31
0.000000
0
LINE
8
BOUNDARY-NEW
10
85635.679348
20
-2144065.498195
30
0.000000
11
85672.147974
21
-2144028.850669
31
0.000000
0
LINE
8
BOUNDARY-NEW
10
85675.678549
20
-2144028.844154
30
0.000000
11
85708.351451
21
-2144061.435846
31
0.000000
0
LINE
8
BOUNDARY-NEW
10
85711.889013
20
-2144064.963689
30
0.000000
11
85721.640987
21
-2144074.686311
31
0.000000
0
LINE
8
BOUNDARY-NEW
10
85721.645592
20
-2144078.218295
30
0.000000
11
85684.314408
21
-2144115.631705
31
0.000000
0
LINE
8
BOUNDARY-NEW
10
85680.782574
20
-2144115.634721
30
0.000000
11
85635.687130
21
-2144070.594037
31
0.000000
0
TEXT
8
PARCEL-TEXT
7
ARIAL
10
85678.258973
20
-2144075.313123
30
0.000000
40
6.140000
1
404
50
0.000000
41
1.000000
72
1
11
85678.258973
21
-2144075.313123
31
0.000000
0
LINE
8
BOUNDARY-NEW
10
85684.314408
20
-2144115.631705
30
0.000000
11
85721.645592
21
-2144078.218295
31
0.000000
0
LINE
8
BOUNDARY-NEW
10
85725.305074
20
-2144078.077482
30
0.000000
11
85772.504926
21
-2144118.612518
31
0.000000
0
LINE
8
BOUNDARY-NEW
10
85772.634640
20
-2144122.007345
30
0.000000
11
85731.705360
21
-2144162.982655
31
0.000000
0
LINE
8
BOUNDARY-NEW
10
85728.172902
20
-2144162.984393
30
0.000000
11
85684.317098
21
-2144119.165607
31
0.000000
0
TEXT
8
PARCEL-TEXT
7
ARIAL
10
85727.920411
20
-2144123.098043
30
0.000000
40
6.140000
1
403
50
0.000000
41
1.000000
72
1
11
85727.920411
21
-2144123.098043
31
0.000000
0
LINE
8
BOUNDARY-NEW
10
85712.035787
20
-2144061.596952
30
0.000000
11
85763.214213
21
-2144018.773048
31
0.000000
0
LINE
8
BOUNDARY-NEW
10
85766.725375
20
-2144019.092182
30
0.000000
11
85807.400821
21
-2144068.099842
31
0.000000
0
LINE
8
BOUNDARY-NEW
10
85812.101420
20
-2144073.552011
30
0.000000
11
85814.623681
21
-2144076.368983
31
0.000000
0
LINE
8
BOUNDARY-NEW
10
85814.526175
20
-2144079.998877
30
0.000000
11
85776.163825
21
-2144118.471123
31
0.000000
0
LINE
8
BOUNDARY-NEW
10
85772.504926
20
-2144118.612518
30
0.000000
11
85725.305074
21
-2144078.077482
31
0.000000
0
LINE
8
BOUNDARY-NEW
10
85721.640987
20
-2144074.686311
30
0.000000
11
85711.889013
21
-2144064.963689
31
0.000000
0
TEXT
8
PARCEL-TEXT
7
ARIAL
10
85764.974358
20
-2144072.306751
30
0.000000
40
6.140000
1
Rem./
50
0.000000
41
1.000000
72
1
11
85764.974358
21
-2144072.306751
31
0.000000
0
LINE
8
BOUNDARY-EXIST
10
85766.734295
20
-2144019.084743
30
0.000000
11
85814.685705
21
-2144076.315257
31
0.000000
0
LINE
8
BOUNDARY-EXIST
10
85817.894295
20
-2144080.144743
30
0.000000
11
85836.841418
21
-2144102.758335
31
0.000000
0
LINE
8
BOUNDARY-EXIST
10
85814.526175
20
-2144079.998877
30
0.000000
11
85776.163825
21
-2144118.471123
31
0.000000
0
LINE
8
BOUNDARY-EXIST
10
85739.300612
20
-2143985.839966
30
0.000000
11
85730.989388
21
-2143975.070034
31
0.000000
0
LINE
8
BOUNDARY-EXIST
10
85726.590612
20
-2143969.369966
30
0.000000
11
85714.127411
21
-2143953.219777
31
0.000000
0
LINE
8
BOUNDARY-EXIST
10
85728.172735
20
-2144162.984560
30
0.000000
11
85635.686900
21
-2144070.594269
31
0.000000
0
LINE
8
BOUNDARY-EXIST
10
85630.593100
20
-2144065.505731
30
0.000000
11
85610.500892
21
-2144045.434280
31
0.000000
0
LINE
8
BOUNDARY-EXIST
10
85635.686900
20
-2144070.594269
30
0.000000
11
85728.172735
21
-2144162.984560
31
0.000000
0
LINE
8
BOUNDARY-EXIST
10
85731.707265
20
-2144166.515440
30
0.000000
11
85752.579108
21
-2144187.365720
31
0.000000
0
TEXT
8
ROAD-TEXT
7
ARIAL
10
85775.840308
20
-2144000.368533
30
0.000000
40
4.100000
1
Main Road
50
-50.041557
41
1.200000
72
0
0
TEXT
8
ROAD-TEXT
7
ARIAL
10
85632.608227
20
-2144133.669793
30
0.000000
40
4.100000
1
Klein Road 25.19 m
50
-44.970390
41
1.200000
72
0
0
TEXT
8
PARCEL-TEXT
7
ARIAL
10
85662.000000
20
-2144004.200000
30
0.000000
40
4.100000
1
86
50
0.000000
41
1.000000
72
1
11
85662.000000
21
-2144004.200000
31
0.000000
0
TEXT
8
PARCEL-TEXT
7
ARIAL
10
85796.200000
20
-2144138.100000
30
0.000000
40
4.100000
1
88
50
0.000000
41
1.000000
72
1
11
85796.200000
21
-2144138.100000
31
0.000000
0
INSERT
8
BEACONS
2
BCN_RM
10
85728.790000
20
-2143972.220000
30
0.000000
41
1.000000
42
1.000000
43
1.000000
50
0.000000
0
TEXT
8
BEACON-TEXT
7
ARIAL
10
85734.385000
20
-2143974.270000
30
0.000000
40
4.100000
1
86B
50
0.000000
41
1.000000
72
0
0
INSERT
8
BEACONS
2
BCN_RM
10
85741.500000
20
-2143988.690000
30
0.000000
41
1.000000
42
1.000000
43
1.000000
50
0.000000
0
TEXT
8
BEACON-TEXT
7
ARIAL
10
85747.095000
20
-2143990.740000
30
0.000000
40
4.100000
1
87B
50
0.000000
41
1.000000
72
0
0
INSERT
8
BEACONS
2
BCN_RM
10
85764.700000
20
-2144004.380000
30
0.000000
41
1.000000
42
1.000000
43
1.000000
50
0.000000
0
TEXT
8
BEACON-TEXT
7
ARIAL
10
85764.700000
20
-2143997.985000
30
0.000000
40
4.100000
1
CHK
50
0.000000
41
1.000000
72
1
11
85764.700000
21
-2143997.985000
31
0.000000
0
INSERT
8
BEACONS
2
BCN_PLACED
10
85765.130000
20
-2144017.170000
30
0.000000
41
1.000000
42
1.000000
43
1.000000
50
0.000000
0
TEXT
8
BEACON-TEXT
7
ARIAL
10
85765.130000
20
-2144027.265000
30
0.000000
40
4.100000
1
SD1
50
0.000000
41
1.000000
72
1
11
85765.130000
21
-2144027.265000
31
0.000000
0
INSERT
8
BEACONS
2
BCN_PLACED
10
85673.910000
20
-2144027.080000
30
0.000000
41
1.000000
42
1.000000
43
1.000000
50
0.000000
0
TEXT
8
BEACON-TEXT
7
ARIAL
10
85673.910000
20
-2144020.685000
30
0.000000
40
4.100000
1
SD4
50
0.000000
41
1.000000
72
1
11
85673.910000
21
-2144020.685000
31
0.000000
0
INSERT
8
BEACONS
2
BCN_RM
10
85778.600000
20
-2144038.340000
30
0.000000
41
1.000000
42
1.000000
43
1.000000
50
0.000000
0
TEXT
8
BEACON-TEXT
7
ARIAL
10
85773.005000
20
-2144040.390000
30
0.000000
40
4.100000
1
BASE
50
0.000000
41
1.000000
72
2
11
85773.005000
21
-2144040.390000
31
0.000000
0
INSERT
8
BEACONS
2
BCN_PLACED
10
85710.120000
20
-2144063.200000
30
0.000000
41
1.000000
42
1.000000
43
1.000000
50
0.000000
0
TEXT
8
BEACON-TEXT
7
ARIAL
10
85704.525000
20
-2144065.250000
30
0.000000
40
4.100000
1
SD5
50
0.000000
41
1.000000
72
2
11
85704.525000
21
-2144065.250000
31
0.000000
0
INSERT
8
BEACONS
2
BCN_RM
10
85633.140000
20
-2144068.050000
30
0.000000
41
1.000000
42
1.000000
43
1.000000
50
0.000000
0
TEXT
8
BEACON-TEXT
7
ARIAL
10
85627.545000
20
-2144070.100000
30
0.000000
40
4.100000
1
86C
50
0.000000
41
1.000000
72
2
11
85627.545000
21
-2144070.100000
31
0.000000
0
INSERT
8
BEACONS
2
BCN_RM
10
85809.700000
20
-2144070.870000
30
0.000000
41
1.000000
42
1.000000
43
1.000000
50
0.000000
0
TEXT
8
BEACON-TEXT
7
ARIAL
10
85815.295000
20
-2144072.920000
30
0.000000
40
4.100000
1
87A
50
0.000000
41
1.000000
72
0
0
INSERT
8
BEACONS
2
BCN_PLACED
10
85723.410000
20
-2144076.450000
30
0.000000
41
1.000000
42
1.000000
43
1.000000
50
0.000000
0
TEXT
8
BEACON-TEXT
7
ARIAL
10
85729.005000
20
-2144078.500000
30
0.000000
40
4.100000
1
SD6
50
0.000000
41
1.000000
72
0
0
INSERT
8
BEACONS
2
BCN_PLACED
10
85816.290000
20
-2144078.230000
30
0.000000
41
1.000000
42
1.000000
43
1.000000
50
0.000000
0
TEXT
8
BEACON-TEXT
7
ARIAL
10
85821.885000
20
-2144080.280000
30
0.000000
40
4.100000
1
87CR
50
0.000000
41
1.000000
72
0
0
INSERT
8
BEACONS
2
BCN_RM
10
85623.810000
20
-2144100.660000
30
0.000000
41
1.000000
42
1.000000
43
1.000000
50
0.000000
0
TEXT
8
BEACON-TEXT
7
ARIAL
10
85618.215000
20
-2144102.710000
30
0.000000
40
4.100000
1
RM16
50
0.000000
41
1.000000
72
2
11
85618.215000
21
-2144102.710000
31
0.000000
0
INSERT
8
BEACONS
2
BCN_PLACED
10
85682.550000
20
-2144117.400000
30
0.000000
41
1.000000
42
1.000000
43
1.000000
50
0.000000
0
TEXT
8
BEACON-TEXT
7
ARIAL
10
85688.145000
20
-2144119.450000
30
0.000000
40
4.100000
1
SD3
50
0.000000
41
1.000000
72
0
0
INSERT
8
BEACONS
2
BCN_PLACED
10
85774.400000
20
-2144120.240000
30
0.000000
41
1.000000
42
1.000000
43
1.000000
50
0.000000
0
TEXT
8
BEACON-TEXT
7
ARIAL
10
85777.197500
20
-2144129.375500
30
0.000000
40
4.100000
1
SD2
50
0.000000
41
1.000000
72
0
0
INSERT
8
BEACONS
2
BCN_RM
10
85643.500000
20
-2144120.410000
30
0.000000
41
1.000000
42
1.000000
43
1.000000
50
0.000000
0
TEXT
8
BEACON-TEXT
7
ARIAL
10
85640.702500
20
-2144129.545500
30
0.000000
40
4.100000
1
RM15
50
0.000000
41
1.000000
72
2
11
85640.702500
21
-2144129.545500
31
0.000000
0
INSERT
8
BEACONS
2
BCN_PLACED
10
85729.940000
20
-2144164.750000
30
0.000000
41
1.000000
42
1.000000
43
1.000000
50
0.000000
0
TEXT
8
BEACON-TEXT
7
ARIAL
10
85727.142500
20
-2144173.885500
30
0.000000
40
4.100000
1
87DR
50
0.000000
41
1.000000
72
2
11
85727.142500
21
-2144173.885500
31
0.000000
0
INSERT
8
BEACONS
2
BCN_RM
10
85828.080000
20
-2144262.680000
30
0.000000
41
1.000000
42
1.000000
43
1.000000
50
0.000000
0
TEXT
8
BEACON-TEXT
7
ARIAL
10
85828.080000
20
-2144256.285000
30
0.000000
40
4.100000
1
88X2
50
0.000000
41
1.000000
72
1
11
85828.080000
21
-2144256.285000
31
0.000000
0
LINE
8
GRID
10
85591.992000
20
-2144200.000000
30
0.000000
11
85608.008000
21
-2144200.000000
31
0.000000
0
LINE
8
GRID
10
85600.000000
20
-2144208.008000
30
0.000000
11
85600.000000
21
-2144191.992000
31
0.000000
0
TEXT
8
GRID-TEXT
7
ARIAL
10
85608.900000
20
-2144202.120000
30
0.000000
40
4.100000
1
X = +2144200
50
0.000000
41
1.000000
72
0
0
TEXT
8
GRID-TEXT
7
ARIAL
10
85597.960000
20
-2144210.760000
30
0.000000
40
4.100000
1
Y = -85600
50
-90.000000
41
1.000000
72
0
0
LINE
8
GRID
10
85591.992000
20
-2144000.000000
30
0.000000
11
85608.008000
21
-2144000.000000
31
0.000000
0
LINE
8
GRID
10
85600.000000
20
-2144008.008000
30
0.000000
11
85600.000000
21
-2143991.992000
31
0.000000
0
TEXT
8
GRID-TEXT
7
ARIAL
10
85608.900000
20
-2144002.120000
30
0.000000
40
4.100000
1
X = +2144000
50
0.000000
41
1.000000
72
0
0
TEXT
8
GRID-TEXT
7
ARIAL
10
85597.960000
20
-2144010.760000
30
0.000000
40
4.100000
1
Y = -85600
50
-90.000000
41
1.000000
72
0
0
LINE
8
GRID
10
85691.992000
20
-2144200.000000
30
0.000000
11
85708.008000
21
-2144200.000000
31
0.000000
0
LINE
8
GRID
10
85700.000000
20
-2144208.008000
30
0.000000
11
85700.000000
21
-2144191.992000
31
0.000000
0
TEXT
8
GRID-TEXT
7
ARIAL
10
85708.900000
20
-2144202.120000
30
0.000000
40
4.100000
1
X = +2144200
50
0.000000
41
1.000000
72
0
0
TEXT
8
GRID-TEXT
7
ARIAL
10
85697.960000
20
-2144210.760000
30
0.000000
40
4.100000
1
Y = -85700
50
-90.000000
41
1.000000
72
0
0
LINE
8
GRID
10
85791.992000
20
-2144200.000000
30
0.000000
11
85808.008000
21
-2144200.000000
31
0.000000
0
LINE
8
GRID
10
85800.000000
20
-2144208.008000
30
0.000000
11
85800.000000
21
-2144191.992000
31
0.000000
0
TEXT
8
GRID-TEXT
7
ARIAL
10
85808.900000
20
-2144202.120000
30
0.000000
40
4.100000
1
X = +2144200
50
0.000000
41
1.000000
72
0
0
TEXT
8
GRID-TEXT
7
ARIAL
10
85797.960000
20
-2144210.760000
30
0.000000
40
4.100000
1
Y = -85800
50
-90.000000
41
1.000000
72
0
0
TEXT
8
TITLE
7
ARIAL-BOLD
10
85918.575000
20
-2143918.885000
30
0.000000
40
9.875000
1
Survey of
50
0.000000
41
1.000000
72
1
11
85918.575000
21
-2143918.885000
31
0.000000
0
TEXT
8
TITLE
7
ARIAL-BOLD
10
85918.575000
20
-2143943.085000
30
0.000000
40
7.900000
1
Stands 403-405 Brackenhurst Township
50
0.000000
41
1.000000
72
1
11
85918.575000
21
-2143943.085000
31
0.000000
0
TEXT
8
TITLE
7
ARIAL-BOLD
10
85918.575000
20
-2143966.885000
30
0.000000
40
7.900000
1
of Stand 87 Brackenhurst Township
50
0.000000
41
1.000000
72
1
11
85918.575000
21
-2143966.885000
31
0.000000
0
TEXT
8
TITLE
7
ARIAL-BOLD
10
85918.575000
20
-2143990.885000
30
0.000000
40
7.900000
1
Gwelo District
50
0.000000
41
1.000000
72
1
11
85918.575000
21
-2143990.885000
31
0.000000
0
TEXT
8
TITLE
7
ARIAL
10
85918.575000
20
-2144010.685000
30
0.000000
40
6.060000
1
Scale 1:2000
50
0.000000
41
1.000000
72
1
11
85918.575000
21
-2144010.685000
31
0.000000
0
POLYLINE
8
NORTH-ARROW
66
1
70
0
10
0.000000
20
0.000000
30
0.000000
0
VERTEX
8
NORTH-ARROW
10
86115.875000
20
-2143941.805000
30
0.000000
0
VERTEX
8
NORTH-ARROW
10
86118.495000
20
-2143904.605000
30
0.000000
0
VERTEX
8
NORTH-ARROW
10
86121.115000
20
-2143941.805000
30
0.000000
0
SEQEND
8
NORTH-ARROW
0
POLYLINE
8
NORTH-ARROW
66
1
70
0
10
0.000000
20
0.000000
30
0.000000
0
VERTEX
8
NORTH-ARROW
10
86121.115000
20
-2143941.805000
30
0.000000
0
VERTEX
8
NORTH-ARROW
10
86118.495000
20
-2144021.205000
30
0.000000
0
VERTEX
8
NORTH-ARROW
10
86115.875000
20
-2143941.805000
30
0.000000
0
SEQEND
8
NORTH-ARROW
0
POLYLINE
8
NORTH-ARROW
66
1
70
0
10
0.000000
20
0.000000
30
0.000000
0
VERTEX
8
NORTH-ARROW
10
86118.495000
20
-2143939.185000
30
0.000000
0
VERTEX
8
NORTH-ARROW
10
86134.495000
20
-2143941.805000
30
0.000000
0
VERTEX
8
NORTH-ARROW
10
86118.495000
20
-2143944.425000
30
0.000000
0
SEQEND
8
NORTH-ARROW
0
POLYLINE
8
NORTH-ARROW
66
1
70
0
10
0.000000
20
0.000000
30
0.000000
0
VERTEX
8
NORTH-ARROW
10
86118.495000
20
-2143944.425000
30
0.000000
0
VERTEX
8
NORTH-ARROW
10
86102.495000
20
-2143941.805000
30
0.000000
0
VERTEX
8
NORTH-ARROW
10
86118.495000
20
-2143939.185000
30
0.000000
0
SEQEND
8
NORTH-ARROW
0
POLYLINE
8
NORTH-ARROW
66
1
70
0
10
0.000000
20
0.000000
30
0.000000
0
VERTEX
8
NORTH-ARROW
10
86116.642380
20
-2143939.952380
30
0.000000
0
VERTEX
8
NORTH-ARROW
10
86125.566068
20
-2143934.733932
30
0.000000
0
VERTEX
8
NORTH-ARROW
10
86120.347620
20
-2143943.657620
30
0.000000
0
SEQEND
8
NORTH-ARROW
0
POLYLINE
8
NORTH-ARROW
66
1
70
0
10
0.000000
20
0.000000
30
0.000000
0
VERTEX
8
NORTH-ARROW
10
86116.642380
20
-2143943.657620
30
0.000000
0
VERTEX
8
NORTH-ARROW
10
86111.423932
20
-2143934.733932
30
0.000000
0
VERTEX
8
NORTH-ARROW
10
86120.347620
20
-2143939.952380
30
0.000000
0
SEQEND
8
NORTH-ARROW
0
POLYLINE
8
NORTH-ARROW
66
1
70
0
10
0.000000
20
0.000000
30
0.000000
0
VERTEX
8
NORTH-ARROW
10
86120.347620
20
-2143943.657620
30
0.000000
0
VERTEX
8
NORTH-ARROW
10
86111.423932
20
-2143948.876068
30
0.000000
0
VERTEX
8
NORTH-ARROW
10
86116.642380
20
-2143939.952380
30
0.000000
0
SEQEND
8
NORTH-ARROW
0
POLYLINE
8
NORTH-ARROW
66
1
70
0
10
0.000000
20
0.000000
30
0.000000
0
VERTEX
8
NORTH-ARROW
10
86120.347620
20
-2143939.952380
30
0.000000
0
VERTEX
8
NORTH-ARROW
10
86125.566068
20
-2143948.876068
30
0.000000
0
VERTEX
8
NORTH-ARROW
10
86116.642380
20
-2143943.657620
30
0.000000
0
SEQEND
8
NORTH-ARROW
0
TEXT
8
NORTH-ARROW
7
ARIAL
10
86110.495000
20
-2143907.585000
30
0.000000
40
4.240000
1
T
50
0.000000
41
1.000000
72
0
0
TEXT
8
NORTH-ARROW
7
ARIAL
10
86120.895000
20
-2143907.585000
30
0.000000
40
4.240000
1
N
50
0.000000
41
1.000000
72
0
0
POLYLINE
8
APPROVAL
66
1
70
1
10
0.000000
20
0.000000
30
0.000000
0
VERTEX
8
APPROVAL
10
86022.975000
20
-2144038.145000
30
0.000000
0
VERTEX
8
APPROVAL
10
86150.495000
20
-2144038.145000
30
0.000000
0
VERTEX
8
APPROVAL
10
86150.495000
20
-2144105.205000
30
0.000000
0
VERTEX
8
APPROVAL
10
86022.975000
20
-2144105.205000
30
0.000000
0
SEQEND
8
APPROVAL
0
TEXT
8
APPROVAL
7
SERIF
10
86086.735000
20
-2144048.005000
30
0.000000
40
6.120000
1
Approved
50
0.000000
41
1.000000
72
1
11
86086.735000
21
-2144048.005000
31
0.000000
0
LINE
8
APPROVAL
6
PLANDOT
10
86042.915000
20
-2144072.045000
30
0.000000
11
86129.515000
21
-2144072.045000
31
0.000000
0
TEXT
8
APPROVAL
7
SERIF
10
86086.735000
20
-2144081.685000
30
0.000000
40
6.120000
1
for Surveyor General
50
0.000000
41
1.000000
72
1
11
86086.735000
21
-2144081.685000
31
0.000000
0
TEXT
8
APPROVAL
7
SERIF
10
86044.315000
20
-2144099.185000
30
0.000000
40
6.120000
1
Date:
50
0.000000
41
1.000000
72
0
0
LINE
8
APPROVAL
6
PLANDOT
10
86066.115000
20
-2144098.705000
30
0.000000
11
86121.715000
21
-2144098.705000
31
0.000000
0
TEXT
8
TITLE
7
ARIAL-BOLD
10
85577.715000
20
-2144252.645000
30
0.000000
40
5.980000
1
Surveyed in July 2026 by me,
50
0.000000
41
1.000000
72
0
0
TEXT
8
TITLE
7
ARIAL-BOLD
10
85606.595000
20
-2144288.645000
30
0.000000
40
5.980000
1
Land Surveyor
50
0.000000
41
1.000000
72
0
0
POLYLINE
8
INSET
66
1
70
1
10
0.000000
20
0.000000
30
0.000000
0
VERTEX
8
INSET
10
85892.515000
20
-2144109.865000
30
0.000000
0
VERTEX
8
INSET
10
86150.655000
20
-2144109.865000
30
0.000000
0
VERTEX
8
INSET
10
86150.655000
20
-2144282.745000
30
0.000000
0
VERTEX
8
INSET
10
85892.515000
20
-2144282.745000
30
0.000000
0
SEQEND
8
INSET
0
TEXT
8
INSET
7
ARIAL-BOLD
10
85902.515000
20
-2144121.865000
30
0.000000
40
6.000000
1
Inset (not to scale)
50
0.000000
41
1.000000
72
0
0
SOLID
8
INSET
10
86050.940008
20
-2144124.089032
30
0.000000
11
86050.882081
21
-2144123.649038
31
0.000000
12
86051.265644
22
-2144124.089032
32
0.000000
13
86050.965998
23
-2144123.626553
33
0.000000
0
SOLID
8
INSET
10
86050.882081
20
-2144123.649038
30
0.000000
11
86050.712250
21
-2144123.239028
31
0.000000
12
86050.965998
22
-2144123.626553
32
0.000000
13
86050.714190
23
-2144123.237908
33
0.000000
0
SOLID
8
INSET
10
86050.712250
20
-2144123.239028
30
0.000000
11
86050.442087
21
-2144122.886945
31
0.000000
12
86050.714190
22
-2144123.237908
32
0.000000
13
86050.469218
23
-2144122.859814
33
0.000000
0
SOLID
8
INSET
10
86050.442087
20
-2144122.886945
30
0.000000
11
86050.090004
21
-2144122.616782
31
0.000000
12
86050.469218
22
-2144122.859814
32
0.000000
13
86050.194494
23
-2144122.435801
33
0.000000
0
SOLID
8
INSET
10
86050.090004
20
-2144122.616782
30
0.000000
11
86049.679994
21
-2144122.446951
31
0.000000
12
86050.194494
22
-2144122.435801
32
0.000000
13
86049.832632
23
-2144121.877298
33
0.000000
0
SOLID
8
INSET
10
86049.679994
20
-2144122.446951
30
0.000000
11
86049.240000
21
-2144122.389024
31
0.000000
12
86049.832632
22
-2144121.877298
32
0.000000
13
86049.240000
23
-2144120.962619
33
0.000000
0
SOLID
8
INSET
10
86049.240000
20
-2144122.389024
30
0.000000
11
86048.800006
21
-2144122.446951
31
0.000000
12
86049.240000
22
-2144120.962619
32
0.000000
13
86048.647368
23
-2144121.877298
33
0.000000
0
SOLID
8
INSET
10
86048.800006
20
-2144122.446951
30
0.000000
11
86048.389996
21
-2144122.616782
31
0.000000
12
86048.647368
22
-2144121.877298
32
0.000000
13
86048.285506
23
-2144122.435801
33
0.000000
0
SOLID
8
INSET
10
86048.389996
20
-2144122.616782
30
0.000000
11
86048.037913
21
-2144122.886945
31
0.000000
12
86048.285506
22
-2144122.435801
32
0.000000
13
86048.010782
23
-2144122.859814
33
0.000000
0
SOLID
8
INSET
10
86048.037913
20
-2144122.886945
30
0.000000
11
86047.767750
21
-2144123.239028
31
0.000000
12
86048.010782
22
-2144122.859814
32
0.000000
13
86047.765810
23
-2144123.237908
33
0.000000
0
SOLID
8
INSET
10
86047.767750
20
-2144123.239028
30
0.000000
11
86047.597919
21
-2144123.649038
31
0.000000
12
86047.765810
22
-2144123.237908
32
0.000000
13
86047.514002
23
-2144123.626553
33
0.000000
0
SOLID
8
INSET
10
86047.597919
20
-2144123.649038
30
0.000000
11
86047.539992
21
-2144124.089032
31
0.000000
12
86047.514002
22
-2144123.626553
32
0.000000
13
86047.214356
23
-2144124.089032
33
0.000000
0
SOLID
8
INSET
10
86047.539992
20
-2144124.089032
30
0.000000
11
86047.597919
21
-2144124.529027
31
0.000000
12
86047.214356
22
-2144124.089032
32
0.000000
13
86046.788810
23
-2144124.745827
33
0.000000
0
SOLID
8
INSET
10
86047.597919
20
-2144124.529027
30
0.000000
11
86047.767750
21
-2144124.939036
31
0.000000
12
86046.788810
22
-2144124.745827
32
0.000000
13
86046.295500
23
-2144125.789040
33
0.000000
0
SOLID
8
INSET
10
86047.767750
20
-2144124.939036
30
0.000000
11
86048.037913
21
-2144125.291119
31
0.000000
12
86046.295500
22
-2144125.789040
32
0.000000
13
86047.539992
23
-2144125.789040
33
0.000000
0
SOLID
8
INSET
10
86048.037913
20
-2144125.291119
30
0.000000
11
86048.389996
21
-2144125.561282
31
0.000000
12
86047.539992
22
-2144125.789040
32
0.000000
13
86048.258500
23
-2144125.789040
33
0.000000
0
SOLID
8
INSET
10
86048.389996
20
-2144125.561282
30
0.000000
11
86048.800006
21
-2144125.731114
31
0.000000
12
86048.258500
22
-2144125.789040
32
0.000000
13
86048.784484
23
-2144125.789040
33
0.000000
0
SOLID
8
INSET
10
86048.800006
20
-2144125.731114
30
0.000000
11
86049.240000
21
-2144125.789040
31
0.000000
12
86048.784484
22
-2144125.789040
32
0.000000
13
86049.240000
23
-2144125.789040
33
0.000000
0
SOLID
8
INSET
10
86049.240000
20
-2144125.789040
30
0.000000
11
86049.679994
21
-2144125.731114
31
0.000000
12
86049.240000
22
-2144125.789040
32
0.000000
13
86049.695516
23
-2144125.789040
33
0.000000
0
SOLID
8
INSET
10
86049.679994
20
-2144125.731114
30
0.000000
11
86050.090004
21
-2144125.561282
31
0.000000
12
86049.695516
22
-2144125.789040
32
0.000000
13
86050.221500
23
-2144125.789040
33
0.000000
0
SOLID
8
INSET
10
86050.090004
20
-2144125.561282
30
0.000000
11
86050.442087
21
-2144125.291119
31
0.000000
12
86050.221500
22
-2144125.789040
32
0.000000
13
86050.940008
23
-2144125.789040
33
0.000000
0
SOLID
8
INSET
10
86050.442087
20
-2144125.291119
30
0.000000
11
86050.712250
21
-2144124.939036
31
0.000000
12
86050.940008
22
-2144125.789040
32
0.000000
13
86052.184500
23
-2144125.789040
33
0.000000
0
SOLID
8
INSET
10
86050.712250
20
-2144124.939036
30
0.000000
11
86050.882081
21
-2144124.529027
31
0.000000
12
86052.184500
22
-2144125.789040
32
0.000000
13
86051.691190
23
-2144124.745827
33
0.000000
0
SOLID
8
INSET
10
86050.882081
20
-2144124.529027
30
0.000000
11
86050.940008
21
-2144124.089032
31
0.000000
12
86051.691190
22
-2144124.745827
32
0.000000
13
86051.265644
23
-2144124.089032
33
0.000000
0
TEXT
8
INSET
7
ARIAL
10
86049.240000
20
-2144120.355000
30
0.000000
40
4.100000
1
170/T
50
0.000000
41
1.000000
72
1
11
86049.240000
21
-2144120.355000
31
0.000000
0
SOLID
8
INSET
10
85946.070008
20
-2144247.439032
30
0.000000
11
85946.012081
21
-2144246.999038
31
0.000000
12
85946.395644
22
-2144247.439032
32
0.000000
13
85946.095998
23
-2144246.976553
33
0.000000
0
SOLID
8
INSET
10
85946.012081
20
-2144246.999038
30
0.000000
11
85945.842250
21
-2144246.589028
31
0.000000
12
85946.095998
22
-2144246.976553
32
0.000000
13
85945.844190
23
-2144246.587908
33
0.000000
0
SOLID
8
INSET
10
85945.842250
20
-2144246.589028
30
0.000000
11
85945.572087
21
-2144246.236945
31
0.000000
12
85945.844190
22
-2144246.587908
32
0.000000
13
85945.599218
23
-2144246.209814
33
0.000000
0
SOLID
8
INSET
10
85945.572087
20
-2144246.236945
30
0.000000
11
85945.220004
21
-2144245.966782
31
0.000000
12
85945.599218
22
-2144246.209814
32
0.000000
13
85945.324494
23
-2144245.785801
33
0.000000
0
SOLID
8
INSET
10
85945.220004
20
-2144245.966782
30
0.000000
11
85944.809994
21
-2144245.796951
31
0.000000
12
85945.324494
22
-2144245.785801
32
0.000000
13
85944.962632
23
-2144245.227298
33
0.000000
0
SOLID
8
INSET
10
85944.809994
20
-2144245.796951
30
0.000000
11
85944.370000
21
-2144245.739024
31
0.000000
12
85944.962632
22
-2144245.227298
32
0.000000
13
85944.370000
23
-2144244.312619
33
0.000000
0
SOLID
8
INSET
10
85944.370000
20
-2144245.739024
30
0.000000
11
85943.930006
21
-2144245.796951
31
0.000000
12
85944.370000
22
-2144244.312619
32
0.000000
13
85943.777368
23
-2144245.227298
33
0.000000
0
SOLID
8
INSET
10
85943.930006
20
-2144245.796951
30
0.000000
11
85943.519996
21
-2144245.966782
31
0.000000
12
85943.777368
22
-2144245.227298
32
0.000000
13
85943.415506
23
-2144245.785801
33
0.000000
0
SOLID
8
INSET
10
85943.519996
20
-2144245.966782
30
0.000000
11
85943.167913
21
-2144246.236945
31
0.000000
12
85943.415506
22
-2144245.785801
32
0.000000
13
85943.140782
23
-2144246.209814
33
0.000000
0
SOLID
8
INSET
10
85943.167913
20
-2144246.236945
30
0.000000
11
85942.897750
21
-2144246.589028
31
0.000000
12
85943.140782
22
-2144246.209814
32
0.000000
13
85942.895810
23
-2144246.587908
33
0.000000
0
SOLID
8
INSET
10
85942.897750
20
-2144246.589028
30
0.000000
11
85942.727919
21
-2144246.999038
31
0.000000
12
85942.895810
22
-2144246.587908
32
0.000000
13
85942.644002
23
-2144246.976553
33
0.000000
0
SOLID
8
INSET
10
85942.727919
20
-2144246.999038
30
0.000000
11
85942.669992
21
-2144247.439032
31
0.000000
12
85942.644002
22
-2144246.976553
32
0.000000
13
85942.344356
23
-2144247.439032
33
0.000000
0
SOLID
8
INSET
10
85942.669992
20
-2144247.439032
30
0.000000
11
85942.727919
21
-2144247.879027
31
0.000000
12
85942.344356
22
-2144247.439032
32
0.000000
13
85941.918810
23
-2144248.095827
33
0.000000
0
SOLID
8
INSET
10
85942.727919
20
-2144247.879027
30
0.000000
11
85942.897750
21
-2144248.289036
31
0.000000
12
85941.918810
22
-2144248.095827
32
0.000000
13
85941.425500
23
-2144249.139040
33
0.000000
0
SOLID
8
INSET
10
85942.897750
20
-2144248.289036
30
0.000000
11
85943.167913
21
-2144248.641119
31
0.000000
12
85941.425500
22
-2144249.139040
32
0.000000
13
85942.669992
23
-2144249.139040
33
0.000000
0
SOLID
8
INSET
10
85943.167913
20
-2144248.641119
30
0.000000
11
85943.519996
21
-2144248.911282
31
0.000000
12
85942.669992
22
-2144249.139040
32
0.000000
13
85943.388500
23
-2144249.139040
33
0.000000
0
SOLID
8
INSET
10
85943.519996
20
-2144248.911282
30
0.000000
11
85943.930006
21
-2144249.081114
31
0.000000
12
85943.388500
22
-2144249.139040
32
0.000000
13
85943.914484
23
-2144249.139040
33
0.000000
0
SOLID
8
INSET
10
85943.930006
20
-2144249.081114
30
0.000000
11
85944.370000
21
-2144249.139040
31
0.000000
12
85943.914484
22
-2144249.139040
32
0.000000
13
85944.370000
23
-2144249.139040
33
0.000000
0
SOLID
8
INSET
10
85944.370000
20
-2144249.139040
30
0.000000
11
85944.809994
21
-2144249.081114
31
0.000000
12
85944.370000
22
-2144249.139040
32
0.000000
13
85944.825516
23
-2144249.139040
33
0.000000
0
SOLID
8
INSET
10
85944.809994
20
-2144249.081114
30
0.000000
11
85945.220004
21
-2144248.911282
31
0.000000
12
85944.825516
22
-2144249.139040
32
0.000000
13
85945.351500
23
-2144249.139040
33
0.000000
0
SOLID
8
INSET
10
85945.220004
20
-2144248.911282
30
0.000000
11
85945.572087
21
-2144248.641119
31
0.000000
12
85945.351500
22
-2144249.139040
32
0.000000
13
85946.070008
23
-2144249.139040
33
0.000000
0
SOLID
8
INSET
10
85945.572087
20
-2144248.641119
30
0.000000
11
85945.842250
21
-2144248.289036
31
0.000000
12
85946.070008
22
-2144249.139040
32
0.000000
13
85947.314500
23
-2144249.139040
33
0.000000
0
SOLID
8
INSET
10
85945.842250
20
-2144248.289036
30
0.000000
11
85946.012081
21
-2144247.879027
31
0.000000
12
85947.314500
22
-2144249.139040
32
0.000000
13
85946.821190
23
-2144248.095827
33
0.000000
0
SOLID
8
INSET
10
85946.012081
20
-2144247.879027
30
0.000000
11
85946.070008
21
-2144247.439032
31
0.000000
12
85946.821190
22
-2144248.095827
32
0.000000
13
85946.395644
23
-2144247.439032
33
0.000000
0
TEXT
8
INSET
7
ARIAL
10
85944.370000
20
-2144243.705000
30
0.000000
40
4.100000
1
176/T
50
0.000000
41
1.000000
72
1
11
85944.370000
21
-2144243.705000
31
0.000000
0
SOLID
8
INSET
10
86119.770008
20
-2144224.979032
30
0.000000
11
86119.712081
21
-2144224.539038
31
0.000000
12
86120.095644
22
-2144224.979032
32
0.000000
13
86119.795998
23
-2144224.516553
33
0.000000
0
SOLID
8
INSET
10
86119.712081
20
-2144224.539038
30
0.000000
11
86119.542250
21
-2144224.129028
31
0.000000
12
86119.795998
22
-2144224.516553
32
0.000000
13
86119.544190
23
-2144224.127908
33
0.000000
0
SOLID
8
INSET
10
86119.542250
20
-2144224.129028
30
0.000000
11
86119.272087
21
-2144223.776945
31
0.000000
12
86119.544190
22
-2144224.127908
32
0.000000
13
86119.299218
23
-2144223.749814
33
0.000000
0
SOLID
8
INSET
10
86119.272087
20
-2144223.776945
30
0.000000
11
86118.920004
21
-2144223.506782
31
0.000000
12
86119.299218
22
-2144223.749814
32
0.000000
13
86119.024494
23
-2144223.325801
33
0.000000
0
SOLID
8
INSET
10
86118.920004
20
-2144223.506782
30
0.000000
11
86118.509994
21
-2144223.336951
31
0.000000
12
86119.024494
22
-2144223.325801
32
0.000000
13
86118.662632
23
-2144222.767298
33
0.000000
0
SOLID
8
INSET
10
86118.509994
20
-2144223.336951
30
0.000000
11
86118.070000
21
-2144223.279024
31
0.000000
12
86118.662632
22
-2144222.767298
32
0.000000
13
86118.070000
23
-2144221.852619
33
0.000000
0
SOLID
8
INSET
10
86118.070000
20
-2144223.279024
30
0.000000
11
86117.630006
21
-2144223.336951
31
0.000000
12
86118.070000
22
-2144221.852619
32
0.000000
13
86117.477368
23
-2144222.767298
33
0.000000
0
SOLID
8
INSET
10
86117.630006
20
-2144223.336951
30
0.000000
11
86117.219996
21
-2144223.506782
31
0.000000
12
86117.477368
22
-2144222.767298
32
0.000000
13
86117.115506
23
-2144223.325801
33
0.000000
0
SOLID
8
INSET
10
86117.219996
20
-2144223.506782
30
0.000000
11
86116.867913
21
-2144223.776945
31
0.000000
12
86117.115506
22
-2144223.325801
32
0.000000
13
86116.840782
23
-2144223.749814
33
0.000000
0
SOLID
8
INSET
10
86116.867913
20
-2144223.776945
30
0.000000
11
86116.597750
21
-2144224.129028
31
0.000000
12
86116.840782
22
-2144223.749814
32
0.000000
13
86116.595810
23
-2144224.127908
33
0.000000
0
SOLID
8
INSET
10
86116.597750
20
-2144224.129028
30
0.000000
11
86116.427919
21
-2144224.539038
31
0.000000
12
86116.595810
22
-2144224.127908
32
0.000000
13
86116.344002
23
-2144224.516553
33
0.000000
0
SOLID
8
INSET
10
86116.427919
20
-2144224.539038
30
0.000000
11
86116.369992
21
-2144224.979032
31
0.000000
12
86116.344002
22
-2144224.516553
32
0.000000
13
86116.044356
23
-2144224.979032
33
0.000000
0
SOLID
8
INSET
10
86116.369992
20
-2144224.979032
30
0.000000
11
86116.427919
21
-2144225.419027
31
0.000000
12
86116.044356
22
-2144224.979032
32
0.000000
13
86115.618810
23
-2144225.635827
33
0.000000
0
SOLID
8
INSET
10
86116.427919
20
-2144225.419027
30
0.000000
11
86116.597750
21
-2144225.829036
31
0.000000
12
86115.618810
22
-2144225.635827
32
0.000000
13
86115.125500
23
-2144226.679040
33
0.000000
0
SOLID
8
INSET
10
86116.597750
20
-2144225.829036
30
0.000000
11
86116.867913
21
-2144226.181119
31
0.000000
12
86115.125500
22
-2144226.679040
32
0.000000
13
86116.369992
23
-2144226.679040
33
0.000000
0
SOLID
8
INSET
10
86116.867913
20
-2144226.181119
30
0.000000
11
86117.219996
21
-2144226.451282
31
0.000000
12
86116.369992
22
-2144226.679040
32
0.000000
13
86117.088500
23
-2144226.679040
33
0.000000
0
SOLID
8
INSET
10
86117.219996
20
-2144226.451282
30
0.000000
11
86117.630006
21
-2144226.621114
31
0.000000
12
86117.088500
22
-2144226.679040
32
0.000000
13
86117.614484
23
-2144226.679040
33
0.000000
0
SOLID
8
INSET
10
86117.630006
20
-2144226.621114
30
0.000000
11
86118.070000
21
-2144226.679040
31
0.000000
12
86117.614484
22
-2144226.679040
32
0.000000
13
86118.070000
23
-2144226.679040
33
0.000000
0
SOLID
8
INSET
10
86118.070000
20
-2144226.679040
30
0.000000
11
86118.509994
21
-2144226.621114
31
0.000000
12
86118.070000
22
-2144226.679040
32
0.000000
13
86118.525516
23
-2144226.679040
33
0.000000
0
SOLID
8
INSET
10
86118.509994
20
-2144226.621114
30
0.000000
11
86118.920004
21
-2144226.451282
31
0.000000
12
86118.525516
22
-2144226.679040
32
0.000000
13
86119.051500
23
-2144226.679040
33
0.000000
0
SOLID
8
INSET
10
86118.920004
20
-2144226.451282
30
0.000000
11
86119.272087
21
-2144226.181119
31
0.000000
12
86119.051500
22
-2144226.679040
32
0.000000
13
86119.770008
23
-2144226.679040
33
0.000000
0
SOLID
8
INSET
10
86119.272087
20
-2144226.181119
30
0.000000
11
86119.542250
21
-2144225.829036
31
0.000000
12
86119.770008
22
-2144226.679040
32
0.000000
13
86121.014500
23
-2144226.679040
33
0.000000
0
SOLID
8
INSET
10
86119.542250
20
-2144225.829036
30
0.000000
11
86119.712081
21
-2144225.419027
31
0.000000
12
86121.014500
22
-2144226.679040
32
0.000000
13
86120.521190
23
-2144225.635827
33
0.000000
0
SOLID
8
INSET
10
86119.712081
20
-2144225.419027
30
0.000000
11
86119.770008
21
-2144224.979032
31
0.000000
12
86120.521190
22
-2144225.635827
32
0.000000
13
86120.095644
23
-2144224.979032
33
0.000000
0
TEXT
8
INSET
7
ARIAL
10
86118.070000
20
-2144221.245000
30
0.000000
40
4.100000
1
49/T
50
0.000000
41
1.000000
72
1
11
86118.070000
21
-2144221.245000
31
0.000000
0
SOLID
8
INSET
10
86124.850008
20
-2144268.789032
30
0.000000
11
86124.792081
21
-2144268.349038
31
0.000000
12
86125.175644
22
-2144268.789032
32
0.000000
13
86124.875998
23
-2144268.326553
33
0.000000
0
SOLID
8
INSET
10
86124.792081
20
-2144268.349038
30
0.000000
11
86124.622250
21
-2144267.939028
31
0.000000
12
86124.875998
22
-2144268.326553
32
0.000000
13
86124.624190
23
-2144267.937908
33
0.000000
0
SOLID
8
INSET
10
86124.622250
20
-2144267.939028
30
0.000000
11
86124.352087
21
-2144267.586945
31
0.000000
12
86124.624190
22
-2144267.937908
32
0.000000
13
86124.379218
23
-2144267.559814
33
0.000000
0
SOLID
8
INSET
10
86124.352087
20
-2144267.586945
30
0.000000
11
86124.000004
21
-2144267.316782
31
0.000000
12
86124.379218
22
-2144267.559814
32
0.000000
13
86124.104494
23
-2144267.135801
33
0.000000
0
SOLID
8
INSET
10
86124.000004
20
-2144267.316782
30
0.000000
11
86123.589994
21
-2144267.146951
31
0.000000
12
86124.104494
22
-2144267.135801
32
0.000000
13
86123.742632
23
-2144266.577298
33
0.000000
0
SOLID
8
INSET
10
86123.589994
20
-2144267.146951
30
0.000000
11
86123.150000
21
-2144267.089024
31
0.000000
12
86123.742632
22
-2144266.577298
32
0.000000
13
86123.150000
23
-2144265.662619
33
0.000000
0
SOLID
8
INSET
10
86123.150000
20
-2144267.089024
30
0.000000
11
86122.710006
21
-2144267.146951
31
0.000000
12
86123.150000
22
-2144265.662619
32
0.000000
13
86122.557368
23
-2144266.577298
33
0.000000
0
SOLID
8
INSET
10
86122.710006
20
-2144267.146951
30
0.000000
11
86122.299996
21
-2144267.316782
31
0.000000
12
86122.557368
22
-2144266.577298
32
0.000000
13
86122.195506
23
-2144267.135801
33
0.000000
0
SOLID
8
INSET
10
86122.299996
20
-2144267.316782
30
0.000000
11
86121.947913
21
-2144267.586945
31
0.000000
12
86122.195506
22
-2144267.135801
32
0.000000
13
86121.920782
23
-2144267.559814
33
0.000000
0
SOLID
8
INSET
10
86121.947913
20
-2144267.586945
30
0.000000
11
86121.677750
21
-2144267.939028
31
0.000000
12
86121.920782
22
-2144267.559814
32
0.000000
13
86121.675810
23
-2144267.937908
33
0.000000
0
SOLID
8
INSET
10
86121.677750
20
-2144267.939028
30
0.000000
11
86121.507919
21
-2144268.349038
31
0.000000
12
86121.675810
22
-2144267.937908
32
0.000000
13
86121.424002
23
-2144268.326553
33
0.000000
0
SOLID
8
INSET
10
86121.507919
20
-2144268.349038
30
0.000000
11
86121.449992
21
-2144268.789032
31
0.000000
12
86121.424002
22
-2144268.326553
32
0.000000
13
86121.124356
23
-2144268.789032
33
0.000000
0
SOLID
8
INSET
10
86121.449992
20
-2144268.789032
30
0.000000
11
86121.507919
21
-2144269.229027
31
0.000000
12
86121.124356
22
-2144268.789032
32
0.000000
13
86120.698810
23
-2144269.445827
33
0.000000
0
SOLID
8
INSET
10
86121.507919
20
-2144269.229027
30
0.000000
11
86121.677750
21
-2144269.639036
31
0.000000
12
86120.698810
22
-2144269.445827
32
0.000000
13
86120.205500
23
-2144270.489040
33
0.000000
0
SOLID
8
INSET
10
86121.677750
20
-2144269.639036
30
0.000000
11
86121.947913
21
-2144269.991119
31
0.000000
12
86120.205500
22
-2144270.489040
32
0.000000
13
86121.449992
23
-2144270.489040
33
0.000000
0
SOLID
8
INSET
10
86121.947913
20
-2144269.991119
30
0.000000
11
86122.299996
21
-2144270.261282
31
0.000000
12
86121.449992
22
-2144270.489040
32
0.000000
13
86122.168500
23
-2144270.489040
33
0.000000
0
SOLID
8
INSET
10
86122.299996
20
-2144270.261282
30
0.000000
11
86122.710006
21
-2144270.431114
31
0.000000
12
86122.168500
22
-2144270.489040
32
0.000000
13
86122.694484
23
-2144270.489040
33
0.000000
0
SOLID
8
INSET
10
86122.710006
20
-2144270.431114
30
0.000000
11
86123.150000
21
-2144270.489040
31
0.000000
12
86122.694484
22
-2144270.489040
32
0.000000
13
86123.150000
23
-2144270.489040
33
0.000000
0
SOLID
8
INSET
10
86123.150000
20
-2144270.489040
30
0.000000
11
86123.589994
21
-2144270.431114
31
0.000000
12
86123.150000
22
-2144270.489040
32
0.000000
13
86123.605516
23
-2144270.489040
33
0.000000
0
SOLID
8
INSET
10
86123.589994
20
-2144270.431114
30
0.000000
11
86124.000004
21
-2144270.261282
31
0.000000
12
86123.605516
22
-2144270.489040
32
0.000000
13
86124.131500
23
-2144270.489040
33
0.000000
0
SOLID
8
INSET
10
86124.000004
20
-2144270.261282
30
0.000000
11
86124.352087
21
-2144269.991119
31
0.000000
12
86124.131500
22
-2144270.489040
32
0.000000
13
86124.850008
23
-2144270.489040
33
0.000000
0
SOLID
8
INSET
10
86124.352087
20
-2144269.991119
30
0.000000
11
86124.622250
21
-2144269.639036
31
0.000000
12
86124.850008
22
-2144270.489040
32
0.000000
13
86126.094500
23
-2144270.489040
33
0.000000
0
SOLID
8
INSET
10
86124.622250
20
-2144269.639036
30
0.000000
11
86124.792081
21
-2144269.229027
31
0.000000
12
86126.094500
22
-2144270.489040
32
0.000000
13
86125.601190
23
-2144269.445827
33
0.000000
0
SOLID
8
INSET
10
86124.792081
20
-2144269.229027
30
0.000000
11
86124.850008
21
-2144268.789032
31
0.000000
12
86125.601190
22
-2144269.445827
32
0.000000
13
86125.175644
23
-2144268.789032
33
0.000000
0
TEXT
8
INSET
7
ARIAL
10
86123.150000
20
-2144265.055000
30
0.000000
40
4.100000
1
50/T
50
0.000000
41
1.000000
72
1
11
86123.150000
21
-2144265.055000
31
0.000000
0
POLYLINE
8
INSET
66
1
70
1
10
0.000000
20
0.000000
30
0.000000
0
VERTEX
8
INSET
10
85921.720000
20
-2144171.645000
30
0.000000
0
VERTEX
8
INSET
10
85921.662074
20
-2144171.205008
30
0.000000
0
VERTEX
8
INSET
10
85921.492243
20
-2144170.795000
30
0.000000
0
VERTEX
8
INSET
10
85921.222082
20
-2144170.442918
30
0.000000
0
VERTEX
8
INSET
10
85920.870000
20
-2144170.172757
30
0.000000
0
VERTEX
8
INSET
10
85920.459992
20
-2144170.002926
30
0.000000
0
VERTEX
8
INSET
10
85920.020000
20
-2144169.945000
30
0.000000
0
VERTEX
8
INSET
10
85919.580008
20
-2144170.002926
30
0.000000
0
VERTEX
8
INSET
10
85919.170000
20
-2144170.172757
30
0.000000
0
VERTEX
8
INSET
10
85918.817918
20
-2144170.442918
30
0.000000
0
VERTEX
8
INSET
10
85918.547757
20
-2144170.795000
30
0.000000
0
VERTEX
8
INSET
10
85918.377926
20
-2144171.205008
30
0.000000
0
VERTEX
8
INSET
10
85918.320000
20
-2144171.645000
30
0.000000
0
VERTEX
8
INSET
10
85918.377926
20
-2144172.084992
30
0.000000
0
VERTEX
8
INSET
10
85918.547757
20
-2144172.495000
30
0.000000
0
VERTEX
8
INSET
10
85918.817918
20
-2144172.847082
30
0.000000
0
VERTEX
8
INSET
10
85919.170000
20
-2144173.117243
30
0.000000
0
VERTEX
8
INSET
10
85919.580008
20
-2144173.287074
30
0.000000
0
VERTEX
8
INSET
10
85920.020000
20
-2144173.345000
30
0.000000
0
VERTEX
8
INSET
10
85920.459992
20
-2144173.287074
30
0.000000
0
VERTEX
8
INSET
10
85920.870000
20
-2144173.117243
30
0.000000
0
VERTEX
8
INSET
10
85921.222082
20
-2144172.847082
30
0.000000
0
VERTEX
8
INSET
10
85921.492243
20
-2144172.495000
30
0.000000
0
VERTEX
8
INSET
10
85921.662074
20
-2144172.084992
30
0.000000
0
SEQEND
8
INSET
0
LINE
8
INSET
10
85917.620000
20
-2144171.645000
30
0.000000
11
85922.420000
21
-2144171.645000
31
0.000000
0
LINE
8
INSET
10
85920.020000
20
-2144174.045000
30
0.000000
11
85920.020000
21
-2144169.245000
31
0.000000
0
TEXT
8
INSET
7
ARIAL
10
85920.020000
20
-2144168.045000
30
0.000000
40
4.100000
1
RM7
50
0.000000
41
1.000000
72
1
11
85920.020000
21
-2144168.045000
31
0.000000
0
POLYLINE
8
INSET
66
1
70
1
10
0.000000
20
0.000000
30
0.000000
0
VERTEX
8
INSET
10
86093.000000
20
-2144196.625000
30
0.000000
0
VERTEX
8
INSET
10
86092.942074
20
-2144196.185008
30
0.000000
0
VERTEX
8
INSET
10
86092.772243
20
-2144195.775000
30
0.000000
0
VERTEX
8
INSET
10
86092.502082
20
-2144195.422918
30
0.000000
0
VERTEX
8
INSET
10
86092.150000
20
-2144195.152757
30
0.000000
0
VERTEX
8
INSET
10
86091.739992
20
-2144194.982926
30
0.000000
0
VERTEX
8
INSET
10
86091.300000
20
-2144194.925000
30
0.000000
0
VERTEX
8
INSET
10
86090.860008
20
-2144194.982926
30
0.000000
0
VERTEX
8
INSET
10
86090.450000
20
-2144195.152757
30
0.000000
0
VERTEX
8
INSET
10
86090.097918
20
-2144195.422918
30
0.000000
0
VERTEX
8
INSET
10
86089.827757
20
-2144195.775000
30
0.000000
0
VERTEX
8
INSET
10
86089.657926
20
-2144196.185008
30
0.000000
0
VERTEX
8
INSET
10
86089.600000
20
-2144196.625000
30
0.000000
0
VERTEX
8
INSET
10
86089.657926
20
-2144197.064992
30
0.000000
0
VERTEX
8
INSET
10
86089.827757
20
-2144197.475000
30
0.000000
0
VERTEX
8
INSET
10
86090.097918
20
-2144197.827082
30
0.000000
0
VERTEX
8
INSET
10
86090.450000
20
-2144198.097243
30
0.000000
0
VERTEX
8
INSET
10
86090.860008
20
-2144198.267074
30
0.000000
0
VERTEX
8
INSET
10
86091.300000
20
-2144198.325000
30
0.000000
0
VERTEX
8
INSET
10
86091.739992
20
-2144198.267074
30
0.000000
0
VERTEX
8
INSET
10
86092.150000
20
-2144198.097243
30
0.000000
0
VERTEX
8
INSET
10
86092.502082
20
-2144197.827082
30
0.000000
0
VERTEX
8
INSET
10
86092.772243
20
-2144197.475000
30
0.000000
0
VERTEX
8
INSET
10
86092.942074
20
-2144197.064992
30
0.000000
0
SEQEND
8
INSET
0
LINE
8
INSET
10
86088.900000
20
-2144196.625000
30
0.000000
11
86093.700000
21
-2144196.625000
31
0.000000
0
LINE
8
INSET
10
86091.300000
20
-2144199.025000
30
0.000000
11
86091.300000
21
-2144194.225000
31
0.000000
0
TEXT
8
INSET
7
ARIAL
10
86091.300000
20
-2144193.025000
30
0.000000
40
4.100000
1
BASE
50
0.000000
41
1.000000
72
1
11
86091.300000
21
-2144193.025000
31
0.000000
0
ENDSEC
0
EOF
