0
SECTION
2
HEADER
9
$ACADVER
1
AC1009
9
$DWGCODEPAGE
3
ANSI_1252
9
$INSUNITS
70
6
9
$MEASUREMENT
70
1
9
$LTSCALE
40
1.000000
9
$CELTSCALE
40
1.000000
9
$PDMODE
70
1
9
$PDSIZE
40
0.000000
0
ENDSEC
0
SECTION
2
TABLES
0
TABLE
2
LTYPE
70
3
0
LTYPE
2
CONTINUOUS
70
0
3
Solid line
72
65
73
0
40
0.000000
0
LTYPE
2
PLANDASH
70
0
3
Plan boundary dash ____ ____ ____
72
65
73
2
40
5.588000
49
3.471333
49
-2.116667
0
LTYPE
2
PLANDOT
70
0
3
Leader dots . . . . . . . .
72
65
73
2
40
1.827389
49
0.931333
49
-0.896056
0
ENDTAB
0
TABLE
2
LAYER
70
15
0
LAYER
2
0
70
0
62
7
6
CONTINUOUS
0
LAYER
2
BOUNDARY-NEW
70
0
62
1
6
CONTINUOUS
0
LAYER
2
BOUNDARY-EXIST
70
0
62
3
6
PLANDASH
0
LAYER
2
ADJOINING
70
0
62
7
6
PLANDOT
0
LAYER
2
BEACONS
70
0
62
2
6
CONTINUOUS
0
LAYER
2
BEACON-TEXT
70
0
62
2
6
CONTINUOUS
0
LAYER
2
PARCEL-TEXT
70
0
62
5
6
CONTINUOUS
0
LAYER
2
GRID
70
0
62
8
6
CONTINUOUS
0
LAYER
2
GRID-TEXT
70
0
62
8
6
CONTINUOUS
0
LAYER
2
ROAD-TEXT
70
0
62
4
6
CONTINUOUS
0
LAYER
2
TITLE
70
0
62
7
6
CONTINUOUS
0
LAYER
2
APPROVAL
70
0
62
7
6
CONTINUOUS
0
LAYER
2
NORTH-ARROW
70
0
62
7
6
CONTINUOUS
0
LAYER
2
SHEET-BORDER
70
0
62
9
6
CONTINUOUS
0
LAYER
2
INSET
70
0
62
9
6
CONTINUOUS
0
ENDTAB
0
TABLE
2
STYLE
70
3
0
STYLE
2
ARIAL
70
0
40
0.000000
41
1.000000
50
0.000000
71
0
42
2.500000
3
arial.ttf
4

0
STYLE
2
ARIAL-BOLD
70
0
40
0.000000
41
1.000000
50
0.000000
71
0
42
2.500000
3
arialbd.ttf
4

0
STYLE
2
SERIF
70
0
40
0.000000
41
1.000000
50
0.000000
71
0
42
2.500000
3
times.ttf
4

0
ENDTAB
0
ENDSEC
0
SECTION
2
BLOCKS
0
BLOCK
8
0
2
BCN_PLACED
70
0
10
0.000000
20
0.000000
30
0.000000
3
BCN_PLACED
1

0
POINT
8
0
10
0.000000
20
0.000000
30
0.000000
0
POLYLINE
8
0
66
1
70
1
10
0.000000
20
0.000000
30
0.000000
0
VERTEX
8
0
10
2.498000
20
0.000000
30
0.000000
0
VERTEX
8
0
10
2.450002
20
0.487336
30
0.000000
0
VERTEX
8
0
10
2.307851
20
0.955943
30
0.000000
0
VERTEX
8
0
10
2.077011
20
1.387814
30
0.000000
0
VERTEX
8
0
10
1.766353
20
1.766353
30
0.000000
0
VERTEX
8
0
10
1.387814
20
2.077011
30
0.000000
0
VERTEX
8
0
10
0.955943
20
2.307851
30
0.000000
0
VERTEX
8
0
10
0.487336
20
2.450002
30
0.000000
0
VERTEX
8
0
10
0.000000
20
2.498000
30
0.000000
0
VERTEX
8
0
10
-0.487336
20
2.450002
30
0.000000
0
VERTEX
8
0
10
-0.955943
20
2.307851
30
0.000000
0
VERTEX
8
0
10
-1.387814
20
2.077011
30
0.000000
0
VERTEX
8
0
10
-1.766353
20
1.766353
30
0.000000
0
VERTEX
8
0
10
-2.077011
20
1.387814
30
0.000000
0
VERTEX
8
0
10
-2.307851
20
0.955943
30
0.000000
0
VERTEX
8
0
10
-2.450002
20
0.487336
30
0.000000
0
VERTEX
8
0
10
-2.498000
20
0.000000
30
0.000000
0
VERTEX
8
0
10
-2.450002
20
-0.487336
30
0.000000
0
VERTEX
8
0
10
-2.307851
20
-0.955943
30
0.000000
0
VERTEX
8
0
10
-2.077011
20
-1.387814
30
0.000000
0
VERTEX
8
0
10
-1.766353
20
-1.766353
30
0.000000
0
VERTEX
8
0
10
-1.387814
20
-2.077011
30
0.000000
0
VERTEX
8
0
10
-0.955943
20
-2.307851
30
0.000000
0
VERTEX
8
0
10
-0.487336
20
-2.450002
30
0.000000
0
VERTEX
8
0
10
0.000000
20
-2.498000
30
0.000000
0
VERTEX
8
0
10
0.487336
20
-2.450002
30
0.000000
0
VERTEX
8
0
10
0.955943
20
-2.307851
30
0.000000
0
VERTEX
8
0
10
1.387814
20
-2.077011
30
0.000000
0
VERTEX
8
0
10
1.766353
20
-1.766353
30
0.000000
0
VERTEX
8
0
10
2.077011
20
-1.387814
30
0.000000
0
VERTEX
8
0
10
2.307851
20
-0.955943
30
0.000000
0
VERTEX
8
0
10
2.450002
20
-0.487336
30
0.000000
0
SEQEND
8
0
0
ENDBLK
8
0
0
BLOCK
8
0
2
BCN_FOUND
70
0
10
0.000000
20
0.000000
30
0.000000
3
BCN_FOUND
1

0
POINT
8
0
10
0.000000
20
0.000000
30
0.000000
0
POLYLINE
8
0
66
1
70
1
10
0.000000
20
0.000000
30
0.000000
0
VERTEX
8
0
10
2.498000
20
0.000000
30
0.000000
0
VERTEX
8
0
10
2.450002
20
0.487336
30
0.000000
0
VERTEX
8
0
10
2.307851
20
0.955943
30
0.000000
0
VERTEX
8
0
10
2.077011
20
1.387814
30
0.000000
0
VERTEX
8
0
10
1.766353
20
1.766353
30
0.000000
0
VERTEX
8
0
10
1.387814
20
2.077011
30
0.000000
0
VERTEX
8
0
10
0.955943
20
2.307851
30
0.000000
0
VERTEX
8
0
10
0.487336
20
2.450002
30
0.000000
0
VERTEX
8
0
10
0.000000
20
2.498000
30
0.000000
0
VERTEX
8
0
10
-0.487336
20
2.450002
30
0.000000
0
VERTEX
8
0
10
-0.955943
20
2.307851
30
0.000000
0
VERTEX
8
0
10
-1.387814
20
2.077011
30
0.000000
0
VERTEX
8
0
10
-1.766353
20
1.766353
30
0.000000
0
VERTEX
8
0
10
-2.077011
20
1.387814
30
0.000000
0
VERTEX
8
0
10
-2.307851
20
0.955943
30
0.000000
0
VERTEX
8
0
10
-2.450002
20
0.487336
30
0.000000
0
VERTEX
8
0
10
-2.498000
20
0.000000
30
0.000000
0
VERTEX
8
0
10
-2.450002
20
-0.487336
30
0.000000
0
VERTEX
8
0
10
-2.307851
20
-0.955943
30
0.000000
0
VERTEX
8
0
10
-2.077011
20
-1.387814
30
0.000000
0
VERTEX
8
0
10
-1.766353
20
-1.766353
30
0.000000
0
VERTEX
8
0
10
-1.387814
20
-2.077011
30
0.000000
0
VERTEX
8
0
10
-0.955943
20
-2.307851
30
0.000000
0
VERTEX
8
0
10
-0.487336
20
-2.450002
30
0.000000
0
VERTEX
8
0
10
0.000000
20
-2.498000
30
0.000000
0
VERTEX
8
0
10
0.487336
20
-2.450002
30
0.000000
0
VERTEX
8
0
10
0.955943
20
-2.307851
30
0.000000
0
VERTEX
8
0
10
1.387814
20
-2.077011
30
0.000000
0
VERTEX
8
0
10
1.766353
20
-1.766353
30
0.000000
0
VERTEX
8
0
10
2.077011
20
-1.387814
30
0.000000
0
VERTEX
8
0
10
2.307851
20
-0.955943
30
0.000000
0
VERTEX
8
0
10
2.450002
20
-0.487336
30
0.000000
0
SEQEND
8
0
0
POLYLINE
8
0
66
1
70
1
10
0.000000
20
0.000000
30
0.000000
0
VERTEX
8
0
10
1.482000
20
0.000000
30
0.000000
0
VERTEX
8
0
10
1.453524
20
0.289124
30
0.000000
0
VERTEX
8
0
10
1.369189
20
0.567137
30
0.000000
0
VERTEX
8
0
10
1.232238
20
0.823355
30
0.000000
0
VERTEX
8
0
10
1.047932
20
1.047932
30
0.000000
0
VERTEX
8
0
10
0.823355
20
1.232238
30
0.000000
0
VERTEX
8
0
10
0.567137
20
1.369189
30
0.000000
0
VERTEX
8
0
10
0.289124
20
1.453524
30
0.000000
0
VERTEX
8
0
10
0.000000
20
1.482000
30
0.000000
0
VERTEX
8
0
10
-0.289124
20
1.453524
30
0.000000
0
VERTEX
8
0
10
-0.567137
20
1.369189
30
0.000000
0
VERTEX
8
0
10
-0.823355
20
1.232238
30
0.000000
0
VERTEX
8
0
10
-1.047932
20
1.047932
30
0.000000
0
VERTEX
8
0
10
-1.232238
20
0.823355
30
0.000000
0
VERTEX
8
0
10
-1.369189
20
0.567137
30
0.000000
0
VERTEX
8
0
10
-1.453524
20
0.289124
30
0.000000
0
VERTEX
8
0
10
-1.482000
20
0.000000
30
0.000000
0
VERTEX
8
0
10
-1.453524
20
-0.289124
30
0.000000
0
VERTEX
8
0
10
-1.369189
20
-0.567137
30
0.000000
0
VERTEX
8
0
10
-1.232238
20
-0.823355
30
0.000000
0
VERTEX
8
0
10
-1.047932
20
-1.047932
30
0.000000
0
VERTEX
8
0
10
-0.823355
20
-1.232238
30
0.000000
0
VERTEX
8
0
10
-0.567137
20
-1.369189
30
0.000000
0
VERTEX
8
0
10
-0.289124
20
-1.453524
30
0.000000
0
VERTEX
8
0
10
0.000000
20
-1.482000
30
0.000000
0
VERTEX
8
0
10
0.289124
20
-1.453524
30
0.000000
0
VERTEX
8
0
10
0.567137
20
-1.369189
30
0.000000
0
VERTEX
8
0
10
0.823355
20
-1.232238
30
0.000000
0
VERTEX
8
0
10
1.047932
20
-1.047932
30
0.000000
0
VERTEX
8
0
10
1.232238
20
-0.823355
30
0.000000
0
VERTEX
8
0
10
1.369189
20
-0.567137
30
0.000000
0
VERTEX
8
0
10
1.453524
20
-0.289124
30
0.000000
0
SEQEND
8
0
0
ENDBLK
8
0
0
BLOCK
8
0
2
BCN_FOUND_NA
70
0
10
0.000000
20
0.000000
30
0.000000
3
BCN_FOUND_NA
1

0
POINT
8
0
10
0.000000
20
0.000000
30
0.000000
0
POLYLINE
8
0
66
1
70
1
10
0.000000
20
0.000000
30
0.000000
0
VERTEX
8
0
10
2.498000
20
0.000000
30
0.000000
0
VERTEX
8
0
10
2.450002
20
0.487336
30
0.000000
0
VERTEX
8
0
10
2.307851
20
0.955943
30
0.000000
0
VERTEX
8
0
10
2.077011
20
1.387814
30
0.000000
0
VERTEX
8
0
10
1.766353
20
1.766353
30
0.000000
0
VERTEX
8
0
10
1.387814
20
2.077011
30
0.000000
0
VERTEX
8
0
10
0.955943
20
2.307851
30
0.000000
0
VERTEX
8
0
10
0.487336
20
2.450002
30
0.000000
0
VERTEX
8
0
10
0.000000
20
2.498000
30
0.000000
0
VERTEX
8
0
10
-0.487336
20
2.450002
30
0.000000
0
VERTEX
8
0
10
-0.955943
20
2.307851
30
0.000000
0
VERTEX
8
0
10
-1.387814
20
2.077011
30
0.000000
0
VERTEX
8
0
10
-1.766353
20
1.766353
30
0.000000
0
VERTEX
8
0
10
-2.077011
20
1.387814
30
0.000000
0
VERTEX
8
0
10
-2.307851
20
0.955943
30
0.000000
0
VERTEX
8
0
10
-2.450002
20
0.487336
30
0.000000
0
VERTEX
8
0
10
-2.498000
20
0.000000
30
0.000000
0
VERTEX
8
0
10
-2.450002
20
-0.487336
30
0.000000
0
VERTEX
8
0
10
-2.307851
20
-0.955943
30
0.000000
0
VERTEX
8
0
10
-2.077011
20
-1.387814
30
0.000000
0
VERTEX
8
0
10
-1.766353
20
-1.766353
30
0.000000
0
VERTEX
8
0
10
-1.387814
20
-2.077011
30
0.000000
0
VERTEX
8
0
10
-0.955943
20
-2.307851
30
0.000000
0
VERTEX
8
0
10
-0.487336
20
-2.450002
30
0.000000
0
VERTEX
8
0
10
0.000000
20
-2.498000
30
0.000000
0
VERTEX
8
0
10
0.487336
20
-2.450002
30
0.000000
0
VERTEX
8
0
10
0.955943
20
-2.307851
30
0.000000
0
VERTEX
8
0
10
1.387814
20
-2.077011
30
0.000000
0
VERTEX
8
0
10
1.766353
20
-1.766353
30
0.000000
0
VERTEX
8
0
10
2.077011
20
-1.387814
30
0.000000
0
VERTEX
8
0
10
2.307851
20
-0.955943
30
0.000000
0
VERTEX
8
0
10
2.450002
20
-0.487336
30
0.000000
0
SEQEND
8
0
0
POLYLINE
8
0
66
1
70
1
10
0.000000
20
0.000000
30
0.000000
0
VERTEX
8
0
10
1.482000
20
0.000000
30
0.000000
0
VERTEX
8
0
10
1.453524
20
0.289124
30
0.000000
0
VERTEX
8
0
10
1.369189
20
0.567137
30
0.000000
0
VERTEX
8
0
10
1.232238
20
0.823355
30
0.000000
0
VERTEX
8
0
10
1.047932
20
1.047932
30
0.000000
0
VERTEX
8
0
10
0.823355
20
1.232238
30
0.000000
0
VERTEX
8
0
10
0.567137
20
1.369189
30
0.000000
0
VERTEX
8
0
10
0.289124
20
1.453524
30
0.000000
0
VERTEX
8
0
10
0.000000
20
1.482000
30
0.000000
0
VERTEX
8
0
10
-0.289124
20
1.453524
30
0.000000
0
VERTEX
8
0
10
-0.567137
20
1.369189
30
0.000000
0
VERTEX
8
0
10
-0.823355
20
1.232238
30
0.000000
0
VERTEX
8
0
10
-1.047932
20
1.047932
30
0.000000
0
VERTEX
8
0
10
-1.232238
20
0.823355
30
0.000000
0
VERTEX
8
0
10
-1.369189
20
0.567137
30
0.000000
0
VERTEX
8
0
10
-1.453524
20
0.289124
30
0.000000
0
VERTEX
8
0
10
-1.482000
20
0.000000
30
0.000000
0
VERTEX
8
0
10
-1.453524
20
-0.289124
30
0.000000
0
VERTEX
8
0
10
-1.369189
20
-0.567137
30
0.000000
0
VERTEX
8
0
10
-1.232238
20
-0.823355
30
0.000000
0
VERTEX
8
0
10
-1.047932
20
-1.047932
30
0.000000
0
VERTEX
8
0
10
-0.823355
20
-1.232238
30
0.000000
0
VERTEX
8
0
10
-0.567137
20
-1.369189
30
0.000000
0
VERTEX
8
0
10
-0.289124
20
-1.453524
30
0.000000
0
VERTEX
8
0
10
0.000000
20
-1.482000
30
0.000000
0
VERTEX
8
0
10
0.289124
20
-1.453524
30
0.000000
0
VERTEX
8
0
10
0.567137
20
-1.369189
30
0.000000
0
VERTEX
8
0
10
0.823355
20
-1.232238
30
0.000000
0
VERTEX
8
0
10
1.047932
20
-1.047932
30
0.000000
0
VERTEX
8
0
10
1.232238
20
-0.823355
30
0.000000
0
VERTEX
8
0
10
1.369189
20
-0.567137
30
0.000000
0
VERTEX
8
0
10
1.453524
20
-0.289124
30
0.000000
0
SEQEND
8
0
0
LINE
8
0
10
-2.333452
20
-2.333452
30
0.000000
11
2.333452
21
2.333452
31
0.000000
0
ENDBLK
8
0
0
BLOCK
8
0
2
BCN_RM
70
0
10
0.000000
20
0.000000
30
0.000000
3
BCN_RM
1

0
POINT
8
0
10
0.000000
20
0.000000
30
0.000000
0
POLYLINE
8
0
66
1
70
1
10
0.000000
20
0.000000
30
0.000000
0
VERTEX
8
0
10
2.498000
20
0.000000
30
0.000000
0
VERTEX
8
0
10
2.450002
20
0.487336
30
0.000000
0
VERTEX
8
0
10
2.307851
20
0.955943
30
0.000000
0
VERTEX
8
0
10
2.077011
20
1.387814
30
0.000000
0
VERTEX
8
0
10
1.766353
20
1.766353
30
0.000000
0
VERTEX
8
0
10
1.387814
20
2.077011
30
0.000000
0
VERTEX
8
0
10
0.955943
20
2.307851
30
0.000000
0
VERTEX
8
0
10
0.487336
20
2.450002
30
0.000000
0
VERTEX
8
0
10
0.000000
20
2.498000
30
0.000000
0
VERTEX
8
0
10
-0.487336
20
2.450002
30
0.000000
0
VERTEX
8
0
10
-0.955943
20
2.307851
30
0.000000
0
VERTEX
8
0
10
-1.387814
20
2.077011
30
0.000000
0
VERTEX
8
0
10
-1.766353
20
1.766353
30
0.000000
0
VERTEX
8
0
10
-2.077011
20
1.387814
30
0.000000
0
VERTEX
8
0
10
-2.307851
20
0.955943
30
0.000000
0
VERTEX
8
0
10
-2.450002
20
0.487336
30
0.000000
0
VERTEX
8
0
10
-2.498000
20
0.000000
30
0.000000
0
VERTEX
8
0
10
-2.450002
20
-0.487336
30
0.000000
0
VERTEX
8
0
10
-2.307851
20
-0.955943
30
0.000000
0
VERTEX
8
0
10
-2.077011
20
-1.387814
30
0.000000
0
VERTEX
8
0
10
-1.766353
20
-1.766353
30
0.000000
0
VERTEX
8
0
10
-1.387814
20
-2.077011
30
0.000000
0
VERTEX
8
0
10
-0.955943
20
-2.307851
30
0.000000
0
VERTEX
8
0
10
-0.487336
20
-2.450002
30
0.000000
0
VERTEX
8
0
10
0.000000
20
-2.498000
30
0.000000
0
VERTEX
8
0
10
0.487336
20
-2.450002
30
0.000000
0
VERTEX
8
0
10
0.955943
20
-2.307851
30
0.000000
0
VERTEX
8
0
10
1.387814
20
-2.077011
30
0.000000
0
VERTEX
8
0
10
1.766353
20
-1.766353
30
0.000000
0
VERTEX
8
0
10
2.077011
20
-1.387814
30
0.000000
0
VERTEX
8
0
10
2.307851
20
-0.955943
30
0.000000
0
VERTEX
8
0
10
2.450002
20
-0.487336
30
0.000000
0
SEQEND
8
0
0
LINE
8
0
10
-3.600000
20
0.000000
30
0.000000
11
3.600000
21
0.000000
31
0.000000
0
LINE
8
0
10
0.000000
20
-3.600000
30
0.000000
11
0.000000
21
3.600000
31
0.000000
0
ENDBLK
8
0
0
BLOCK
8
0
2
BCN_WS
70
0
10
0.000000
20
0.000000
30
0.000000
3
BCN_WS
1

0
POINT
8
0
10
0.000000
20
0.000000
30
0.000000
0
POLYLINE
8
0
66
1
70
1
10
0.000000
20
0.000000
30
0.000000
0
VERTEX
8
0
10
2.498000
20
0.000000
30
0.000000
0
VERTEX
8
0
10
2.450002
20
0.487336
30
0.000000
0
VERTEX
8
0
10
2.307851
20
0.955943
30
0.000000
0
VERTEX
8
0
10
2.077011
20
1.387814
30
0.000000
0
VERTEX
8
0
10
1.766353
20
1.766353
30
0.000000
0
VERTEX
8
0
10
1.387814
20
2.077011
30
0.000000
0
VERTEX
8
0
10
0.955943
20
2.307851
30
0.000000
0
VERTEX
8
0
10
0.487336
20
2.450002
30
0.000000
0
VERTEX
8
0
10
0.000000
20
2.498000
30
0.000000
0
VERTEX
8
0
10
-0.487336
20
2.450002
30
0.000000
0
VERTEX
8
0
10
-0.955943
20
2.307851
30
0.000000
0
VERTEX
8
0
10
-1.387814
20
2.077011
30
0.000000
0
VERTEX
8
0
10
-1.766353
20
1.766353
30
0.000000
0
VERTEX
8
0
10
-2.077011
20
1.387814
30
0.000000
0
VERTEX
8
0
10
-2.307851
20
0.955943
30
0.000000
0
VERTEX
8
0
10
-2.450002
20
0.487336
30
0.000000
0
VERTEX
8
0
10
-2.498000
20
0.000000
30
0.000000
0
VERTEX
8
0
10
-2.450002
20
-0.487336
30
0.000000
0
VERTEX
8
0
10
-2.307851
20
-0.955943
30
0.000000
0
VERTEX
8
0
10
-2.077011
20
-1.387814
30
0.000000
0
VERTEX
8
0
10
-1.766353
20
-1.766353
30
0.000000
0
VERTEX
8
0
10
-1.387814
20
-2.077011
30
0.000000
0
VERTEX
8
0
10
-0.955943
20
-2.307851
30
0.000000
0
VERTEX
8
0
10
-0.487336
20
-2.450002
30
0.000000
0
VERTEX
8
0
10
0.000000
20
-2.498000
30
0.000000
0
VERTEX
8
0
10
0.487336
20
-2.450002
30
0.000000
0
VERTEX
8
0
10
0.955943
20
-2.307851
30
0.000000
0
VERTEX
8
0
10
1.387814
20
-2.077011
30
0.000000
0
VERTEX
8
0
10
1.766353
20
-1.766353
30
0.000000
0
VERTEX
8
0
10
2.077011
20
-1.387814
30
0.000000
0
VERTEX
8
0
10
2.307851
20
-0.955943
30
0.000000
0
VERTEX
8
0
10
2.450002
20
-0.487336
30
0.000000
0
SEQEND
8
0
0
SOLID
8
0
10
0.000000
20
0.000000
30
0.000000
11
0.950000
21
0.000000
31
0.000000
12
0.822724
22
0.475000
32
0.000000
13
0.822724
23
0.475000
33
0.000000
0
SOLID
8
0
10
0.000000
20
0.000000
30
0.000000
11
0.822724
21
0.475000
31
0.000000
12
0.475000
22
0.822724
32
0.000000
13
0.475000
23
0.822724
33
0.000000
0
SOLID
8
0
10
0.000000
20
0.000000
30
0.000000
11
0.475000
21
0.822724
31
0.000000
12
0.000000
22
0.950000
32
0.000000
13
0.000000
23
0.950000
33
0.000000
0
SOLID
8
0
10
0.000000
20
0.000000
30
0.000000
11
0.000000
21
0.950000
31
0.000000
12
-0.475000
22
0.822724
32
0.000000
13
-0.475000
23
0.822724
33
0.000000
0
SOLID
8
0
10
0.000000
20
0.000000
30
0.000000
11
-0.475000
21
0.822724
31
0.000000
12
-0.822724
22
0.475000
32
0.000000
13
-0.822724
23
0.475000
33
0.000000
0
SOLID
8
0
10
0.000000
20
0.000000
30
0.000000
11
-0.822724
21
0.475000
31
0.000000
12
-0.950000
22
0.000000
32
0.000000
13
-0.950000
23
0.000000
33
0.000000
0
SOLID
8
0
10
0.000000
20
0.000000
30
0.000000
11
-0.950000
21
0.000000
31
0.000000
12
-0.822724
22
-0.475000
32
0.000000
13
-0.822724
23
-0.475000
33
0.000000
0
SOLID
8
0
10
0.000000
20
0.000000
30
0.000000
11
-0.822724
21
-0.475000
31
0.000000
12
-0.475000
22
-0.822724
32
0.000000
13
-0.475000
23
-0.822724
33
0.000000
0
SOLID
8
0
10
0.000000
20
0.000000
30
0.000000
11
-0.475000
21
-0.822724
31
0.000000
12
0.000000
22
-0.950000
32
0.000000
13
0.000000
23
-0.950000
33
0.000000
0
SOLID
8
0
10
0.000000
20
0.000000
30
0.000000
11
0.000000
21
-0.950000
31
0.000000
12
0.475000
22
-0.822724
32
0.000000
13
0.475000
23
-0.822724
33
0.000000
0
SOLID
8
0
10
0.000000
20
0.000000
30
0.000000
11
0.475000
21
-0.822724
31
0.000000
12
0.822724
22
-0.475000
32
0.000000
13
0.822724
23
-0.475000
33
0.000000
0
SOLID
8
0
10
0.000000
20
0.000000
30
0.000000
11
0.822724
21
-0.475000
31
0.000000
12
0.950000
22
0.000000
32
0.000000
13
0.950000
23
0.000000
33
0.000000
0
ENDBLK
8
0
0
BLOCK
8
0
2
BCN_WSU
70
0
10
0.000000
20
0.000000
30
0.000000
3
BCN_WSU
1

0
POINT
8
0
10
0.000000
20
0.000000
30
0.000000
0
SOLID
8
0
10
0.000000
20
0.000000
30
0.000000
11
1.050000
21
0.000000
31
0.000000
12
0.909327
22
0.525000
32
0.000000
13
0.909327
23
0.525000
33
0.000000
0
SOLID
8
0
10
0.000000
20
0.000000
30
0.000000
11
0.909327
21
0.525000
31
0.000000
12
0.525000
22
0.909327
32
0.000000
13
0.525000
23
0.909327
33
0.000000
0
SOLID
8
0
10
0.000000
20
0.000000
30
0.000000
11
0.525000
21
0.909327
31
0.000000
12
0.000000
22
1.050000
32
0.000000
13
0.000000
23
1.050000
33
0.000000
0
SOLID
8
0
10
0.000000
20
0.000000
30
0.000000
11
0.000000
21
1.050000
31
0.000000
12
-0.525000
22
0.909327
32
0.000000
13
-0.525000
23
0.909327
33
0.000000
0
SOLID
8
0
10
0.000000
20
0.000000
30
0.000000
11
-0.525000
21
0.909327
31
0.000000
12
-0.909327
22
0.525000
32
0.000000
13
-0.909327
23
0.525000
33
0.000000
0
SOLID
8
0
10
0.000000
20
0.000000
30
0.000000
11
-0.909327
21
0.525000
31
0.000000
12
-1.050000
22
0.000000
32
0.000000
13
-1.050000
23
0.000000
33
0.000000
0
SOLID
8
0
10
0.000000
20
0.000000
30
0.000000
11
-1.050000
21
0.000000
31
0.000000
12
-0.909327
22
-0.525000
32
0.000000
13
-0.909327
23
-0.525000
33
0.000000
0
SOLID
8
0
10
0.000000
20
0.000000
30
0.000000
11
-0.909327
21
-0.525000
31
0.000000
12
-0.525000
22
-0.909327
32
0.000000
13
-0.525000
23
-0.909327
33
0.000000
0
SOLID
8
0
10
0.000000
20
0.000000
30
0.000000
11
-0.525000
21
-0.909327
31
0.000000
12
0.000000
22
-1.050000
32
0.000000
13
0.000000
23
-1.050000
33
0.000000
0
SOLID
8
0
10
0.000000
20
0.000000
30
0.000000
11
0.000000
21
-1.050000
31
0.000000
12
0.525000
22
-0.909327
32
0.000000
13
0.525000
23
-0.909327
33
0.000000
0
SOLID
8
0
10
0.000000
20
0.000000
30
0.000000
11
0.525000
21
-0.909327
31
0.000000
12
0.909327
22
-0.525000
32
0.000000
13
0.909327
23
-0.525000
33
0.000000
0
SOLID
8
0
10
0.000000
20
0.000000
30
0.000000
11
0.909327
21
-0.525000
31
0.000000
12
1.050000
22
0.000000
32
0.000000
13
1.050000
23
0.000000
33
0.000000
0
ENDBLK
8
0
0
BLOCK
8
0
2
BCN_TRIG
70
0
10
0.000000
20
0.000000
30
0.000000
3
BCN_TRIG
1

0
POINT
8
0
10
0.000000
20
0.000000
30
0.000000
0
SOLID
8
0
10
2.415741
20
-0.190299
30
0.000000
11
2.379041
21
0.229191
31
0.000000
12
2.878594
22
-0.190299
32
0.000000
13
2.583412
23
0.265227
33
0.000000
0
SOLID
8
0
10
2.379041
20
0.229191
30
0.000000
11
2.270054
21
0.635934
31
0.000000
12
2.583412
22
0.265227
32
0.000000
13
2.329235
23
0.657474
33
0.000000
0
SOLID
8
0
10
2.270054
20
0.635934
30
0.000000
11
2.092093
21
1.017572
31
0.000000
12
2.329235
22
0.657474
32
0.000000
13
2.094857
23
1.019168
33
0.000000
0
SOLID
8
0
10
2.092093
20
1.017572
30
0.000000
11
1.850565
21
1.362510
31
0.000000
12
2.094857
22
1.019168
32
0.000000
13
1.864690
23
1.374362
33
0.000000
0
SOLID
8
0
10
1.850565
20
1.362510
30
0.000000
11
1.552809
21
1.660267
31
0.000000
12
1.864690
22
1.374362
32
0.000000
13
1.624251
23
1.745409
33
0.000000
0
SOLID
8
0
10
1.552809
20
1.660267
30
0.000000
11
1.207871
21
1.901795
31
0.000000
12
1.624251
22
1.745409
32
0.000000
13
1.356309
23
2.158898
33
0.000000
0
SOLID
8
0
10
1.207871
20
1.901795
30
0.000000
11
0.826232
21
2.079756
31
0.000000
12
1.356309
22
2.158898
32
0.000000
13
1.035327
23
2.654239
33
0.000000
0
SOLID
8
0
10
0.826232
20
2.079756
30
0.000000
11
0.419489
21
2.188742
31
0.000000
12
1.035327
22
2.654239
32
0.000000
13
0.615742
23
3.301745
33
0.000000
0
SOLID
8
0
10
0.419489
20
2.188742
30
0.000000
11
0.000000
21
2.225443
31
0.000000
12
0.615742
22
3.301745
32
0.000000
13
0.000000
23
4.251960
33
0.000000
0
SOLID
8
0
10
0.000000
20
2.225443
30
0.000000
11
-0.419489
21
2.188742
31
0.000000
12
0.000000
22
4.251960
32
0.000000
13
-0.615742
23
3.301745
33
0.000000
0
SOLID
8
0
10
-0.419489
20
2.188742
30
0.000000
11
-0.826232
21
2.079756
31
0.000000
12
-0.615742
22
3.301745
32
0.000000
13
-1.035327
23
2.654239
33
0.000000
0
SOLID
8
0
10
-0.826232
20
2.079756
30
0.000000
11
-1.207871
21
1.901795
31
0.000000
12
-1.035327
22
2.654239
32
0.000000
13
-1.356309
23
2.158898
33
0.000000
0
SOLID
8
0
10
-1.207871
20
1.901795
30
0.000000
11
-1.552809
21
1.660267
31
0.000000
12
-1.356309
22
2.158898
32
0.000000
13
-1.624251
23
1.745409
33
0.000000
0
SOLID
8
0
10
-1.552809
20
1.660267
30
0.000000
11
-1.850565
21
1.362510
31
0.000000
12
-1.624251
22
1.745409
32
0.000000
13
-1.864690
23
1.374362
33
0.000000
0
SOLID
8
0
10
-1.850565
20
1.362510
30
0.000000
11
-2.092093
21
1.017572
31
0.000000
12
-1.864690
22
1.374362
32
0.000000
13
-2.094857
23
1.019168
33
0.000000
0
SOLID
8
0
10
-2.092093
20
1.017572
30
0.000000
11
-2.270054
21
0.635934
31
0.000000
12
-2.094857
22
1.019168
32
0.000000
13
-2.329235
23
0.657474
33
0.000000
0
SOLID
8
0
10
-2.270054
20
0.635934
30
0.000000
11
-2.379041
21
0.229191
31
0.000000
12
-2.329235
22
0.657474
32
0.000000
13
-2.583412
23
0.265227
33
0.000000
0
SOLID
8
0
10
-2.379041
20
0.229191
30
0.000000
11
-2.415741
21
-0.190299
31
0.000000
12
-2.583412
22
0.265227
32
0.000000
13
-2.878594
23
-0.190299
33
0.000000
0
SOLID
8
0
10
-2.415741
20
-0.190299
30
0.000000
11
-2.379041
21
-0.609788
31
0.000000
12
-2.878594
22
-0.190299
32
0.000000
13
-3.249932
23
-0.763349
33
0.000000
0
SOLID
8
0
10
-2.379041
20
-0.609788
30
0.000000
11
-2.270054
21
-1.016531
31
0.000000
12
-3.249932
22
-0.763349
32
0.000000
13
-3.767071
23
-1.561400
33
0.000000
0
SOLID
8
0
10
-2.270054
20
-1.016531
30
0.000000
11
-2.092093
21
-1.398169
31
0.000000
12
-3.767071
22
-1.561400
32
0.000000
13
-4.184187
23
-2.606040
33
0.000000
0
SOLID
8
0
10
-2.092093
20
-1.398169
30
0.000000
11
-1.850565
21
-1.743107
31
0.000000
12
-4.184187
22
-2.606040
32
0.000000
13
-2.878969
23
-2.606040
33
0.000000
0
SOLID
8
0
10
-1.850565
20
-1.743107
30
0.000000
11
-1.552809
21
-2.040864
31
0.000000
12
-2.878969
22
-2.606040
32
0.000000
13
-2.027048
23
-2.606040
33
0.000000
0
SOLID
8
0
10
-1.552809
20
-2.040864
30
0.000000
11
-1.207871
21
-2.282392
31
0.000000
12
-2.027048
22
-2.606040
32
0.000000
13
-1.394729
23
-2.606040
33
0.000000
0
SOLID
8
0
10
-1.207871
20
-2.282392
30
0.000000
11
-0.826232
21
-2.460353
31
0.000000
12
-1.394729
22
-2.606040
32
0.000000
13
-0.879258
23
-2.606040
33
0.000000
0
SOLID
8
0
10
-0.826232
20
-2.460353
30
0.000000
11
-0.419489
21
-2.569339
31
0.000000
12
-0.879258
22
-2.606040
32
0.000000
13
-0.425960
23
-2.606040
33
0.000000
0
SOLID
8
0
10
-0.419489
20
-2.569339
30
0.000000
11
0.000000
21
-2.606040
31
0.000000
12
-0.425960
22
-2.606040
32
0.000000
13
0.000000
23
-2.606040
33
0.000000
0
SOLID
8
0
10
0.000000
20
-2.606040
30
0.000000
11
0.419489
21
-2.569339
31
0.000000
12
0.000000
22
-2.606040
32
0.000000
13
0.425960
23
-2.606040
33
0.000000
0
SOLID
8
0
10
0.419489
20
-2.569339
30
0.000000
11
0.826232
21
-2.460353
31
0.000000
12
0.425960
22
-2.606040
32
0.000000
13
0.879258
23
-2.606040
33
0.000000
0
SOLID
8
0
10
0.826232
20
-2.460353
30
0.000000
11
1.207871
21
-2.282392
31
0.000000
12
0.879258
22
-2.606040
32
0.000000
13
1.394729
23
-2.606040
33
0.000000
0
SOLID
8
0
10
1.207871
20
-2.282392
30
0.000000
11
1.552809
21
-2.040864
31
0.000000
12
1.394729
22
-2.606040
32
0.000000
13
2.027048
23
-2.606040
33
0.000000
0
SOLID
8
0
10
1.552809
20
-2.040864
30
0.000000
11
1.850565
21
-1.743107
31
0.000000
12
2.027048
22
-2.606040
32
0.000000
13
2.878969
23
-2.606040
33
0.000000
0
SOLID
8
0
10
1.850565
20
-1.743107
30
0.000000
11
2.092093
21
-1.398169
31
0.000000
12
2.878969
22
-2.606040
32
0.000000
13
4.184187
23
-2.606040
33
0.000000
0
SOLID
8
0
10
2.092093
20
-1.398169
30
0.000000
11
2.270054
21
-1.016531
31
0.000000
12
4.184187
22
-2.606040
32
0.000000
13
3.767071
23
-1.561400
33
0.000000
0
SOLID
8
0
10
2.270054
20
-1.016531
30
0.000000
11
2.379041
21
-0.609788
31
0.000000
12
3.767071
22
-1.561400
32
0.000000
13
3.249932
23
-0.763349
33
0.000000
0
SOLID
8
0
10
2.379041
20
-0.609788
30
0.000000
11
2.415741
21
-0.190299
31
0.000000
12
3.249932
22
-0.763349
32
0.000000
13
2.878594
23
-0.190299
33
0.000000
0
ENDBLK
8
0
0
BLOCK
8
0
2
BCN_OCP
70
0
10
0.000000
20
0.000000
30
0.000000
3
BCN_OCP
1

0
POINT
8
0
10
0.000000
20
0.000000
30
0.000000
0
SOLID
8
0
10
2.415741
20
0.190299
30
0.000000
11
2.379041
21
0.609788
31
0.000000
12
2.878594
22
0.190299
32
0.000000
13
3.249932
23
0.763349
33
0.000000
0
SOLID
8
0
10
2.379041
20
0.609788
30
0.000000
11
2.270054
21
1.016531
31
0.000000
12
3.249932
22
0.763349
32
0.000000
13
3.767071
23
1.561400
33
0.000000
0
SOLID
8
0
10
2.270054
20
1.016531
30
0.000000
11
2.092093
21
1.398169
31
0.000000
12
3.767071
22
1.561400
32
0.000000
13
4.184187
23
2.606040
33
0.000000
0
SOLID
8
0
10
2.092093
20
1.398169
30
0.000000
11
1.850565
21
1.743107
31
0.000000
12
4.184187
22
2.606040
32
0.000000
13
2.878969
23
2.606040
33
0.000000
0
SOLID
8
0
10
1.850565
20
1.743107
30
0.000000
11
1.552809
21
2.040864
31
0.000000
12
2.878969
22
2.606040
32
0.000000
13
2.027048
23
2.606040
33
0.000000
0
SOLID
8
0
10
1.552809
20
2.040864
30
0.000000
11
1.207871
21
2.282392
31
0.000000
12
2.027048
22
2.606040
32
0.000000
13
1.394729
23
2.606040
33
0.000000
0
SOLID
8
0
10
1.207871
20
2.282392
30
0.000000
11
0.826232
21
2.460353
31
0.000000
12
1.394729
22
2.606040
32
0.000000
13
0.879258
23
2.606040
33
0.000000
0
SOLID
8
0
10
0.826232
20
2.460353
30
0.000000
11
0.419489
21
2.569339
31
0.000000
12
0.879258
22
2.606040
32
0.000000
13
0.425960
23
2.606040
33
0.000000
0
SOLID
8
0
10
0.419489
20
2.569339
30
0.000000
11
0.000000
21
2.606040
31
0.000000
12
0.425960
22
2.606040
32
0.000000
13
0.000000
23
2.606040
33
0.000000
0
SOLID
8
0
10
0.000000
20
2.606040
30
0.000000
11
-0.419489
21
2.569339
31
0.000000
12
0.000000
22
2.606040
32
0.000000
13
-0.425960
23
2.606040
33
0.000000
0
SOLID
8
0
10
-0.419489
20
2.569339
30
0.000000
11
-0.826232
21
2.460353
31
0.000000
12
-0.425960
22
2.606040
32
0.000000
13
-0.879258
23
2.606040
33
0.000000
0
SOLID
8
0
10
-0.826232
20
2.460353
30
0.000000
11
-1.207871
21
2.282392
31
0.000000
12
-0.879258
22
2.606040
32
0.000000
13
-1.394729
23
2.606040
33
0.000000
0
SOLID
8
0
10
-1.207871
20
2.282392
30
0.000000
11
-1.552809
21
2.040864
31
0.000000
12
-1.394729
22
2.606040
32
0.000000
13
-2.027048
23
2.606040
33
0.000000
0
SOLID
8
0
10
-1.552809
20
2.040864
30
0.000000
11
-1.850565
21
1.743107
31
0.000000
12
-2.027048
22
2.606040
32
0.000000
13
-2.878969
23
2.606040
33
0.000000
0
SOLID
8
0
10
-1.850565
20
1.743107
30
0.000000
11
-2.092093
21
1.398169
31
0.000000
12
-2.878969
22
2.606040
32
0.000000
13
-4.184187
23
2.606040
33
0.000000
0
SOLID
8
0
10
-2.092093
20
1.398169
30
0.000000
11
-2.270054
21
1.016531
31
0.000000
12
-4.184187
22
2.606040
32
0.000000
13
-3.767071
23
1.561400
33
0.000000
0
SOLID
8
0
10
-2.270054
20
1.016531
30
0.000000
11
-2.379041
21
0.609788
31
0.000000
12
-3.767071
22
1.561400
32
0.000000
13
-3.249932
23
0.763349
33
0.000000
0
SOLID
8
0
10
-2.379041
20
0.609788
30
0.000000
11
-2.415741
21
0.190299
31
0.000000
12
-3.249932
22
0.763349
32
0.000000
13
-2.878594
23
0.190299
33
0.000000
0
SOLID
8
0
10
-2.415741
20
0.190299
30
0.000000
11
-2.379041
21
-0.229191
31
0.000000
12
-2.878594
22
0.190299
32
0.000000
13
-2.583412
23
-0.265227
33
0.000000
0
SOLID
8
0
10
-2.379041
20
-0.229191
30
0.000000
11
-2.270054
21
-0.635934
31
0.000000
12
-2.583412
22
-0.265227
32
0.000000
13
-2.329235
23
-0.657474
33
0.000000
0
SOLID
8
0
10
-2.270054
20
-0.635934
30
0.000000
11
-2.092093
21
-1.017572
31
0.000000
12
-2.329235
22
-0.657474
32
0.000000
13
-2.094857
23
-1.019168
33
0.000000
0
SOLID
8
0
10
-2.092093
20
-1.017572
30
0.000000
11
-1.850565
21
-1.362510
31
0.000000
12
-2.094857
22
-1.019168
32
0.000000
13
-1.864690
23
-1.374362
33
0.000000
0
SOLID
8
0
10
-1.850565
20
-1.362510
30
0.000000
11
-1.552809
21
-1.660267
31
0.000000
12
-1.864690
22
-1.374362
32
0.000000
13
-1.624251
23
-1.745409
33
0.000000
0
SOLID
8
0
10
-1.552809
20
-1.660267
30
0.000000
11
-1.207871
21
-1.901795
31
0.000000
12
-1.624251
22
-1.745409
32
0.000000
13
-1.356309
23
-2.158898
33
0.000000
0
SOLID
8
0
10
-1.207871
20
-1.901795
30
0.000000
11
-0.826232
21
-2.079756
31
0.000000
12
-1.356309
22
-2.158898
32
0.000000
13
-1.035327
23
-2.654239
33
0.000000
0
SOLID
8
0
10
-0.826232
20
-2.079756
30
0.000000
11
-0.419489
21
-2.188742
31
0.000000
12
-1.035327
22
-2.654239
32
0.000000
13
-0.615742
23
-3.301745
33
0.000000
0
SOLID
8
0
10
-0.419489
20
-2.188742
30
0.000000
11
0.000000
21
-2.225443
31
0.000000
12
-0.615742
22
-3.301745
32
0.000000
13
0.000000
23
-4.251960
33
0.000000
0
SOLID
8
0
10
0.000000
20
-2.225443
30
0.000000
11
0.419489
21
-2.188742
31
0.000000
12
0.000000
22
-4.251960
32
0.000000
13
0.615742
23
-3.301745
33
0.000000
0
SOLID
8
0
10
0.419489
20
-2.188742
30
0.000000
11
0.826232
21
-2.079756
31
0.000000
12
0.615742
22
-3.301745
32
0.000000
13
1.035327
23
-2.654239
33
0.000000
0
SOLID
8
0
10
0.826232
20
-2.079756
30
0.000000
11
1.207871
21
-1.901795
31
0.000000
12
1.035327
22
-2.654239
32
0.000000
13
1.356309
23
-2.158898
33
0.000000
0
SOLID
8
0
10
1.207871
20
-1.901795
30
0.000000
11
1.552809
21
-1.660267
31
0.000000
12
1.356309
22
-2.158898
32
0.000000
13
1.624251
23
-1.745409
33
0.000000
0
SOLID
8
0
10
1.552809
20
-1.660267
30
0.000000
11
1.850565
21
-1.362510
31
0.000000
12
1.624251
22
-1.745409
32
0.000000
13
1.864690
23
-1.374362
33
0.000000
0
SOLID
8
0
10
1.850565
20
-1.362510
30
0.000000
11
2.092093
21
-1.017572
31
0.000000
12
1.864690
22
-1.374362
32
0.000000
13
2.094857
23
-1.019168
33
0.000000
0
SOLID
8
0
10
2.092093
20
-1.017572
30
0.000000
11
2.270054
21
-0.635934
31
0.000000
12
2.094857
22
-1.019168
32
0.000000
13
2.329235
23
-0.657474
33
0.000000
0
SOLID
8
0
10
2.270054
20
-0.635934
30
0.000000
11
2.379041
21
-0.229191
31
0.000000
12
2.329235
22
-0.657474
32
0.000000
13
2.583412
23
-0.265227
33
0.000000
0
SOLID
8
0
10
2.379041
20
-0.229191
30
0.000000
11
2.415741
21
0.190299
31
0.000000
12
2.583412
22
-0.265227
32
0.000000
13
2.878594
23
0.190299
33
0.000000
0
ENDBLK
8
0
0
ENDSEC
0
SECTION
2
ENTITIES
0
POLYLINE
8
SHEET-BORDER
66
1
70
1
10
0.000000
20
0.000000
30
0.000000
0
VERTEX
8
SHEET-BORDER
10
85567.715000
20
-2143891.485000
30
0.000000
0
VERTEX
8
SHEET-BORDER
10
86159.715000
20
-2143891.485000
30
0.000000
0
VERTEX
8
SHEET-BORDER
10
86159.715000
20
-2144309.485000
30
0.000000
0
VERTEX
8
SHEET-BORDER
10
85567.715000
20
-2144309.485000
30
0.000000
0
SEQEND
8
SHEET-BORDER
0
LINE
8
BOUNDARY-NEW
10
85675.676675
20
-2144025.313969
30
0.000000
11
85726.243952
21
-2143974.765120
31
0.000000
0
LINE
8
BOUNDARY-NEW
10
85730.989388
20
-2143975.070034
30
0.000000
11
85739.300612
21
-2143985.839966
31
0.000000
0
LINE
8
BOUNDARY-NEW
10
85743.798726
20
-2143991.460534
30
0.000000
11
85763.534940
21
-2144015.247557
31
0.000000
0
LINE
8
BOUNDARY-NEW
10
85763.214213
20
-2144018.773048
30
0.000000
11
85712.035787
21
-2144061.596952
31
0.000000
0
LINE
8
BOUNDARY-NEW
10
85708.351451
20
-2144061.435846
30
0.000000
11
85675.678549
21
-2144028.844154
31
0.000000
0
TEXT
8
PARCEL-TEXT
7
ARIAL
10
85719.722453
20
-2144022.303667
30
0.000000
40
6.140000
1
405
50
0.000000
41
1.000000
72
1
11
85719.722453
21
-2144022.303667
31
0.000000
0
LINE
8
BOUNDARY-NEW
10
85635.679348
20
-2144065.498195
30
0.000000
11
85672.147974
21
-2144028.850669
31
0.000000
0
LINE
8
BOUNDARY-NEW
10
85675.678549
20
-2144028.844154
30
0.000000
11
85708.351451
21
-2144061.435846
31
0.000000
0
LINE
8
BOUNDARY-NEW
10
85711.889013
20
-2144064.963689
30
0.000000
11
85721.640987
21
-2144074.686311
31
0.000000
0
LINE
8
BOUNDARY-NEW
10
85721.645592
20
-2144078.218295
30
0.000000
11
85684.314408
21
-2144115.631705
31
0.000000
0
LINE
8
BOUNDARY-NEW
10
85680.782574
20
-2144115.634721
30
0.000000
11
85635.687130
21
-2144070.594037
31
0.000000
0
TEXT
8
PARCEL-TEXT
7
ARIAL
10
85678.258973
20
-2144075.313123
30
0.000000
40
6.140000
1
404
50
0.000000
41
1.000000
72
1
11
85678.258973
21
-2144075.313123
31
0.000000
0
LINE
8
BOUNDARY-NEW
10
85684.314408
20
-2144115.631705
30
0.000000
11
85721.645592
21
-2144078.218295
31
0.000000
0
LINE
8
BOUNDARY-NEW
10
85725.305074
20
-2144078.077482
30
0.000000
11
85772.504926
21
-2144118.612518
31
0.000000
0
LINE
8
BOUNDARY-NEW
10
85772.634640
20
-2144122.007345
30
0.000000
11
85731.705360
21
-2144162.982655
31
0.000000
0
LINE
8
BOUNDARY-NEW
10
85728.172902
20
-2144162.984393
30
0.000000
11
85684.317098
21
-2144119.165607
31
0.000000
0
TEXT
8
PARCEL-TEXT
7
ARIAL
10
85727.920411
20
-2144123.098043
30
0.000000
40
6.140000
1
403
50
0.000000
41
1.000000
72
1
11
85727.920411
21
-2144123.098043
31
0.000000
0
LINE
8
BOUNDARY-NEW
10
85712.035787
20
-2144061.596952
30
0.000000
11
85763.214213
21
-2144018.773048
31
0.000000
0
LINE
8
BOUNDARY-NEW
10
85766.725375
20
-2144019.092182
30
0.000000
11
85807.400821
21
-2144068.099842
31
0.000000
0
LINE
8
BOUNDARY-NEW
10
85812.101420
20
-2144073.552011
30
0.000000
11
85814.623681
21
-2144076.368983
31
0.000000
0
LINE
8
BOUNDARY-NEW
10
85814.526175
20
-2144079.998877
30
0.000000
11
85776.163825
21
-2144118.471123
31
0.000000
0
LINE
8
BOUNDARY-NEW
10
85772.504926
20
-2144118.612518
30
0.000000
11
85725.305074
21
-2144078.077482
31
0.000000
0
LINE
8
BOUNDARY-NEW
10
85721.640987
20
-2144074.686311
30
0.000000
11
85711.889013
21
-2144064.963689
31
0.000000
0
TEXT
8
PARCEL-TEXT
7
ARIAL
10
85764.974358
20
-2144072.306751
30
0.000000
40
6.140000
1
Rem./
50
0.000000
41
1.000000
72
1
11
85764.974358
21
-2144072.306751
31
0.000000
0
LINE
8
BOUNDARY-EXIST
10
85765.130000
20
-2144017.170000
30
0.000000
11
85836.841418
21
-2144102.758335
31
0.000000
0
LINE
8
BOUNDARY-EXIST
10
85816.290000
20
-2144078.230000
30
0.000000
11
85774.400000
21
-2144120.240000
31
0.000000
0
LINE
8
BOUNDARY-EXIST
10
85741.500000
20
-2143988.690000
30
0.000000
11
85714.127411
21
-2143953.219777
31
0.000000
0
LINE
8
BOUNDARY-EXIST
10
85729.940000
20
-2144164.750000
30
0.000000
11
85610.500892
21
-2144045.434280
31
0.000000
0
LINE
8
BOUNDARY-EXIST
10
85633.140000
20
-2144068.050000
30
0.000000
11
85752.579108
21
-2144187.365720
31
0.000000
0
TEXT
8
ROAD-TEXT
7
ARIAL
10
85775.840308
20
-2144000.368533
30
0.000000
40
4.100000
1
Main Road
50
-50.041557
41
1.200000
72
0
0
TEXT
8
ROAD-TEXT
7
ARIAL
10
85632.608227
20
-2144133.669793
30
0.000000
40
4.100000
1
Klein Road 25.19 m
50
-44.970390
41
1.200000
72
0
0
TEXT
8
PARCEL-TEXT
7
ARIAL
10
85662.000000
20
-2144004.200000
30
0.000000
40
4.100000
1
86
50
0.000000
41
1.000000
72
1
11
85662.000000
21
-2144004.200000
31
0.000000
0
TEXT
8
PARCEL-TEXT
7
ARIAL
10
85796.200000
20
-2144138.100000
30
0.000000
40
4.100000
1
88
50
0.000000
41
1.000000
72
1
11
85796.200000
21
-2144138.100000
31
0.000000
0
INSERT
8
BEACONS
2
BCN_RM
10
85728.790000
20
-2143972.220000
30
0.000000
41
1.000000
42
1.000000
43
1.000000
50
0.000000
0
TEXT
8
BEACON-TEXT
7
ARIAL
10
85734.234000
20
-2143974.270000
30
0.000000
40
4.100000
1
86B
50
0.000000
41
1.000000
72
0
0
INSERT
8
BEACONS
2
BCN_RM
10
85741.500000
20
-2143988.690000
30
0.000000
41
1.000000
42
1.000000
43
1.000000
50
0.000000
0
TEXT
8
BEACON-TEXT
7
ARIAL
10
85746.944000
20
-2143990.740000
30
0.000000
40
4.100000
1
87B
50
0.000000
41
1.000000
72
0
0
INSERT
8
BEACONS
2
BCN_RM
10
85764.700000
20
-2144004.380000
30
0.000000
41
1.000000
42
1.000000
43
1.000000
50
0.000000
0
TEXT
8
BEACON-TEXT
7
ARIAL
10
85764.700000
20
-2143998.136000
30
0.000000
40
4.100000
1
CHK
50
0.000000
41
1.000000
72
1
11
85764.700000
21
-2143998.136000
31
0.000000
0
INSERT
8
BEACONS
2
BCN_PLACED
10
85765.130000
20
-2144017.170000
30
0.000000
41
1.000000
42
1.000000
43
1.000000
50
0.000000
0
TEXT
8
BEACON-TEXT
7
ARIAL
10
85765.130000
20
-2144027.114000
30
0.000000
40
4.100000
1
SD1
50
0.000000
41
1.000000
72
1
11
85765.130000
21
-2144027.114000
31
0.000000
0
INSERT
8
BEACONS
2
BCN_PLACED
10
85673.910000
20
-2144027.080000
30
0.000000
41
1.000000
42
1.000000
43
1.000000
50
0.000000
0
TEXT
8
BEACON-TEXT
7
ARIAL
10
85673.910000
20
-2144020.836000
30
0.000000
40
4.100000
1
SD4
50
0.000000
41
1.000000
72
1
11
85673.910000
21
-2144020.836000
31
0.000000
0
INSERT
8
BEACONS
2
BCN_RM
10
85778.600000
20
-2144038.340000
30
0.000000
41
1.000000
42
1.000000
43
1.000000
50
0.000000
0
TEXT
8
BEACON-TEXT
7
ARIAL
10
85773.156000
20
-2144040.390000
30
0.000000
40
4.100000
1
BASE
50
0.000000
41
1.000000
72
2
11
85773.156000
21
-2144040.390000
31
0.000000
0
INSERT
8
BEACONS
2
BCN_PLACED
10
85710.120000
20
-2144063.200000
30
0.000000
41
1.000000
42
1.000000
43
1.000000
50
0.000000
0
TEXT
8
BEACON-TEXT
7
ARIAL
10
85704.676000
20
-2144065.250000
30
0.000000
40
4.100000
1
SD5
50
0.000000
41
1.000000
72
2
11
85704.676000
21
-2144065.250000
31
0.000000
0
INSERT
8
BEACONS
2
BCN_RM
10
85633.140000
20
-2144068.050000
30
0.000000
41
1.000000
42
1.000000
43
1.000000
50
0.000000
0
TEXT
8
BEACON-TEXT
7
ARIAL
10
85627.696000
20
-2144070.100000
30
0.000000
40
4.100000
1
86C
50
0.000000
41
1.000000
72
2
11
85627.696000
21
-2144070.100000
31
0.000000
0
INSERT
8
BEACONS
2
BCN_RM
10
85809.700000
20
-2144070.870000
30
0.000000
41
1.000000
42
1.000000
43
1.000000
50
0.000000
0
TEXT
8
BEACON-TEXT
7
ARIAL
10
85815.144000
20
-2144072.920000
30
0.000000
40
4.100000
1
87A
50
0.000000
41
1.000000
72
0
0
INSERT
8
BEACONS
2
BCN_PLACED
10
85723.410000
20
-2144076.450000
30
0.000000
41
1.000000
42
1.000000
43
1.000000
50
0.000000
0
TEXT
8
BEACON-TEXT
7
ARIAL
10
85728.854000
20
-2144078.500000
30
0.000000
40
4.100000
1
SD6
50
0.000000
41
1.000000
72
0
0
INSERT
8
BEACONS
2
BCN_PLACED
10
85816.290000
20
-2144078.230000
30
0.000000
41
1.000000
42
1.000000
43
1.000000
50
0.000000
0
TEXT
8
BEACON-TEXT
7
ARIAL
10
85821.734000
20
-2144080.280000
30
0.000000
40
4.100000
1
87CR
50
0.000000
41
1.000000
72
0
0
INSERT
8
BEACONS
2
BCN_RM
10
85623.810000
20
-2144100.660000
30
0.000000
41
1.000000
42
1.000000
43
1.000000
50
0.000000
0
TEXT
8
BEACON-TEXT
7
ARIAL
10
85618.366000
20
-2144102.710000
30
0.000000
40
4.100000
1
RM16
50
0.000000
41
1.000000
72
2
11
85618.366000
21
-2144102.710000
31
0.000000
0
INSERT
8
BEACONS
2
BCN_PLACED
10
85682.550000
20
-2144117.400000
30
0.000000
41
1.000000
42
1.000000
43
1.000000
50
0.000000
0
TEXT
8
BEACON-TEXT
7
ARIAL
10
85687.994000
20
-2144119.450000
30
0.000000
40
4.100000
1
SD3
50
0.000000
41
1.000000
72
0
0
INSERT
8
BEACONS
2
BCN_PLACED
10
85774.400000
20
-2144120.240000
30
0.000000
41
1.000000
42
1.000000
43
1.000000
50
0.000000
0
TEXT
8
BEACON-TEXT
7
ARIAL
10
85777.122000
20
-2144129.239600
30
0.000000
40
4.100000
1
SD2
50
0.000000
41
1.000000
72
0
0
INSERT
8
BEACONS
2
BCN_RM
10
85643.500000
20
-2144120.410000
30
0.000000
41
1.000000
42
1.000000
43
1.000000
50
0.000000
0
TEXT
8
BEACON-TEXT
7
ARIAL
10
85640.778000
20
-2144129.409600
30
0.000000
40
4.100000
1
RM15
50
0.000000
41
1.000000
72
2
11
85640.778000
21
-2144129.409600
31
0.000000
0
INSERT
8
BEACONS
2
BCN_PLACED
10
85729.940000
20
-2144164.750000
30
0.000000
41
1.000000
42
1.000000
43
1.000000
50
0.000000
0
TEXT
8
BEACON-TEXT
7
ARIAL
10
85727.218000
20
-2144173.749600
30
0.000000
40
4.100000
1
87DR
50
0.000000
41
1.000000
72
2
11
85727.218000
21
-2144173.749600
31
0.000000
0
INSERT
8
BEACONS
2
BCN_RM
10
85828.080000
20
-2144262.680000
30
0.000000
41
1.000000
42
1.000000
43
1.000000
50
0.000000
0
TEXT
8
BEACON-TEXT
7
ARIAL
10
85828.080000
20
-2144256.436000
30
0.000000
40
4.100000
1
88X2
50
0.000000
41
1.000000
72
1
11
85828.080000
21
-2144256.436000
31
0.000000
0
LINE
8
GRID
10
85591.992000
20
-2144200.000000
30
0.000000
11
85608.008000
21
-2144200.000000
31
0.000000
0
LINE
8
GRID
10
85600.000000
20
-2144208.008000
30
0.000000
11
85600.000000
21
-2144191.992000
31
0.000000
0
TEXT
8
GRID-TEXT
7
ARIAL
10
85608.900000
20
-2144202.120000
30
0.000000
40
4.100000
1
X = +2144200
50
0.000000
41
1.000000
72
0
0
TEXT
8
GRID-TEXT
7
ARIAL
10
85597.960000
20
-2144210.760000
30
0.000000
40
4.100000
1
Y = -85600
50
-90.000000
41
1.000000
72
0
0
LINE
8
GRID
10
85591.992000
20
-2144000.000000
30
0.000000
11
85608.008000
21
-2144000.000000
31
0.000000
0
LINE
8
GRID
10
85600.000000
20
-2144008.008000
30
0.000000
11
85600.000000
21
-2143991.992000
31
0.000000
0
TEXT
8
GRID-TEXT
7
ARIAL
10
85608.900000
20
-2144002.120000
30
0.000000
40
4.100000
1
X = +2144000
50
0.000000
41
1.000000
72
0
0
TEXT
8
GRID-TEXT
7
ARIAL
10
85597.960000
20
-2144010.760000
30
0.000000
40
4.100000
1
Y = -85600
50
-90.000000
41
1.000000
72
0
0
LINE
8
GRID
10
85691.992000
20
-2144200.000000
30
0.000000
11
85708.008000
21
-2144200.000000
31
0.000000
0
LINE
8
GRID
10
85700.000000
20
-2144208.008000
30
0.000000
11
85700.000000
21
-2144191.992000
31
0.000000
0
TEXT
8
GRID-TEXT
7
ARIAL
10
85708.900000
20
-2144202.120000
30
0.000000
40
4.100000
1
X = +2144200
50
0.000000
41
1.000000
72
0
0
TEXT
8
GRID-TEXT
7
ARIAL
10
85697.960000
20
-2144210.760000
30
0.000000
40
4.100000
1
Y = -85700
50
-90.000000
41
1.000000
72
0
0
LINE
8
GRID
10
85791.992000
20
-2144200.000000
30
0.000000
11
85808.008000
21
-2144200.000000
31
0.000000
0
LINE
8
GRID
10
85800.000000
20
-2144208.008000
30
0.000000
11
85800.000000
21
-2144191.992000
31
0.000000
0
TEXT
8
GRID-TEXT
7
ARIAL
10
85808.900000
20
-2144202.120000
30
0.000000
40
4.100000
1
X = +2144200
50
0.000000
41
1.000000
72
0
0
TEXT
8
GRID-TEXT
7
ARIAL
10
85797.960000
20
-2144210.760000
30
0.000000
40
4.100000
1
Y = -85800
50
-90.000000
41
1.000000
72
0
0
TEXT
8
TITLE
7
ARIAL-BOLD
10
85918.575000
20
-2143918.885000
30
0.000000
40
9.875000
1
Survey of
50
0.000000
41
1.000000
72
1
11
85918.575000
21
-2143918.885000
31
0.000000
0
TEXT
8
TITLE
7
ARIAL-BOLD
10
85918.575000
20
-2143943.085000
30
0.000000
40
7.900000
1
Stands 403-405 Brackenhurst Township
50
0.000000
41
1.000000
72
1
11
85918.575000
21
-2143943.085000
31
0.000000
0
TEXT
8
TITLE
7
ARIAL-BOLD
10
85918.575000
20
-2143966.885000
30
0.000000
40
7.900000
1
of Stand 87 Brackenhurst Township
50
0.000000
41
1.000000
72
1
11
85918.575000
21
-2143966.885000
31
0.000000
0
TEXT
8
TITLE
7
ARIAL-BOLD
10
85918.575000
20
-2143990.885000
30
0.000000
40
7.900000
1
Gwelo District
50
0.000000
41
1.000000
72
1
11
85918.575000
21
-2143990.885000
31
0.000000
0
TEXT
8
TITLE
7
ARIAL
10
85918.575000
20
-2144010.685000
30
0.000000
40
6.060000
1
Scale 1:2000
50
0.000000
41
1.000000
72
1
11
85918.575000
21
-2144010.685000
31
0.000000
0
POLYLINE
8
NORTH-ARROW
66
1
70
0
10
0.000000
20
0.000000
30
0.000000
0
VERTEX
8
NORTH-ARROW
10
86115.875000
20
-2143941.805000
30
0.000000
0
VERTEX
8
NORTH-ARROW
10
86118.495000
20
-2143904.605000
30
0.000000
0
VERTEX
8
NORTH-ARROW
10
86121.115000
20
-2143941.805000
30
0.000000
0
SEQEND
8
NORTH-ARROW
0
POLYLINE
8
NORTH-ARROW
66
1
70
0
10
0.000000
20
0.000000
30
0.000000
0
VERTEX
8
NORTH-ARROW
10
86121.115000
20
-2143941.805000
30
0.000000
0
VERTEX
8
NORTH-ARROW
10
86118.495000
20
-2144021.205000
30
0.000000
0
VERTEX
8
NORTH-ARROW
10
86115.875000
20
-2143941.805000
30
0.000000
0
SEQEND
8
NORTH-ARROW
0
POLYLINE
8
NORTH-ARROW
66
1
70
0
10
0.000000
20
0.000000
30
0.000000
0
VERTEX
8
NORTH-ARROW
10
86118.495000
20
-2143939.185000
30
0.000000
0
VERTEX
8
NORTH-ARROW
10
86134.495000
20
-2143941.805000
30
0.000000
0
VERTEX
8
NORTH-ARROW
10
86118.495000
20
-2143944.425000
30
0.000000
0
SEQEND
8
NORTH-ARROW
0
POLYLINE
8
NORTH-ARROW
66
1
70
0
10
0.000000
20
0.000000
30
0.000000
0
VERTEX
8
NORTH-ARROW
10
86118.495000
20
-2143944.425000
30
0.000000
0
VERTEX
8
NORTH-ARROW
10
86102.495000
20
-2143941.805000
30
0.000000
0
VERTEX
8
NORTH-ARROW
10
86118.495000
20
-2143939.185000
30
0.000000
0
SEQEND
8
NORTH-ARROW
0
POLYLINE
8
NORTH-ARROW
66
1
70
0
10
0.000000
20
0.000000
30
0.000000
0
VERTEX
8
NORTH-ARROW
10
86116.642380
20
-2143939.952380
30
0.000000
0
VERTEX
8
NORTH-ARROW
10
86125.566068
20
-2143934.733932
30
0.000000
0
VERTEX
8
NORTH-ARROW
10
86120.347620
20
-2143943.657620
30
0.000000
0
SEQEND
8
NORTH-ARROW
0
POLYLINE
8
NORTH-ARROW
66
1
70
0
10
0.000000
20
0.000000
30
0.000000
0
VERTEX
8
NORTH-ARROW
10
86116.642380
20
-2143943.657620
30
0.000000
0
VERTEX
8
NORTH-ARROW
10
86111.423932
20
-2143934.733932
30
0.000000
0
VERTEX
8
NORTH-ARROW
10
86120.347620
20
-2143939.952380
30
0.000000
0
SEQEND
8
NORTH-ARROW
0
POLYLINE
8
NORTH-ARROW
66
1
70
0
10
0.000000
20
0.000000
30
0.000000
0
VERTEX
8
NORTH-ARROW
10
86120.347620
20
-2143943.657620
30
0.000000
0
VERTEX
8
NORTH-ARROW
10
86111.423932
20
-2143948.876068
30
0.000000
0
VERTEX
8
NORTH-ARROW
10
86116.642380
20
-2143939.952380
30
0.000000
0
SEQEND
8
NORTH-ARROW
0
POLYLINE
8
NORTH-ARROW
66
1
70
0
10
0.000000
20
0.000000
30
0.000000
0
VERTEX
8
NORTH-ARROW
10
86120.347620
20
-2143939.952380
30
0.000000
0
VERTEX
8
NORTH-ARROW
10
86125.566068
20
-2143948.876068
30
0.000000
0
VERTEX
8
NORTH-ARROW
10
86116.642380
20
-2143943.657620
30
0.000000
0
SEQEND
8
NORTH-ARROW
0
TEXT
8
NORTH-ARROW
7
ARIAL
10
86110.495000
20
-2143907.585000
30
0.000000
40
4.240000
1
T
50
0.000000
41
1.000000
72
0
0
TEXT
8
NORTH-ARROW
7
ARIAL
10
86120.895000
20
-2143907.585000
30
0.000000
40
4.240000
1
N
50
0.000000
41
1.000000
72
0
0
POLYLINE
8
APPROVAL
66
1
70
1
10
0.000000
20
0.000000
30
0.000000
0
VERTEX
8
APPROVAL
10
86022.975000
20
-2144038.145000
30
0.000000
0
VERTEX
8
APPROVAL
10
86150.495000
20
-2144038.145000
30
0.000000
0
VERTEX
8
APPROVAL
10
86150.495000
20
-2144105.205000
30
0.000000
0
VERTEX
8
APPROVAL
10
86022.975000
20
-2144105.205000
30
0.000000
0
SEQEND
8
APPROVAL
0
TEXT
8
APPROVAL
7
SERIF
10
86086.735000
20
-2144048.005000
30
0.000000
40
6.120000
1
Approved
50
0.000000
41
1.000000
72
1
11
86086.735000
21
-2144048.005000
31
0.000000
0
LINE
8
APPROVAL
6
PLANDOT
10
86042.915000
20
-2144072.045000
30
0.000000
11
86129.515000
21
-2144072.045000
31
0.000000
0
TEXT
8
APPROVAL
7
SERIF
10
86086.735000
20
-2144081.685000
30
0.000000
40
6.120000
1
for Surveyor General
50
0.000000
41
1.000000
72
1
11
86086.735000
21
-2144081.685000
31
0.000000
0
TEXT
8
APPROVAL
7
SERIF
10
86044.315000
20
-2144099.185000
30
0.000000
40
6.120000
1
Date:
50
0.000000
41
1.000000
72
0
0
LINE
8
APPROVAL
6
PLANDOT
10
86066.115000
20
-2144098.705000
30
0.000000
11
86121.715000
21
-2144098.705000
31
0.000000
0
TEXT
8
TITLE
7
ARIAL-BOLD
10
85577.715000
20
-2144252.645000
30
0.000000
40
5.980000
1
Surveyed in July 2026 by me,
50
0.000000
41
1.000000
72
0
0
TEXT
8
TITLE
7
ARIAL-BOLD
10
85606.595000
20
-2144288.645000
30
0.000000
40
5.980000
1
Land Surveyor
50
0.000000
41
1.000000
72
0
0
POLYLINE
8
INSET
66
1
70
1
10
0.000000
20
0.000000
30
0.000000
0
VERTEX
8
INSET
10
85892.515000
20
-2144109.865000
30
0.000000
0
VERTEX
8
INSET
10
86150.655000
20
-2144109.865000
30
0.000000
0
VERTEX
8
INSET
10
86150.655000
20
-2144282.745000
30
0.000000
0
VERTEX
8
INSET
10
85892.515000
20
-2144282.745000
30
0.000000
0
SEQEND
8
INSET
0
TEXT
8
INSET
7
ARIAL-BOLD
10
85902.515000
20
-2144121.865000
30
0.000000
40
6.000000
1
Inset (not to scale)
50
0.000000
41
1.000000
72
0
0
SOLID
8
INSET
10
86050.329789
20
-2144124.043211
30
0.000000
11
86050.292656
21
-2144123.761153
31
0.000000
12
86050.536910
22
-2144124.043211
32
0.000000
13
86050.345757
23
-2144123.746924
33
0.000000
0
SOLID
8
INSET
10
86050.292656
20
-2144123.761153
30
0.000000
11
86050.183785
21
-2144123.498316
31
0.000000
12
86050.345757
22
-2144123.746924
32
0.000000
13
86050.184936
23
-2144123.497651
33
0.000000
0
SOLID
8
INSET
10
86050.183785
20
-2144123.498316
30
0.000000
11
86050.010597
21
-2144123.272613
31
0.000000
12
86050.184936
22
-2144123.497651
32
0.000000
13
86050.028318
23
-2144123.254893
33
0.000000
0
SOLID
8
INSET
10
86050.010597
20
-2144123.272613
30
0.000000
11
86049.784895
21
-2144123.099426
31
0.000000
12
86050.028318
22
-2144123.254893
32
0.000000
13
86049.852486
23
-2144122.982354
33
0.000000
0
SOLID
8
INSET
10
86049.784895
20
-2144123.099426
30
0.000000
11
86049.522058
21
-2144122.990555
31
0.000000
12
86049.852486
22
-2144122.982354
32
0.000000
13
86049.620574
23
-2144122.622890
33
0.000000
0
SOLID
8
INSET
10
86049.522058
20
-2144122.990555
30
0.000000
11
86049.240000
21
-2144122.953421
31
0.000000
12
86049.620574
22
-2144122.622890
32
0.000000
13
86049.240000
23
-2144122.033000
33
0.000000
0
SOLID
8
INSET
10
86049.240000
20
-2144122.953421
30
0.000000
11
86048.957942
21
-2144122.990555
31
0.000000
12
86049.240000
22
-2144122.033000
32
0.000000
13
86048.859426
23
-2144122.622890
33
0.000000
0
SOLID
8
INSET
10
86048.957942
20
-2144122.990555
30
0.000000
11
86048.695105
21
-2144123.099426
31
0.000000
12
86048.859426
22
-2144122.622890
32
0.000000
13
86048.627514
23
-2144122.982354
33
0.000000
0
SOLID
8
INSET
10
86048.695105
20
-2144123.099426
30
0.000000
11
86048.469403
21
-2144123.272613
31
0.000000
12
86048.627514
22
-2144122.982354
32
0.000000
13
86048.451682
23
-2144123.254893
33
0.000000
0
SOLID
8
INSET
10
86048.469403
20
-2144123.272613
30
0.000000
11
86048.296215
21
-2144123.498316
31
0.000000
12
86048.451682
22
-2144123.254893
32
0.000000
13
86048.295064
23
-2144123.497651
33
0.000000
0
SOLID
8
INSET
10
86048.296215
20
-2144123.498316
30
0.000000
11
86048.187344
21
-2144123.761153
31
0.000000
12
86048.295064
22
-2144123.497651
32
0.000000
13
86048.134243
23
-2144123.746924
33
0.000000
0
SOLID
8
INSET
10
86048.187344
20
-2144123.761153
30
0.000000
11
86048.150211
21
-2144124.043211
31
0.000000
12
86048.134243
22
-2144123.746924
32
0.000000
13
86047.943090
23
-2144124.043211
33
0.000000
0
SOLID
8
INSET
10
86048.150211
20
-2144124.043211
30
0.000000
11
86048.187344
21
-2144124.325269
31
0.000000
12
86047.943090
22
-2144124.043211
32
0.000000
13
86047.672035
23
-2144124.463346
33
0.000000
0
SOLID
8
INSET
10
86048.187344
20
-2144124.325269
30
0.000000
11
86048.296215
21
-2144124.588105
31
0.000000
12
86047.672035
22
-2144124.463346
32
0.000000
13
86047.352430
23
-2144125.133000
33
0.000000
0
SOLID
8
INSET
10
86048.296215
20
-2144124.588105
30
0.000000
11
86048.469403
21
-2144124.813808
31
0.000000
12
86047.352430
22
-2144125.133000
32
0.000000
13
86048.150211
23
-2144125.133000
33
0.000000
0
SOLID
8
INSET
10
86048.469403
20
-2144124.813808
30
0.000000
11
86048.695105
21
-2144124.986996
31
0.000000
12
86048.150211
22
-2144125.133000
32
0.000000
13
86048.610810
23
-2144125.133000
33
0.000000
0
SOLID
8
INSET
10
86048.695105
20
-2144124.986996
30
0.000000
11
86048.957942
21
-2144125.095866
31
0.000000
12
86048.610810
22
-2144125.133000
32
0.000000
13
86048.947992
23
-2144125.133000
33
0.000000
0
SOLID
8
INSET
10
86048.957942
20
-2144125.095866
30
0.000000
11
86049.240000
21
-2144125.133000
31
0.000000
12
86048.947992
22
-2144125.133000
32
0.000000
13
86049.240000
23
-2144125.133000
33
0.000000
0
SOLID
8
INSET
10
86049.240000
20
-2144125.133000
30
0.000000
11
86049.522058
21
-2144125.095866
31
0.000000
12
86049.240000
22
-2144125.133000
32
0.000000
13
86049.532008
23
-2144125.133000
33
0.000000
0
SOLID
8
INSET
10
86049.522058
20
-2144125.095866
30
0.000000
11
86049.784895
21
-2144124.986996
31
0.000000
12
86049.532008
22
-2144125.133000
32
0.000000
13
86049.869190
23
-2144125.133000
33
0.000000
0
SOLID
8
INSET
10
86049.784895
20
-2144124.986996
30
0.000000
11
86050.010597
21
-2144124.813808
31
0.000000
12
86049.869190
22
-2144125.133000
32
0.000000
13
86050.329789
23
-2144125.133000
33
0.000000
0
SOLID
8
INSET
10
86050.010597
20
-2144124.813808
30
0.000000
11
86050.183785
21
-2144124.588105
31
0.000000
12
86050.329789
22
-2144125.133000
32
0.000000
13
86051.127570
23
-2144125.133000
33
0.000000
0
SOLID
8
INSET
10
86050.183785
20
-2144124.588105
30
0.000000
11
86050.292656
21
-2144124.325269
31
0.000000
12
86051.127570
22
-2144125.133000
32
0.000000
13
86050.807965
23
-2144124.463346
33
0.000000
0
SOLID
8
INSET
10
86050.292656
20
-2144124.325269
30
0.000000
11
86050.329789
21
-2144124.043211
31
0.000000
12
86050.807965
22
-2144124.463346
32
0.000000
13
86050.536910
23
-2144124.043211
33
0.000000
0
TEXT
8
INSET
7
ARIAL
10
86049.240000
20
-2144120.355000
30
0.000000
40
4.100000
1
170/T
50
0.000000
41
1.000000
72
1
11
86049.240000
21
-2144120.355000
31
0.000000
0
SOLID
8
INSET
10
85945.459789
20
-2144247.393211
30
0.000000
11
85945.422656
21
-2144247.111153
31
0.000000
12
85945.666910
22
-2144247.393211
32
0.000000
13
85945.475757
23
-2144247.096924
33
0.000000
0
SOLID
8
INSET
10
85945.422656
20
-2144247.111153
30
0.000000
11
85945.313785
21
-2144246.848316
31
0.000000
12
85945.475757
22
-2144247.096924
32
0.000000
13
85945.314936
23
-2144246.847651
33
0.000000
0
SOLID
8
INSET
10
85945.313785
20
-2144246.848316
30
0.000000
11
85945.140597
21
-2144246.622613
31
0.000000
12
85945.314936
22
-2144246.847651
32
0.000000
13
85945.158318
23
-2144246.604893
33
0.000000
0
SOLID
8
INSET
10
85945.140597
20
-2144246.622613
30
0.000000
11
85944.914895
21
-2144246.449426
31
0.000000
12
85945.158318
22
-2144246.604893
32
0.000000
13
85944.982486
23
-2144246.332354
33
0.000000
0
SOLID
8
INSET
10
85944.914895
20
-2144246.449426
30
0.000000
11
85944.652058
21
-2144246.340555
31
0.000000
12
85944.982486
22
-2144246.332354
32
0.000000
13
85944.750574
23
-2144245.972890
33
0.000000
0
SOLID
8
INSET
10
85944.652058
20
-2144246.340555
30
0.000000
11
85944.370000
21
-2144246.303421
31
0.000000
12
85944.750574
22
-2144245.972890
32
0.000000
13
85944.370000
23
-2144245.383000
33
0.000000
0
SOLID
8
INSET
10
85944.370000
20
-2144246.303421
30
0.000000
11
85944.087942
21
-2144246.340555
31
0.000000
12
85944.370000
22
-2144245.383000
32
0.000000
13
85943.989426
23
-2144245.972890
33
0.000000
0
SOLID
8
INSET
10
85944.087942
20
-2144246.340555
30
0.000000
11
85943.825105
21
-2144246.449426
31
0.000000
12
85943.989426
22
-2144245.972890
32
0.000000
13
85943.757514
23
-2144246.332354
33
0.000000
0
SOLID
8
INSET
10
85943.825105
20
-2144246.449426
30
0.000000
11
85943.599403
21
-2144246.622613
31
0.000000
12
85943.757514
22
-2144246.332354
32
0.000000
13
85943.581682
23
-2144246.604893
33
0.000000
0
SOLID
8
INSET
10
85943.599403
20
-2144246.622613
30
0.000000
11
85943.426215
21
-2144246.848316
31
0.000000
12
85943.581682
22
-2144246.604893
32
0.000000
13
85943.425064
23
-2144246.847651
33
0.000000
0
SOLID
8
INSET
10
85943.426215
20
-2144246.848316
30
0.000000
11
85943.317344
21
-2144247.111153
31
0.000000
12
85943.425064
22
-2144246.847651
32
0.000000
13
85943.264243
23
-2144247.096924
33
0.000000
0
SOLID
8
INSET
10
85943.317344
20
-2144247.111153
30
0.000000
11
85943.280211
21
-2144247.393211
31
0.000000
12
85943.264243
22
-2144247.096924
32
0.000000
13
85943.073090
23
-2144247.393211
33
0.000000
0
SOLID
8
INSET
10
85943.280211
20
-2144247.393211
30
0.000000
11
85943.317344
21
-2144247.675269
31
0.000000
12
85943.073090
22
-2144247.393211
32
0.000000
13
85942.802035
23
-2144247.813346
33
0.000000
0
SOLID
8
INSET
10
85943.317344
20
-2144247.675269
30
0.000000
11
85943.426215
21
-2144247.938105
31
0.000000
12
85942.802035
22
-2144247.813346
32
0.000000
13
85942.482430
23
-2144248.483000
33
0.000000
0
SOLID
8
INSET
10
85943.426215
20
-2144247.938105
30
0.000000
11
85943.599403
21
-2144248.163808
31
0.000000
12
85942.482430
22
-2144248.483000
32
0.000000
13
85943.280211
23
-2144248.483000
33
0.000000
0
SOLID
8
INSET
10
85943.599403
20
-2144248.163808
30
0.000000
11
85943.825105
21
-2144248.336996
31
0.000000
12
85943.280211
22
-2144248.483000
32
0.000000
13
85943.740810
23
-2144248.483000
33
0.000000
0
SOLID
8
INSET
10
85943.825105
20
-2144248.336996
30
0.000000
11
85944.087942
21
-2144248.445866
31
0.000000
12
85943.740810
22
-2144248.483000
32
0.000000
13
85944.077992
23
-2144248.483000
33
0.000000
0
SOLID
8
INSET
10
85944.087942
20
-2144248.445866
30
0.000000
11
85944.370000
21
-2144248.483000
31
0.000000
12
85944.077992
22
-2144248.483000
32
0.000000
13
85944.370000
23
-2144248.483000
33
0.000000
0
SOLID
8
INSET
10
85944.370000
20
-2144248.483000
30
0.000000
11
85944.652058
21
-2144248.445866
31
0.000000
12
85944.370000
22
-2144248.483000
32
0.000000
13
85944.662008
23
-2144248.483000
33
0.000000
0
SOLID
8
INSET
10
85944.652058
20
-2144248.445866
30
0.000000
11
85944.914895
21
-2144248.336996
31
0.000000
12
85944.662008
22
-2144248.483000
32
0.000000
13
85944.999190
23
-2144248.483000
33
0.000000
0
SOLID
8
INSET
10
85944.914895
20
-2144248.336996
30
0.000000
11
85945.140597
21
-2144248.163808
31
0.000000
12
85944.999190
22
-2144248.483000
32
0.000000
13
85945.459789
23
-2144248.483000
33
0.000000
0
SOLID
8
INSET
10
85945.140597
20
-2144248.163808
30
0.000000
11
85945.313785
21
-2144247.938105
31
0.000000
12
85945.459789
22
-2144248.483000
32
0.000000
13
85946.257570
23
-2144248.483000
33
0.000000
0
SOLID
8
INSET
10
85945.313785
20
-2144247.938105
30
0.000000
11
85945.422656
21
-2144247.675269
31
0.000000
12
85946.257570
22
-2144248.483000
32
0.000000
13
85945.937965
23
-2144247.813346
33
0.000000
0
SOLID
8
INSET
10
85945.422656
20
-2144247.675269
30
0.000000
11
85945.459789
21
-2144247.393211
31
0.000000
12
85945.937965
22
-2144247.813346
32
0.000000
13
85945.666910
23
-2144247.393211
33
0.000000
0
TEXT
8
INSET
7
ARIAL
10
85944.370000
20
-2144243.705000
30
0.000000
40
4.100000
1
176/T
50
0.000000
41
1.000000
72
1
11
85944.370000
21
-2144243.705000
31
0.000000
0
SOLID
8
INSET
10
86119.159789
20
-2144224.933211
30
0.000000
11
86119.122656
21
-2144224.651153
31
0.000000
12
86119.366910
22
-2144224.933211
32
0.000000
13
86119.175757
23
-2144224.636924
33
0.000000
0
SOLID
8
INSET
10
86119.122656
20
-2144224.651153
30
0.000000
11
86119.013785
21
-2144224.388316
31
0.000000
12
86119.175757
22
-2144224.636924
32
0.000000
13
86119.014936
23
-2144224.387651
33
0.000000
0
SOLID
8
INSET
10
86119.013785
20
-2144224.388316
30
0.000000
11
86118.840597
21
-2144224.162613
31
0.000000
12
86119.014936
22
-2144224.387651
32
0.000000
13
86118.858318
23
-2144224.144893
33
0.000000
0
SOLID
8
INSET
10
86118.840597
20
-2144224.162613
30
0.000000
11
86118.614895
21
-2144223.989426
31
0.000000
12
86118.858318
22
-2144224.144893
32
0.000000
13
86118.682486
23
-2144223.872354
33
0.000000
0
SOLID
8
INSET
10
86118.614895
20
-2144223.989426
30
0.000000
11
86118.352058
21
-2144223.880555
31
0.000000
12
86118.682486
22
-2144223.872354
32
0.000000
13
86118.450574
23
-2144223.512890
33
0.000000
0
SOLID
8
INSET
10
86118.352058
20
-2144223.880555
30
0.000000
11
86118.070000
21
-2144223.843421
31
0.000000
12
86118.450574
22
-2144223.512890
32
0.000000
13
86118.070000
23
-2144222.923000
33
0.000000
0
SOLID
8
INSET
10
86118.070000
20
-2144223.843421
30
0.000000
11
86117.787942
21
-2144223.880555
31
0.000000
12
86118.070000
22
-2144222.923000
32
0.000000
13
86117.689426
23
-2144223.512890
33
0.000000
0
SOLID
8
INSET
10
86117.787942
20
-2144223.880555
30
0.000000
11
86117.525105
21
-2144223.989426
31
0.000000
12
86117.689426
22
-2144223.512890
32
0.000000
13
86117.457514
23
-2144223.872354
33
0.000000
0
SOLID
8
INSET
10
86117.525105
20
-2144223.989426
30
0.000000
11
86117.299403
21
-2144224.162613
31
0.000000
12
86117.457514
22
-2144223.872354
32
0.000000
13
86117.281682
23
-2144224.144893
33
0.000000
0
SOLID
8
INSET
10
86117.299403
20
-2144224.162613
30
0.000000
11
86117.126215
21
-2144224.388316
31
0.000000
12
86117.281682
22
-2144224.144893
32
0.000000
13
86117.125064
23
-2144224.387651
33
0.000000
0
SOLID
8
INSET
10
86117.126215
20
-2144224.388316
30
0.000000
11
86117.017344
21
-2144224.651153
31
0.000000
12
86117.125064
22
-2144224.387651
32
0.000000
13
86116.964243
23
-2144224.636924
33
0.000000
0
SOLID
8
INSET
10
86117.017344
20
-2144224.651153
30
0.000000
11
86116.980211
21
-2144224.933211
31
0.000000
12
86116.964243
22
-2144224.636924
32
0.000000
13
86116.773090
23
-2144224.933211
33
0.000000
0
SOLID
8
INSET
10
86116.980211
20
-2144224.933211
30
0.000000
11
86117.017344
21
-2144225.215269
31
0.000000
12
86116.773090
22
-2144224.933211
32
0.000000
13
86116.502035
23
-2144225.353346
33
0.000000
0
SOLID
8
INSET
10
86117.017344
20
-2144225.215269
30
0.000000
11
86117.126215
21
-2144225.478105
31
0.000000
12
86116.502035
22
-2144225.353346
32
0.000000
13
86116.182430
23
-2144226.023000
33
0.000000
0
SOLID
8
INSET
10
86117.126215
20
-2144225.478105
30
0.000000
11
86117.299403
21
-2144225.703808
31
0.000000
12
86116.182430
22
-2144226.023000
32
0.000000
13
86116.980211
23
-2144226.023000
33
0.000000
0
SOLID
8
INSET
10
86117.299403
20
-2144225.703808
30
0.000000
11
86117.525105
21
-2144225.876996
31
0.000000
12
86116.980211
22
-2144226.023000
32
0.000000
13
86117.440810
23
-2144226.023000
33
0.000000
0
SOLID
8
INSET
10
86117.525105
20
-2144225.876996
30
0.000000
11
86117.787942
21
-2144225.985866
31
0.000000
12
86117.440810
22
-2144226.023000
32
0.000000
13
86117.777992
23
-2144226.023000
33
0.000000
0
SOLID
8
INSET
10
86117.787942
20
-2144225.985866
30
0.000000
11
86118.070000
21
-2144226.023000
31
0.000000
12
86117.777992
22
-2144226.023000
32
0.000000
13
86118.070000
23
-2144226.023000
33
0.000000
0
SOLID
8
INSET
10
86118.070000
20
-2144226.023000
30
0.000000
11
86118.352058
21
-2144225.985866
31
0.000000
12
86118.070000
22
-2144226.023000
32
0.000000
13
86118.362008
23
-2144226.023000
33
0.000000
0
SOLID
8
INSET
10
86118.352058
20
-2144225.985866
30
0.000000
11
86118.614895
21
-2144225.876996
31
0.000000
12
86118.362008
22
-2144226.023000
32
0.000000
13
86118.699190
23
-2144226.023000
33
0.000000
0
SOLID
8
INSET
10
86118.614895
20
-2144225.876996
30
0.000000
11
86118.840597
21
-2144225.703808
31
0.000000
12
86118.699190
22
-2144226.023000
32
0.000000
13
86119.159789
23
-2144226.023000
33
0.000000
0
SOLID
8
INSET
10
86118.840597
20
-2144225.703808
30
0.000000
11
86119.013785
21
-2144225.478105
31
0.000000
12
86119.159789
22
-2144226.023000
32
0.000000
13
86119.957570
23
-2144226.023000
33
0.000000
0
SOLID
8
INSET
10
86119.013785
20
-2144225.478105
30
0.000000
11
86119.122656
21
-2144225.215269
31
0.000000
12
86119.957570
22
-2144226.023000
32
0.000000
13
86119.637965
23
-2144225.353346
33
0.000000
0
SOLID
8
INSET
10
86119.122656
20
-2144225.215269
30
0.000000
11
86119.159789
21
-2144224.933211
31
0.000000
12
86119.637965
22
-2144225.353346
32
0.000000
13
86119.366910
23
-2144224.933211
33
0.000000
0
TEXT
8
INSET
7
ARIAL
10
86118.070000
20
-2144221.245000
30
0.000000
40
4.100000
1
49/T
50
0.000000
41
1.000000
72
1
11
86118.070000
21
-2144221.245000
31
0.000000
0
SOLID
8
INSET
10
86124.239789
20
-2144268.743211
30
0.000000
11
86124.202656
21
-2144268.461153
31
0.000000
12
86124.446910
22
-2144268.743211
32
0.000000
13
86124.255757
23
-2144268.446924
33
0.000000
0
SOLID
8
INSET
10
86124.202656
20
-2144268.461153
30
0.000000
11
86124.093785
21
-2144268.198316
31
0.000000
12
86124.255757
22
-2144268.446924
32
0.000000
13
86124.094936
23
-2144268.197651
33
0.000000
0
SOLID
8
INSET
10
86124.093785
20
-2144268.198316
30
0.000000
11
86123.920597
21
-2144267.972613
31
0.000000
12
86124.094936
22
-2144268.197651
32
0.000000
13
86123.938318
23
-2144267.954893
33
0.000000
0
SOLID
8
INSET
10
86123.920597
20
-2144267.972613
30
0.000000
11
86123.694895
21
-2144267.799426
31
0.000000
12
86123.938318
22
-2144267.954893
32
0.000000
13
86123.762486
23
-2144267.682354
33
0.000000
0
SOLID
8
INSET
10
86123.694895
20
-2144267.799426
30
0.000000
11
86123.432058
21
-2144267.690555
31
0.000000
12
86123.762486
22
-2144267.682354
32
0.000000
13
86123.530574
23
-2144267.322890
33
0.000000
0
SOLID
8
INSET
10
86123.432058
20
-2144267.690555
30
0.000000
11
86123.150000
21
-2144267.653421
31
0.000000
12
86123.530574
22
-2144267.322890
32
0.000000
13
86123.150000
23
-2144266.733000
33
0.000000
0
SOLID
8
INSET
10
86123.150000
20
-2144267.653421
30
0.000000
11
86122.867942
21
-2144267.690555
31
0.000000
12
86123.150000
22
-2144266.733000
32
0.000000
13
86122.769426
23
-2144267.322890
33
0.000000
0
SOLID
8
INSET
10
86122.867942
20
-2144267.690555
30
0.000000
11
86122.605105
21
-2144267.799426
31
0.000000
12
86122.769426
22
-2144267.322890
32
0.000000
13
86122.537514
23
-2144267.682354
33
0.000000
0
SOLID
8
INSET
10
86122.605105
20
-2144267.799426
30
0.000000
11
86122.379403
21
-2144267.972613
31
0.000000
12
86122.537514
22
-2144267.682354
32
0.000000
13
86122.361682
23
-2144267.954893
33
0.000000
0
SOLID
8
INSET
10
86122.379403
20
-2144267.972613
30
0.000000
11
86122.206215
21
-2144268.198316
31
0.000000
12
86122.361682
22
-2144267.954893
32
0.000000
13
86122.205064
23
-2144268.197651
33
0.000000
0
SOLID
8
INSET
10
86122.206215
20
-2144268.198316
30
0.000000
11
86122.097344
21
-2144268.461153
31
0.000000
12
86122.205064
22
-2144268.197651
32
0.000000
13
86122.044243
23
-2144268.446924
33
0.000000
0
SOLID
8
INSET
10
86122.097344
20
-2144268.461153
30
0.000000
11
86122.060211
21
-2144268.743211
31
0.000000
12
86122.044243
22
-2144268.446924
32
0.000000
13
86121.853090
23
-2144268.743211
33
0.000000
0
SOLID
8
INSET
10
86122.060211
20
-2144268.743211
30
0.000000
11
86122.097344
21
-2144269.025269
31
0.000000
12
86121.853090
22
-2144268.743211
32
0.000000
13
86121.582035
23
-2144269.163346
33
0.000000
0
SOLID
8
INSET
10
86122.097344
20
-2144269.025269
30
0.000000
11
86122.206215
21
-2144269.288105
31
0.000000
12
86121.582035
22
-2144269.163346
32
0.000000
13
86121.262430
23
-2144269.833000
33
0.000000
0
SOLID
8
INSET
10
86122.206215
20
-2144269.288105
30
0.000000
11
86122.379403
21
-2144269.513808
31
0.000000
12
86121.262430
22
-2144269.833000
32
0.000000
13
86122.060211
23
-2144269.833000
33
0.000000
0
SOLID
8
INSET
10
86122.379403
20
-2144269.513808
30
0.000000
11
86122.605105
21
-2144269.686996
31
0.000000
12
86122.060211
22
-2144269.833000
32
0.000000
13
86122.520810
23
-2144269.833000
33
0.000000
0
SOLID
8
INSET
10
86122.605105
20
-2144269.686996
30
0.000000
11
86122.867942
21
-2144269.795866
31
0.000000
12
86122.520810
22
-2144269.833000
32
0.000000
13
86122.857992
23
-2144269.833000
33
0.000000
0
SOLID
8
INSET
10
86122.867942
20
-2144269.795866
30
0.000000
11
86123.150000
21
-2144269.833000
31
0.000000
12
86122.857992
22
-2144269.833000
32
0.000000
13
86123.150000
23
-2144269.833000
33
0.000000
0
SOLID
8
INSET
10
86123.150000
20
-2144269.833000
30
0.000000
11
86123.432058
21
-2144269.795866
31
0.000000
12
86123.150000
22
-2144269.833000
32
0.000000
13
86123.442008
23
-2144269.833000
33
0.000000
0
SOLID
8
INSET
10
86123.432058
20
-2144269.795866
30
0.000000
11
86123.694895
21
-2144269.686996
31
0.000000
12
86123.442008
22
-2144269.833000
32
0.000000
13
86123.779190
23
-2144269.833000
33
0.000000
0
SOLID
8
INSET
10
86123.694895
20
-2144269.686996
30
0.000000
11
86123.920597
21
-2144269.513808
31
0.000000
12
86123.779190
22
-2144269.833000
32
0.000000
13
86124.239789
23
-2144269.833000
33
0.000000
0
SOLID
8
INSET
10
86123.920597
20
-2144269.513808
30
0.000000
11
86124.093785
21
-2144269.288105
31
0.000000
12
86124.239789
22
-2144269.833000
32
0.000000
13
86125.037570
23
-2144269.833000
33
0.000000
0
SOLID
8
INSET
10
86124.093785
20
-2144269.288105
30
0.000000
11
86124.202656
21
-2144269.025269
31
0.000000
12
86125.037570
22
-2144269.833000
32
0.000000
13
86124.717965
23
-2144269.163346
33
0.000000
0
SOLID
8
INSET
10
86124.202656
20
-2144269.025269
30
0.000000
11
86124.239789
21
-2144268.743211
31
0.000000
12
86124.717965
22
-2144269.163346
32
0.000000
13
86124.446910
23
-2144268.743211
33
0.000000
0
TEXT
8
INSET
7
ARIAL
10
86123.150000
20
-2144265.055000
30
0.000000
40
4.100000
1
50/T
50
0.000000
41
1.000000
72
1
11
86123.150000
21
-2144265.055000
31
0.000000
0
POLYLINE
8
INSET
66
1
70
1
10
0.000000
20
0.000000
30
0.000000
0
VERTEX
8
INSET
10
85921.720000
20
-2144171.645000
30
0.000000
0
VERTEX
8
INSET
10
85921.662074
20
-2144171.205008
30
0.000000
0
VERTEX
8
INSET
10
85921.492243
20
-2144170.795000
30
0.000000
0
VERTEX
8
INSET
10
85921.222082
20
-2144170.442918
30
0.000000
0
VERTEX
8
INSET
10
85920.870000
20
-2144170.172757
30
0.000000
0
VERTEX
8
INSET
10
85920.459992
20
-2144170.002926
30
0.000000
0
VERTEX
8
INSET
10
85920.020000
20
-2144169.945000
30
0.000000
0
VERTEX
8
INSET
10
85919.580008
20
-2144170.002926
30
0.000000
0
VERTEX
8
INSET
10
85919.170000
20
-2144170.172757
30
0.000000
0
VERTEX
8
INSET
10
85918.817918
20
-2144170.442918
30
0.000000
0
VERTEX
8
INSET
10
85918.547757
20
-2144170.795000
30
0.000000
0
VERTEX
8
INSET
10
85918.377926
20
-2144171.205008
30
0.000000
0
VERTEX
8
INSET
10
85918.320000
20
-2144171.645000
30
0.000000
0
VERTEX
8
INSET
10
85918.377926
20
-2144172.084992
30
0.000000
0
VERTEX
8
INSET
10
85918.547757
20
-2144172.495000
30
0.000000
0
VERTEX
8
INSET
10
85918.817918
20
-2144172.847082
30
0.000000
0
VERTEX
8
INSET
10
85919.170000
20
-2144173.117243
30
0.000000
0
VERTEX
8
INSET
10
85919.580008
20
-2144173.287074
30
0.000000
0
VERTEX
8
INSET
10
85920.020000
20
-2144173.345000
30
0.000000
0
VERTEX
8
INSET
10
85920.459992
20
-2144173.287074
30
0.000000
0
VERTEX
8
INSET
10
85920.870000
20
-2144173.117243
30
0.000000
0
VERTEX
8
INSET
10
85921.222082
20
-2144172.847082
30
0.000000
0
VERTEX
8
INSET
10
85921.492243
20
-2144172.495000
30
0.000000
0
VERTEX
8
INSET
10
85921.662074
20
-2144172.084992
30
0.000000
0
SEQEND
8
INSET
0
LINE
8
INSET
10
85917.620000
20
-2144171.645000
30
0.000000
11
85922.420000
21
-2144171.645000
31
0.000000
0
LINE
8
INSET
10
85920.020000
20
-2144174.045000
30
0.000000
11
85920.020000
21
-2144169.245000
31
0.000000
0
TEXT
8
INSET
7
ARIAL
10
85920.020000
20
-2144168.045000
30
0.000000
40
4.100000
1
RM7
50
0.000000
41
1.000000
72
1
11
85920.020000
21
-2144168.045000
31
0.000000
0
POLYLINE
8
INSET
66
1
70
1
10
0.000000
20
0.000000
30
0.000000
0
VERTEX
8
INSET
10
86093.000000
20
-2144196.625000
30
0.000000
0
VERTEX
8
INSET
10
86092.942074
20
-2144196.185008
30
0.000000
0
VERTEX
8
INSET
10
86092.772243
20
-2144195.775000
30
0.000000
0
VERTEX
8
INSET
10
86092.502082
20
-2144195.422918
30
0.000000
0
VERTEX
8
INSET
10
86092.150000
20
-2144195.152757
30
0.000000
0
VERTEX
8
INSET
10
86091.739992
20
-2144194.982926
30
0.000000
0
VERTEX
8
INSET
10
86091.300000
20
-2144194.925000
30
0.000000
0
VERTEX
8
INSET
10
86090.860008
20
-2144194.982926
30
0.000000
0
VERTEX
8
INSET
10
86090.450000
20
-2144195.152757
30
0.000000
0
VERTEX
8
INSET
10
86090.097918
20
-2144195.422918
30
0.000000
0
VERTEX
8
INSET
10
86089.827757
20
-2144195.775000
30
0.000000
0
VERTEX
8
INSET
10
86089.657926
20
-2144196.185008
30
0.000000
0
VERTEX
8
INSET
10
86089.600000
20
-2144196.625000
30
0.000000
0
VERTEX
8
INSET
10
86089.657926
20
-2144197.064992
30
0.000000
0
VERTEX
8
INSET
10
86089.827757
20
-2144197.475000
30
0.000000
0
VERTEX
8
INSET
10
86090.097918
20
-2144197.827082
30
0.000000
0
VERTEX
8
INSET
10
86090.450000
20
-2144198.097243
30
0.000000
0
VERTEX
8
INSET
10
86090.860008
20
-2144198.267074
30
0.000000
0
VERTEX
8
INSET
10
86091.300000
20
-2144198.325000
30
0.000000
0
VERTEX
8
INSET
10
86091.739992
20
-2144198.267074
30
0.000000
0
VERTEX
8
INSET
10
86092.150000
20
-2144198.097243
30
0.000000
0
VERTEX
8
INSET
10
86092.502082
20
-2144197.827082
30
0.000000
0
VERTEX
8
INSET
10
86092.772243
20
-2144197.475000
30
0.000000
0
VERTEX
8
INSET
10
86092.942074
20
-2144197.064992
30
0.000000
0
SEQEND
8
INSET
0
LINE
8
INSET
10
86088.900000
20
-2144196.625000
30
0.000000
11
86093.700000
21
-2144196.625000
31
0.000000
0
LINE
8
INSET
10
86091.300000
20
-2144199.025000
30
0.000000
11
86091.300000
21
-2144194.225000
31
0.000000
0
TEXT
8
INSET
7
ARIAL
10
86091.300000
20
-2144193.025000
30
0.000000
40
4.100000
1
BASE
50
0.000000
41
1.000000
72
1
11
86091.300000
21
-2144193.025000
31
0.000000
0
ENDSEC
0
EOF
